<svg width="120" height="120" xml:space="preserve" xmlns="http://www.w3.org/2000/svg"><path d="M62.708 42.923c-.382.816-.664 1.829-.664 1.829.085.63.344.988.525 1.369 1.224 2.58 2.214 5.239 2.755 8.053.392 2.04.552 4.091.05 6.128-.666 2.702-1.756 5.225-3.401 7.486-1.82 2.501-4.155 4.369-6.986 5.608-2.187.957-4.49 1.47-6.867 1.627-3.221.212-6.378-.185-9.485-1.048-5.04-1.401-9.117-4.178-12.137-8.465-.63-.894-1.252-1.8-1.794-2.748-3.501-6.123-5.14-12.7-4.757-19.762.289-5.346 1.973-10.194 5.143-14.518a32.206 32.206 0 0 1 3.702-4.193c.539-.407 5.5-4.126 10.892-7.486.836-.413 1.682-.81 2.544-1.181.402-.173.795-.316 1.233-.562-.249.035 16.699-3.477 24.271 1.568l.057.041 5.727 4.911.138.146 2.598 3.073a47.404 47.404 0 0 1 1.924 2.717 50.895 50.895 0 0 1 4.565 8.709c.068.167.055.458.45.341-.062-1.388-.214-2.77-.524-4.136a26.068 26.068 0 0 0-.942-3.164l-.01-.049-.015-.024c-1.309-3.551-3.356-6.694-6.071-9.459a30.564 30.564 0 0 0-4.803-3.985l-.002-.002c-5.474-4.705-17.775-7.02-17.775-7.02-1.044-.384-1.96-.408-2.866-.502-.206-.021-.411-.029-.616-.046l-.071-.011-.053.002a33.296 33.296 0 0 0-7.516.237l-.052.002-.056.015a35.17 35.17 0 0 0-6.5 1.611c-.271.096-.527.213-.794.314l-.167.044-.108.065c-4.137 1.595-7.82 3.809-11.062 6.612l-.027.016-.02.022a41.785 41.785 0 0 0-5.99 6.446c-.137.181-.256.369-.389.552l-.079.086-.06.11c-2.148 2.976-3.862 6.131-5.131 9.463l-.04.074-.022.099a41.513 41.513 0 0 0-2.395 9.98c-.043.385-.068.77-.1 1.156l-.011.048.003.039c-.17 2.163-.156 4.333.107 6.493a32.96 32.96 0 0 0 .751 4.025l.002.021.011.025c.891 3.537 2.358 6.867 4.389 9.981a40.663 40.663 0 0 0 6.335 7.539l.067.08.114.083a40.909 40.909 0 0 0 7.756 5.613l.179.129.137.048a45.578 45.578 0 0 0 3.891 1.932 34.077 34.077 0 0 0 8.965 2.516l.018.006.025-.001c1.656.223 3.336.329 5.043.297 2.5-.047 4.982-.283 7.436-.767.198-.039.394-.086.592-.128l.013-.001.01-.005c3.671-.783 7.157-2.057 10.353-4.075a25.792 25.792 0 0 0 1.892-1.325l.021-.009.008-.015c3.635-2.783 6.257-6.372 7.747-10.852 1.02-3.067 1.439-6.217 1.213-9.447a17.13 17.13 0 0 0-1.178-5.2l.002-.038-.039-.056c-.8-1.965-1.974-3.763-3.559-5.375-.194-.197-.407-.367-.607-.555l-.07-.1-.128-.08c-6.047-5.872-7.715-2.997-7.715-2.997zm-44.676 2.869.001-.005v.008z" style="fill:#bf4851" transform="translate(-12.112 -12.11) scale(1.56765)"/><path d="M62.603 42.807c.247 0 .296-.015.329.002 4.186 2.197 7.343 5.329 8.934 9.871.904 2.582.974 5.242.583 7.914-.377 2.573-1.197 5.022-2.362 7.345-2.893 5.764-7.511 9.458-13.661 11.282-3.179.943-6.438 1.235-9.741 1.14-5.499-.158-10.743-1.418-15.751-3.667-3.32-1.49-6.194-3.621-8.665-6.279-5.021-5.402-7.891-11.825-8.853-19.102-1.208-9.14 1.117-17.454 6.097-25.088 3.616-5.543 8.357-9.867 14.328-12.787 3.855-1.885 7.929-2.977 12.204-3.374 5.247-.487 10.408-.081 15.468 1.398 5.393 1.576 10.163 4.246 14.119 8.275 3.513 3.578 5.923 7.781 7.038 12.696.31 1.365.462 2.748.524 4.136-.395.116-.381-.174-.45-.341a50.754 50.754 0 0 0-4.565-8.709c-2.497-3.798-5.446-7.182-9.092-9.929-3.999-3.013-8.465-4.92-13.442-5.532-3.593-.441-7.167-.205-10.704.575-4.609 1.016-8.947 2.749-13.06 5.038-4.064 2.262-7.254 5.468-9.762 9.36-2.746 4.261-4.413 8.923-5.085 13.946-.999 7.474.212 14.565 3.728 21.241 1.748 3.318 3.932 6.315 6.787 8.785 3.794 3.283 8.184 5.363 13.079 6.365 4.49.919 8.965.833 13.382-.474 3.729-1.103 6.991-2.985 9.637-5.868 2.716-2.959 4.323-6.466 4.946-10.404 1.051-6.639-.9-12.36-5.466-17.235-.15-.163-.294-.326-.524-.58z" style="fill:#9e2f30" transform="translate(-12.112 -12.11) scale(1.56765)"/><path d="M63.632 41.919c.251.061.516.091.752.189 2.576 1.071 4.884 2.553 6.844 4.548 2.912 2.963 4.484 6.53 4.774 10.669.226 3.23-.193 6.38-1.213 9.447-1.742 5.236-5.02 9.266-9.669 12.2-3.375 2.13-7.071 3.439-10.969 4.208-2.454.484-4.935.72-7.436.767-4.891.091-9.571-.882-14.051-2.819-7.678-3.318-13.898-8.398-18.479-15.424-2.794-4.284-4.535-8.97-5.153-14.052-.313-2.574-.29-5.163 0-7.736.848-7.522 3.56-14.324 8.115-20.365 4.73-6.273 10.718-10.898 18.17-13.519 4.816-1.694 9.773-2.335 14.867-1.809.906.094 1.822.118 2.866.502-.706.107-1.246.057-1.781.049-5.175-.074-10.208.729-15.061 2.537-8.356 3.112-14.59 8.678-18.873 16.466-2.254 4.099-3.859 8.438-4.587 13.066-1.23 7.824-.279 15.352 3.218 22.509 2.04 4.175 4.998 7.584 8.664 10.401 5.131 3.943 10.863 6.534 17.273 7.509 6.403.974 12.597.129 18.439-2.664 6.557-3.136 10.89-8.246 12.839-15.285.918-3.314.958-6.66.027-9.989-1.198-4.282-3.775-7.548-7.449-9.986-.583-.387-1.203-.716-1.795-1.09-.127-.08-.204-.238-.304-.36z" style="fill:#9e2f30" transform="translate(-12.112 -12.11) scale(1.56765)"/><path d="M43.566 14.78c-.044.106-.06.27-.137.309-.391.196-.797.36-1.199.533-4.165 1.796-8.049 4.06-11.545 6.965-2.097 1.743-3.978 3.692-5.593 5.895-3.172 4.324-4.855 9.172-5.144 14.518-.382 7.062 1.256 13.639 4.757 19.762.542.948 1.164 1.854 1.794 2.748 3.021 4.286 7.097 7.064 12.137 8.465 3.107.863 6.263 1.26 9.485 1.048 2.377-.157 4.679-.669 6.867-1.627 2.83-1.239 5.166-3.107 6.986-5.608 1.645-2.262 2.735-4.785 3.401-7.486.502-2.037.342-4.088-.05-6.128-.541-2.813-1.531-5.473-2.755-8.053-.181-.381-.44-.739-.525-1.369.258.216.392.297.484.411 2.314 2.867 4.032 6.028 4.823 9.661.825 3.792.381 7.434-1.463 10.828-3.177 5.848-8.049 9.488-14.623 10.719-5.507 1.031-10.809.159-15.936-1.955-1.129-.466-2.219-1.042-3.287-1.639-2.325-1.299-4.261-3.041-5.85-5.191-3.891-5.262-6.547-11.07-7.679-17.522-.998-5.682-.608-11.259 1.688-16.62 3.178-7.418 8.479-12.762 15.809-16.109 2.196-1.003 4.479-1.759 6.802-2.403.251-.07.518-.081.777-.119a.944.944 0 0 0-.024-.033Z" style="fill:#9e2f30" transform="translate(-12.112 -12.11) scale(1.56765)"/><path d="M30.493 38.457c.06-2.876.825-5.79 2.34-8.497 1.544-2.757 3.678-4.961 6.156-6.521-.576.166-1.085.072-1.721-.325-1.454-.908-2.347-.611-3.182.877-1.852 3.299-3.698 6.602-5.545 9.904-1.036 1.851-.863 2.575.995 3.555.512.267.812.562.957 1.007z" style="fill:#ffdf74" transform="translate(-12.112 -12.11) scale(1.56765)"/><path d="M38.52 55.014C29.652 50.05 26.938 39.4 31.738 30.825c4.8-8.575 15.297-11.829 24.165-6.865 8.868 4.964 11.777 15.723 6.977 24.299-4.8 8.576-15.492 11.72-24.36 6.755z" style="opacity:.2" transform="translate(-12.112 -12.11) scale(1.56765)"/><path d="M39.52 54.014C30.652 49.05 27.938 38.4 32.738 29.825c4.8-8.575 15.297-11.829 24.165-6.865 8.868 4.964 11.777 15.723 6.977 24.299-4.8 8.576-15.492 11.72-24.36 6.755z" style="fill:#faec94" transform="translate(-12.112 -12.11) scale(1.56765)"/><path d="m56.55 55.083.036.123c.418 1.423.779 2.867 1.274 4.263.46 1.3 1.654 1.787 2.869 1.982 1.149.184 1.644-.758 2.123-1.633 1.194-2.18 2.421-4.341 3.635-6.509 2.609-4.661 5.221-9.32 7.825-13.984.598-1.071.532-1.964-.265-2.602-1.04-.833-2.157-1.392-3.582-.918-1.254.417-2.535.743-3.743 1.075-3.231 1.547-4.471 4.974-6.371 8.368-1.906 3.404-4.178 6.263-3.801 9.835z" style="fill:#ffdf74" transform="translate(-12.112 -12.11) scale(1.56765)"/><path d="M63.227 29.503a.557.557 0 0 1 .51-.285c2.23.095 3.874.819 4.885 2.15 1.611 2.123.969 4.976.941 5.096a.557.557 0 1 1-1.085-.252c.01-.044.543-2.482-.748-4.176-.801-1.051-2.161-1.625-4.041-1.705a.557.557 0 0 1-.462-.828ZM48.402 55.985a.558.558 0 0 0 .024.583c1.247 1.851 2.723 2.874 4.387 3.04 2.652.264 4.748-1.775 4.836-1.862a.557.557 0 1 0-.782-.792c-.032.032-1.832 1.761-3.951 1.546-1.315-.133-2.515-.992-3.566-2.553a.557.557 0 0 0-.948.038z" style="fill:#4d4d4d" transform="translate(-12.112 -12.11) scale(1.56765)"/></svg>