<svg width="120" height="120" xml:space="preserve" xmlns="http://www.w3.org/2000/svg"><path d="M25.508 47.814s-12.375 18 11.625 34.25c0 0 1.75-7.5 8.5-8.75 0 0 2.25-34.75-20.125-25.5z" style="fill:#ffdf74" transform="matrix(1.56096 0 0 1.56096 -11.803 -11.804)"/><path d="M32.383 47.248s-1.31 13.847 3.5 21.316c4.81 7.469 16.5 7.5 17.167 7.5.667 0 7.833.167 10.667 1.167 2.671.943 6.971 3.218 9.409 1.243.148-.12-4.793-3.59-4.659-3.743 0 0 5.167 3.583 6.738 2.885 1.804-.802 4.817-2.226 6.345-5.718 0 0 2.833-3.5 0-5.5s-8.5-6.667-9.5-12.667-4.333-13.167-8.667-13.667-18.326-6.167-31.163 6.167" style="opacity:.2" transform="matrix(1.56096 0 0 1.56096 -11.803 -11.804)"/><path d="M33.383 46.248s-1.31 13.847 3.5 21.316c4.81 7.469 16.5 7.5 17.167 7.5.667 0 7.833.167 10.667 1.167 2.671.943 6.971 3.218 9.409 1.243.148-.12-4.793-3.59-4.659-3.743 0 0 5.167 3.583 6.738 2.885 1.804-.802 4.817-2.226 6.345-5.718 0 0 2.833-3.5 0-5.5s-8.5-6.667-9.5-12.667-4.333-13.167-8.667-13.667-18.326-6.167-31.163 6.167" style="fill:#faec94" transform="matrix(1.56096 0 0 1.56096 -11.803 -11.804)"/><path d="M56.258 50.127s4.329-1.515 8.125 0c4.125 1.646 6.188 7.896 6.188 7.896s-3.313-3.896-4.125-3.958c0 0-2.396.458-5.25-.465-1.886-.61-3.625-2.223-4-3.285z" style="fill:#f5b400" transform="matrix(1.56096 0 0 1.56096 -11.803 -11.804)"/><path d="M64.901 52.978a11.01 11.01 0 0 1-3.337-.521c-1.068-.346-2.03-1.067-2.628-1.694.503-.065 1.063-.11 1.653-.11 1.245 0 2.372.198 3.349.588.84.336 1.604.93 2.279 1.646-.039.006-.542.091-1.316.091z" style="fill:#4d4d4d" transform="matrix(1.56096 0 0 1.56096 -11.803 -11.804)"/><path d="M24.331 19.186s3.135-6.872 15.635-8.955 21.667 7.493 22.667 8.955c1 1.462 6.833 10.462 3.083 18.795-3.75 8.333-13.67 6.802-16.918 4.609 0 0 4.314-26.366-24.467-23.404z" style="fill:#af3e4b" transform="matrix(1.56096 0 0 1.56096 -11.803 -11.804)"/><path d="M59.659 16.216s11.224.848 14.307 9.765.542 14.22-3.396 18.985c0 0-2.135-4.618-5.494-5.76 0 0 6.192-11.838-5.417-22.99z" style="fill:#bf4851" transform="matrix(1.56096 0 0 1.56096 -11.803 -11.804)"/><path d="M35.269 11.35s-.405 1.839 0 2.714c0 0 .613-2.915 1.19-3.068zm16.807.295s-3.776 3.336-4.109 4.128c0 0 4.196-3.011 6.577-2.985zm14.432 16.961s-5.25 1.875-7.584 1.583c0 0 5.602 1.137 7.78.402zm8.54 1.486s-1.915-.306-2.665 0c0 0 2.825 1.081 2.848 1.3z" style="fill:#9e2f30" transform="matrix(1.56096 0 0 1.56096 -11.803 -11.804)"/><path d="M21.549 28.064s-6 8.868 1.833 18.184 18.5 2.816 18.5 2.816 14.167-7.833 7.667-21-18.167-10.167-21.167-10c-3 .167-17.5 5.205-20.5 20.269.001 0 6.001-8.935 13.667-10.269z" style="fill:#bf4851" transform="matrix(1.56096 0 0 1.56096 -11.803 -11.804)"/><path d="M19.693 21.559s-.524 2.547 0 3.463c0 0 .484-3.839 1.743-4.479zm17.924-3.502s-3.06 2.257-4.397 5.132c0 0 4.842-4.243 6.794-4.434zm13.639 17.216s-2.123 1.917-7.04 1.375c0 0 4.632 1.595 6.649 1.36 0 0 .393-2.11.391-2.735zM28.653 50.267s-.187-2.661.355-5.661c0 0-1.706 2.692-1.77 4.95zM19.46 37.694s1.112-1.338 1.976-1.296c0 0-1.813-.288-2.079.254zm2.089-9.63s4.458-1.708 9.792.917 5.917 6.425 4.375 7.671c-1.542 1.246-2.367.426-2.496-.331s.208-2.191 1.58-2.507c-.001 0-4.626-7-13.251-5.75z" style="fill:#9e2f30" transform="matrix(1.56096 0 0 1.56096 -11.803 -11.804)"/><path d="M80.901 64.156s-2.351 3.575 1.649 6.741c-.001.001 4.452-4.232-1.649-6.741z" style="fill:#4d4d4d" transform="matrix(1.56096 0 0 1.56096 -11.803 -11.804)"/></svg>