<svg width="120" height="120" xml:space="preserve" xmlns="http://www.w3.org/2000/svg"><path d="M40.092 5.397c-.163.032-.327.058-.489.096-2.828.649-4.99 2.255-6.626 4.615-1.212 1.749-2.017 3.688-2.533 5.736-.976 3.869-2.893 7.204-5.569 10.133-.412.451-.793.933-1.162 1.42-1.19 1.569-2.421 3.1-3.844 4.557l-6.98-.84c.084-.258.124-.46.214-.636.099-.193.247-.361.371-.541 1.696-2.456 3.168-5.037 4.321-7.794.186-.444.393-.879.576-1.324 2.042-4.976 5.494-8.806 9.787-11.921 2.549-1.85 5.392-3.069 8.521-3.571 1.127-.182 2.257-.233 3.413.07zm32.091 26.565c-.223-.216-.427-.382-.592-.581-1.065-1.278-2.122-2.563-3.18-3.846-.473-.574-.92-1.17-1.417-1.722-2.595-2.881-4.459-6.151-5.41-9.93a18.741 18.741 0 0 0-1.767-4.513c-.662-1.196-1.459-2.288-2.455-3.228-1.264-1.193-2.717-2.056-4.409-2.497-.362-.095-.719-.21-1.334-.391 1.907-.224 3.504-.033 5.088.344 2.546.605 4.867 1.708 7.012 3.19 3.101 2.142 5.64 4.844 7.788 7.921.931 1.334 1.585 2.821 2.219 4.314 1.046 2.46 2.172 4.879 3.641 7.123.431.659.872 1.313 1.303 1.972.165.252.314.514.454.746-.044.09-.057.133-.084.167-.025.031-.06.07-.095.075-2.253.287-4.507.571-6.762.856z" style="fill:#bf4851" transform="translate(-.354 -.353) scale(1.31203)"/><path d="M61.938 55.647c-2.427 4.858-5.954 11.504-15.93 11.504-9.976 0-13.527-6.689-15.939-11.504.14 0 31.655.043 31.869 0z" style="fill:#ffdf74" transform="translate(-.354 -.353) scale(1.31203)"/><path d="M27.084 44.66c-.174.85-.342 1.978-.647 3.068-.303 1.083-.973 1.409-2.008 1.009a5.327 5.327 0 0 1-1.551-.95c-.688-.603-1.312-1.283-1.924-1.967-.79-.884-1.623-1.709-2.592-2.401-.532-.38-1.023-.821-1.503-1.266a6.668 6.668 0 0 1-.868-.979c-.929-1.289-.799-2.135.47-3.124a23.37 23.37 0 0 1 1.593-1.154 5.702 5.702 0 0 1 1.165-.592c.883-.318 1.733-.234 2.458.406.358.316.68.678.99 1.042a203.581 203.581 0 0 1 2.608 3.114c.469.574.926 1.162 1.343 1.774.351.517.484 1.118.466 2.02zm37.776-.357c.066-.653.226-1.246.589-1.755a35.05 35.05 0 0 1 1.451-1.856c.775-.946 1.563-1.88 2.35-2.816.281-.334.552-.681.865-.983.846-.815 1.824-.976 2.899-.504 1.176.516 2.167 1.312 3.115 2.153.548.486.64 1.155.343 1.805-.214.47-.499.935-.852 1.307-.569.6-1.179 1.18-1.847 1.664-1.108.804-2.051 1.762-2.959 2.773a27.435 27.435 0 0 1-1.852 1.853c-.452.416-.986.728-1.598.867-.907.207-1.488-.039-1.738-.931-.327-1.171-.517-2.382-.766-3.577z" style="fill:#bf4851" transform="translate(-.354 -.353) scale(1.31203)"/><path d="M63.561 23.207c-6.156-.886-12.704-7.792-13.143-13.928.863 1.31 1.617 2.532 2.685 3.511 1.039.953 2.155 1.8 3.424 2.404 1.297.617 2.638 1.14 3.946 1.698.426 1.077.796 2.2 1.309 3.253.509 1.042 1.162 2.013 1.779 3.062zm-35.154.07c.679-1.153 1.338-2.135 1.853-3.186.497-1.013.846-2.098 1.312-3.284.19-.069.508-.198.835-.303 1.801-.58 3.487-1.393 5.027-2.498 1.475-1.058 2.703-2.346 3.622-3.919.129-.22.266-.435.523-.853 0 .42.036.616-.005.793-1.159 5.055-4.025 8.843-8.512 11.415a16.985 16.985 0 0 1-4.655 1.835zm2.684 37.768c-.019.165.01.355-.067.479-.111.178-.284.328-.456.457-2.574 1.939-5.38 3.405-8.557 4.063-1.458.302-2.936.435-4.421.154-.298-.057-.604-.106-.886-.212-.678-.255-.834-.806-.298-1.319 1.353-1.295 2.884-2.269 4.855-2.235.433.007.881.036 1.293.157.7.206 1.38.18 2.063-.013 1.132-.32 2.261-.652 3.391-.982.669-.196 1.334-.407 2.006-.593.207-.057.431-.07.647-.071.123-.002.247.063.43.115zm29.874.005c.424-.24.848-.111 1.265.013.836.248 1.667.515 2.504.759.963.28 1.927.558 2.898.81a3.225 3.225 0 0 0 1.683-.006c1.655-.451 3.201-.173 4.632.755.475.308.939.637 1.383.988.199.158.36.38.496.599.199.321.091.741-.254.89a5.292 5.292 0 0 1-1.118.334c-1.799.333-3.574.11-5.316-.346-2.825-.739-5.354-2.094-7.674-3.85-.457-.347-.448-.36-.499-.946zm13.287-5.63c.495.11 1.263.265 2.021.456.247.062.485.195.702.335.33.212.406.64.13.897a5.346 5.346 0 0 1-1.041.775c-1.391.768-2.896 1.224-4.465 1.413-2.583.311-5.14.115-7.653-.573a3.774 3.774 0 0 1-.939-.423c-.063-.038-.038-.41.02-.432.4-.152.813-.313 1.234-.357 1.128-.117 2.262-.171 3.393-.263.477-.039.953-.104 1.427-.172a4.128 4.128 0 0 0 1.806-.712c.922-.642 1.959-.94 3.365-.944zm-51.097 4.003c-2.601.041-4.862-.343-6.971-1.422a5.965 5.965 0 0 1-1.096-.704c-.507-.423-.435-.976.191-1.233 1.852-.76 3.747-1.018 5.525.12 1.118.716 2.3.995 3.581 1.07 1.089.064 2.179.14 3.264.246.428.042.851.164 1.267.284.09.026.19.198.192.304.002.109-.086.281-.178.32-.36.15-.732.279-1.11.377-1.611.421-3.25.646-4.665.638zm-10.784-3.781a1.853 1.853 0 0 1-1.316-.441c-.47-.387-.942-.792-1.326-1.261-1.398-1.707-2.361-3.676-3.298-5.656-.037-.078-.057-.165-.078-.25-.065-.266.133-.585.398-.555.381.044.794.092 1.12.272.609.337 1.194.735 1.736 1.173.782.632 1.494 1.353 2.279 1.981.819.655 1.694 1.239 2.534 1.869.276.207.566.424.765.697.386.529.252 1.104-.282 1.482-.474.336-1.749.686-2.532.689zm67.341.028c-.961-.118-1.741-.231-2.44-.618-.779-.432-.882-1.199-.255-1.839.18-.184.405-.33.625-.469 1.256-.796 2.393-1.739 3.503-2.727.843-.751 1.76-1.422 2.67-2.094.383-.283.824-.488 1.333-.47.401.014.655.338.484.708-1.01 2.177-2.059 4.335-3.665 6.154a5.165 5.165 0 0 1-1.195 1.001c-.357.213-.805.274-1.06.354zM14.559 33.026c.65-.046 1.299-.114 1.95-.133.65-.019 1.303-.01 1.952.031.251.016.508.127.736.245.464.24.607.848.232 1.214-.366.357-.816.639-1.259.906-.706.426-1.445.798-2.152 1.221-.61.365-1.259.605-1.959.675-1.535.154-2.755-.852-2.893-2.357-.092-1.003.317-1.606 1.306-1.763.683-.108 1.386-.095 2.08-.136zm66.299 1.485c.037 1.625-1.216 2.815-2.849 2.677a4.606 4.606 0 0 1-1.968-.648c-.748-.441-1.519-.843-2.265-1.287-.407-.243-.825-.496-1.161-.824-.424-.414-.282-1.062.266-1.291a3.843 3.843 0 0 1 1.133-.275c.474-.04.956.005 1.435.019.825.024 1.651.044 2.476.083.607.029 1.225.024 1.816.145.749.152 1.101.66 1.117 1.401zm3.875 23.657c.13.354.23.508.239.667a8.38 8.38 0 0 1-.509 3.339c-.393 1.077-1.181 1.734-2.313 1.874-1.254.155-2.517.242-3.779.323-.616.039-1.226-.062-1.745-.438-.28-.203-.565-.426-.477-.94.971-.337 1.982-.698 3-1.039 1.083-.363 2.126-.815 3.017-1.533.838-.673 1.62-1.416 2.567-2.253zm-77.448.049c.306.23.574.372.762.584a10.714 10.714 0 0 0 4.872 3.166c.871.275 1.737.565 2.606.848.398.129.482.482.2.811-.328.383-.754.59-1.236.676-.299.053-.61.091-.911.07-1.217-.087-2.436-.173-3.647-.312-1.191-.137-2.001-.814-2.401-1.943a8.596 8.596 0 0 1-.49-3.211c.007-.198.135-.39.245-.689zm83.317-7.945c.856.943.811 1.899.666 2.862-.051.342-.198.669-.298 1.004-.225.752-.469 1.499-.663 2.259-.091.355-.186.683-.528.856-.941.477-1.928.831-2.978.967-.471.061-.73-.31-.543-.759.134-.321.298-.633.485-.926.259-.405.549-.79.834-1.178 1.134-1.545 2.345-3.044 3.025-5.085zM5.852 57.95c-.208.088-.444.286-.652.26a8.293 8.293 0 0 1-2.971-.979c-.204-.112-.42-.38-.45-.601-.154-1.097-.611-2.097-.93-3.141-.278-.91-.291-1.812.142-2.683.073-.147.2-.268.322-.426.114.126.242.206.276.315.372 1.19 1.07 2.199 1.78 3.199.583.821 1.195 1.62 1.775 2.443.325.462.664.928.708 1.613zm52.77 6.151c.156-.01.338-.068.491-.024 2.757.795 5.163 2.139 6.876 4.516.302.419.522.906.722 1.385.158.379-.124.718-.537.651-1.396-.224-2.641-.769-3.275-2.111-.453-.96-1.171-1.612-1.982-2.215-.631-.47-1.269-.931-1.889-1.415-.23-.179-.508-.362-.406-.787zm-25.214.054c.074.373-.198.56-.432.742-.62.483-1.256.946-1.888 1.414-.812.602-1.526 1.256-1.976 2.217-.606 1.295-1.814 1.834-3.148 2.095-.558.109-.828-.24-.624-.782.122-.324.287-.637.47-.931.657-1.052 1.522-1.912 2.514-2.645 1.277-.944 2.692-1.617 4.203-2.093.204-.064.425-.085.64-.103.076-.007.159.055.241.086zm-9.801 14.81c-.348-1.585-.406-3.195-.297-4.814.015-.217.069-.432.119-.644.301-1.295 1.178-2.013 2.512-2.061.545-.02.932.38.861.908a1.61 1.61 0 0 1-.145.502c-.63 1.261-.962 2.623-1.383 3.957-.208.66-.544 1.283-.857 1.905-.135.267-.184.25-.81.247zm44.77.107c-.247-.067-.499-.063-.626-.187a2.466 2.466 0 0 1-.506-.755 10.95 10.95 0 0 1-.56-1.468c-.36-1.261-.702-2.525-1.284-3.709-.198-.404-.312-.859.007-1.24.329-.393.785-.276 1.22-.171 1.196.288 1.916 1.002 2.031 2.254.162 1.746.129 3.482-.282 5.276zM5.32 37.717c.089 1.006.111 1.743.228 2.465.264 1.618.966 3.076 1.746 4.5.204.371.403.745.614 1.137-.611.327-1.163.291-1.73.169-.81-.175-1.33-.679-1.531-1.452-.297-1.14-.538-2.296-.78-3.45a2.19 2.19 0 0 1 .187-1.408c.131-.276.255-.558.42-.813.207-.323.453-.621.846-1.148Zm81.232.28c1.31 1.08 1.979 2.301 1.403 3.936-.231.654-.316 1.361-.459 2.045-.375 1.804-1.409 2.401-3.358 1.859.127-.271.246-.529.368-.786.523-1.105 1.086-2.194 1.554-3.321.249-.599.392-1.257.476-1.903.077-.602.016-1.22.016-1.83zM59.63 77.946c-.041-.654-.087-1.307-.12-1.962-.013-.26-.026-.526.013-.781.064-.422.478-.643.891-.508 1.216.396 1.879 1.326 1.72 2.579-.092.73-.298 1.455-.535 2.154-.266.783-.613 1.54-.953 2.296-.058.13-.297.306-.377.273-.176-.071-.395-.24-.434-.407a10.445 10.445 0 0 1-.254-1.678c-.041-.653-.01-1.31-.01-1.965zM30.741 74.03c-.336-.54-.169-1.06-.039-1.554a8.655 8.655 0 0 1 1.202-2.607c.938-1.399 2.125-2.547 3.52-3.481.171-.114.38-.171.55-.245.243.238.18.453.056.634a95.541 95.541 0 0 1-1.362 1.926c-.569.784-1.021 1.593-1.171 2.593-.198 1.316-1.118 2.131-2.261 2.703-.137.068-.333.023-.495.031zm1.685 3.984c0 .743.038 1.489-.013 2.228-.036.516-.183 1.026-.311 1.531-.026.103-.196.25-.283.239-.149-.019-.294-.133-.424-.231-.064-.048-.1-.144-.129-.225a615.878 615.878 0 0 1-1.243-3.446 2.956 2.956 0 0 1-.125-.509c-.237-1.422.21-2.255 1.516-2.836.592-.263 1.076.002 1.11.631.016.303-.035.61-.051.915-.03.567-.058 1.135-.086 1.702zm23.256-11.936c.45.123.628.129.755.213 2.014 1.33 3.622 3.019 4.567 5.273.271.647.48 1.316.457 2.032-.011.343-.336.566-.645.419-1.159-.552-2.089-1.375-2.292-2.678-.164-1.048-.638-1.888-1.234-2.704-.361-.495-.737-.978-1.079-1.485-.165-.247-.267-.534-.529-1.07zm9.393 19.347c1.342-1.879 1.485-3.79 1.598-5.743.622-.034.984.312 1.298.733.283.38.305.823.169 1.246-.252.784-.512 1.571-.84 2.325-.357.818-1.091 1.162-2.225 1.439zm-38.485-.09c-1.118-.256-1.863-.881-2.123-2.046-.095-.423-.293-.823-.446-1.232-.474-1.266-.192-1.843 1.174-2.376.238.128.176.369.186.568.084 1.723.354 3.394 1.316 4.881.018.029-.065.125-.107.205zm29.266 1.497c.483-.533.93-.95 1.282-1.436.356-.492.64-1.041.914-1.587.268-.536.483-1.098.732-1.672 1.134.913 1.232 1.477.493 2.463-.288.384-.606.749-.867 1.151-.591.907-1.446 1.132-2.554 1.081zm-19.698.004c-1.111.044-1.973-.18-2.562-1.096-.259-.402-.579-.765-.866-1.15-.732-.983-.623-1.582.508-2.433.247.569.464 1.13.733 1.666.273.545.557 1.094.913 1.585.35.486.796.902 1.274 1.428z" style="fill:#9e2f30" transform="translate(-.354 -.353) scale(1.31203)"/><path d="M37.071 36.472c1.787-.856 3.671-1.405 5.634-1.703 3.993-.605 7.853-.151 11.583 1.398.121.05.239.11.359.162 1.015.443 3.368.03 3.292.547.023 1.843.222 2.948 1.352 4.347.523.647 1.06 1.283 1.594 1.92 1.072 1.28 2.041 2.63 2.746 4.151.52 1.12.921 2.283.872 3.537-.022.562-.07 1.159-.28 1.669-.433 1.048-.978 2.05-1.487 3.066-.097.194-.236.369-.366.544-1.906 2.554-4.451 3.412-7.529 2.795-.598-.12-1.185-.318-1.757-.534-2.926-1.104-5.958-1.366-9.048-1.162-1.449.096-2.85.453-4.232.883-.794.247-1.581.514-2.38.742-1.113.318-2.255.341-3.387.159-1.332-.214-2.489-.821-3.444-1.779-1.395-1.398-2.271-3.108-2.816-4.978-.35-1.201-.229-2.424.146-3.624.423-1.357 1.123-2.566 1.957-3.698.909-1.233 1.864-2.433 2.807-3.641.827-1.059 1.42-2.217 1.449-3.588.011-.564 2.374-.944 2.935-1.213z" style="opacity:.2" transform="translate(-.354 -.353) scale(1.31203)"/><path d="M37.071 35.472c1.787-.856 3.671-1.405 5.634-1.703 3.993-.605 7.853-.151 11.583 1.398.121.05.239.11.359.162 1.015.443 3.368.03 3.292.547.023 1.843.222 2.948 1.352 4.347.523.647 1.06 1.283 1.594 1.92 1.072 1.28 2.041 2.63 2.746 4.151.52 1.12.921 2.283.872 3.537-.022.562-.07 1.159-.28 1.669-.433 1.048-.978 2.05-1.487 3.066-.097.194-.236.369-.366.544-1.906 2.554-4.451 3.412-7.529 2.795-.598-.12-1.185-.318-1.757-.534-2.926-1.104-5.958-1.366-9.048-1.162-1.449.096-2.85.453-4.232.883-.794.247-1.581.514-2.38.742-1.113.318-2.255.341-3.387.159-1.332-.214-2.489-.821-3.444-1.779-1.395-1.398-2.271-3.108-2.816-4.978-.35-1.201-.229-2.424.146-3.624.423-1.357 1.123-2.566 1.957-3.698.909-1.233 1.864-2.433 2.807-3.641.827-1.059 1.42-2.217 1.449-3.588.011-.564 2.374-.944 2.935-1.213z" style="fill:#faec94" transform="translate(-.354 -.353) scale(1.31203)"/><path d="M34.111 37.114s-.042-1.375-.208-2.958c-.167-1.583.5-.792.5-.792s1.207 2.161 2 2.333c.793.173-2.042 1.834-2.292 1.417zm23.78 0s.042-1.375.208-2.958c.167-1.583-.5-.792-.5-.792s-1.207 2.161-2 2.333c-.794.173 2.042 1.834 2.292 1.417z" style="fill:#f5b400" transform="translate(-.354 -.353) scale(1.31203)"/></svg>