<svg width="120" height="120" xml:space="preserve" xmlns="http://www.w3.org/2000/svg"><path d="M62.067 73.578s3.75 0 4.375-1.563c.625-1.562.187-1.937-1.188-3.75-1.375-1.812-2.624-3.563 4.188-8.219l1.74.624s-2.991 2.282-2.991 4.47c0 2.188 2.78 3.729 2.375 5.125-.562 1.938-2.999 5.251-8.499 3.313z" style="fill:#5c5c5c" transform="matrix(1.54825 0 0 1.54825 -9.672 -9.671)"/><path d="M42.449 26.944s-12.445 10.01-14.695 20.322c-2.25 10.313-1.447 22.875 10.714 30 12.161 7.125 23.598 2.438 23.598 2.438s-20.036-8.063-1.049-21.813l-6.275-32.795Z" style="fill:#ffdf74" transform="matrix(1.54825 0 0 1.54825 -9.672 -9.671)"/><path d="M53.942 24.516s-6.333-11.75-21.833-6.75c-15.5 5-28.667 30.667-14.5 51.333 0 0-17.833-16.066-8.167-38.366 9.666-22.3 28.625-23.592 38.833-20.967 9.846 2.532 16.479 13.625 16.479 13.625s-4.39 7.155-10.812 1.125z" style="fill:#bf4851" transform="matrix(1.54825 0 0 1.54825 -9.672 -9.671)"/><path style="fill:#9e2f30" d="m58.443 15.764-2.689 3.002 3.734-1.985zM48.275 9.766l-1.833 4.062.331-4.405Zm-9.807-.983v3.608l-1.149-3.477Zm-10.047 2.211.896 3.834-2.38-3.203zm-7.8 4.511 1.321 4.073-2.452-3.132zm-6.79 7.29 1.611 2.3-2.387-1.15zm-4.712 8.706 2.51 2.077-3.012-.777zM6.663 41.643h2.216L6.78 40.449Zm.453 8.215 1.013-.467-1.172-.45zm1.961 6.565h1.046l-.706.799zm3.403 6.423.575-.268-.288.699z" transform="matrix(1.54825 0 0 1.54825 -9.672 -9.671)"/><path d="M37.754 18.766s2.188 3.188 4.063 3.688c1.875.5 6.562-.438 11.125 3.062 4.562 3.5 8.125 3 10.812-1.125 0 0 1.188 2.813 5.313 2.125 0 0-1.563 8.563 1.375 13.438 2.937 4.875 8.187 8.375 9.375 9.125 0 0 1.338.209 2.236.285.27.023.447.291.352.545-.173.462-.496 1.129-1.025 1.545 0 0 .25 3.062-1 4.75-1.25 1.687-4 1.625-4 1.625s-3.625-2.375-11.125-1.5c0 0 6.5 1.312 7.688 2.312 1.187 1 1.937 1.75 1.062 3s-4.625-.187-5.937-.75c-1.313-.562-9.438-2.625-13.063-3.5s-10.375-3-9.562-11.25c.812-8.25 4.25-15.937 6.25-18.375 0 0-3.563 1.313-7.875.875-4.314-.438-7.314-4.875-6.064-9.875z" style="opacity:.2" transform="matrix(1.54825 0 0 1.54825 -9.672 -9.671)"/><path d="M38.754 17.766s2.188 3.188 4.063 3.688c1.875.5 6.562-.438 11.125 3.062 4.562 3.5 8.125 3 10.812-1.125 0 0 1.188 2.813 5.313 2.125 0 0-1.563 8.563 1.375 13.438 2.937 4.875 8.187 8.375 9.375 9.125 0 0 1.338.209 2.236.285.27.023.447.291.352.545-.173.462-.496 1.129-1.025 1.545 0 0 .25 3.062-1 4.75-1.25 1.687-4 1.625-4 1.625s-3.625-2.375-11.125-1.5c0 0 6.5 1.312 7.688 2.312 1.187 1 1.937 1.75 1.062 3s-4.625-.187-5.937-.75c-1.313-.562-9.438-2.625-13.063-3.5s-10.375-3-9.562-11.25c.812-8.25 4.25-15.937 6.25-18.375 0 0-3.563 1.313-7.875.875-4.314-.438-7.314-4.875-6.064-9.875z" style="fill:#faec94" transform="matrix(1.54825 0 0 1.54825 -9.672 -9.671)"/><path d="M56.285 35.078s4.469-.781 7.594.156 4.563 3.063 5.531 6.031c0 0-1.906-2.305-2.438-2.325-.531-.019-3.375.575-4.875.168-1.499-.405-3.78-1.53-5.812-4.03z" style="fill:#f5b400" transform="matrix(1.54825 0 0 1.54825 -9.672 -9.671)"/><path d="M63.452 37.852c-.531 0-.831-.051-.988-.094-.566-.153-1.732-.564-3.056-1.574.226-.007.458-.012.694-.012 1.349 0 2.484.135 3.374.402.853.256 1.565.609 2.175 1.1-.655.084-1.473.178-2.199.178zM80.898 48.09l2.154.274a.42.42 0 0 1 .347.556c-.201.561-.562 1.381-1.02 1.534-.497.166-1.811-1.339-1.664-2.241.013-.083.101-.134.183-.123z" style="fill:#4d4d4d" transform="matrix(1.54825 0 0 1.54825 -9.672 -9.671)"/></svg>