<svg width="120" height="120" xml:space="preserve" xmlns="http://www.w3.org/2000/svg"><path d="M63.25 22.125s.375-4.562-8.438-8.75C46 9.188 31.5 9 22.625 14.25 13.75 19.5 5.812 32.125 7.437 47.875c1.625 15.75 18.313 21.813 31 23 0 0 21.313-5.708 17.75 11.375 0 0 7.438-13.312-7.125-16.562-4.094-1-3.036-3.547.188-2.938 0 0-8.685-5.889-4.561-12.632 0 0 17.894-26.451 18.561-27.993z" style="fill:#9e2f30" transform="translate(-10.18 -11.286) scale(1.54101)"/><path d="M63.25 22.125s.375-4.562-8.438-8.75C46 9.188 31.5 9 22.625 14.25 13.75 19.5 4.667 29.691 7.437 47.875c2.385 15.653 18.313 21.813 31 23 0 0-14.125-3.75-18.812-12.25-4.687-8.5-3.125-16.812.375-23.937 0 0-4 11.187 0 19.25C24 62 29.5 64.75 38.187 68c8.687 3.25 20.438-.687 18 14.25 0 0 7.438-13.312-7.125-16.562-14.562-3.25-19.562-12.186-17.5-22.625 0 0-2.813 16.812 17.687 19.687 0 0-8.685-5.889-4.561-12.632l14.686-28.584s-3.188-5.596-18.188-3.909c.001 0 15.126-4.25 22.064 4.5z" style="fill:#bf4851" transform="translate(-10.18 -11.286) scale(1.54101)"/><path d="M25.25 24.5s3.25-1.167 6.75-1.083c3.5.084 3.937.708 6.187.74 2.25.031 3.844.094 4.844 0 1-.094 4.25-.456 5.594-.744 1.344-.287 7.531-1.287 10.219-.694 2.688.594 5.25 1.438 7.313 3.094 2.063 1.656 4.406 4.094 5.844 5.25 1.438 1.156 6.438 4.156 11.219 3.781 0 0-.813 2.125-.625 3.25.188 1.125 2.906 6.844-5.969 14.719 0 0 2.625-5.313-.125-8.063-2.75-2.75-9.813-.562-11.625.063-1.812.625-7.938 4.5-2.563 8s13-.688 13-.688-2.063 6.625-6.75 10.313c-4.688 3.687-8.75 3.125-8.75 3.125s6.172-.4 6.063-5.938c-.109-5.538-9.625-4.5-9.625-4.5S42.625 54.813 37 43.75c-5.625-11.062 2.563-14.875 2.563-14.875s-3.938 1.25-7.438.75c-3.5-.5-6.313-3.312-6.875-5.125z" style="opacity:.2" transform="translate(-10.18 -11.286) scale(1.54101)"/><path d="M26.25 23.5s3.25-1.167 6.75-1.083c3.5.084 3.938.708 6.188.74 2.25.031 3.844.094 4.844 0 1-.094 4.25-.456 5.594-.744 1.344-.287 7.531-1.287 10.219-.694 2.688.594 5.25 1.438 7.313 3.094 2.063 1.656 4.406 4.094 5.844 5.25 1.396 1.123 6.154 3.986 10.808 3.805.195-.008.339.17.276.356-.222.663-.629 2.039-.491 2.87.188 1.125 2.906 6.844-5.969 14.719 0 0 2.625-5.313-.125-8.063-2.75-2.75-9.813-.562-11.625.063-1.812.625-7.938 4.5-2.563 8s13-.688 13-.688-2.063 6.625-6.75 10.313c-4.688 3.687-8.75 3.125-8.75 3.125s6.172-.4 6.063-5.938c-.109-5.538-9.625-4.5-9.625-4.5S43.625 53.813 38 42.75c-5.625-11.062 2.563-14.875 2.563-14.875s-3.938 1.25-7.438.75c-3.5-.5-6.313-3.312-6.875-5.125z" style="fill:#faec94" transform="translate(-10.18 -11.286) scale(1.54101)"/><path d="M69.375 31.313s-5.313-7.75-16.063-6.438l1.563.563s0 2 .938 3S61.625 32 67.75 30.75z" style="fill:#f5b400" transform="translate(-10.18 -11.286) scale(1.54101)"/><path d="M64.427 29.887c-4.267 0-7.27-1.77-7.739-2.27-.34-.363-.512-1.118-.579-1.688a16.07 16.07 0 0 1 10.159 3.846c-.612.074-1.228.112-1.841.112zm16.083 3.651c.459.078 2.397.356 3.298.33.17-.005.384.205.338.37-.222.795-.662 2.044-.512 3.04.058.387-5.008-1.089-3.28-3.667a.16.16 0 0 1 .156-.073z" style="fill:#4d4d4d" transform="translate(-10.18 -11.286) scale(1.54101)"/></svg>