<svg width="120" height="120" xml:space="preserve" xmlns="http://www.w3.org/2000/svg"><path d="M55 61.355s-1.688-3.855 0-4.418c1.687-.563 12.062-2.5 14.187 0s9.75 7.125 9.75 7.125S77 68.967 71.25 68.296C65.5 67.625 55.748 64.46 55 61.355Z" style="fill:#f5b400" transform="matrix(1.46377 0 0 1.46377 -6.953 -7.35)"/><path d="M53.396 51.688c.023.388-.337 2.618-.3 3.006a10.017 10.017 0 0 0 1.692 4.761c1.347 1.988 3.059 3.597 5.201 4.687 5.319 2.707 10.883 3.293 16.664 1.795a7.1 7.1 0 0 0 .625-.183c.162-.058.315-.144.723-.335-1.882.311-3.507.553-5.153.539-1.6-.014-3.208.059-4.89-.334.165-.235.258-.373.357-.505 1.047-1.397.973-3.027-.262-4.253a5.898 5.898 0 0 0-1.483-1.054 17.482 17.482 0 0 0-1.933-.811c-.277-.1-1.681-.605-2.12-.708 1.003-1.151 2.263-2.269 3.175-3.374.888-1.075 1.63-2.25 2.538-3.414.261.052 1.715.496 1.784.522 2.462.718 4.734 2.056 6.657 3.778 2.403 2.153 3.811 4.844 4.32 8.022.11.687-.011 1.245-.512 1.789-2.032 2.208-4.31 4.074-7.039 5.363a15.571 15.571 0 0 1-5.018 1.408c-1.717.185-3.408-.015-5.05-.515-2.717-.827-5.119-2.22-7.154-4.212-2.451-2.4-3.711-5.353-3.944-8.75-.129-1.832.407-5.485 1.122-7.222z" style="opacity:.2" transform="matrix(1.46377 0 0 1.46377 -6.953 -7.35)"/><path d="M17.458 64.292s-4.833-1.625-4.625-2.5c.208-.875 6.542-11.125 14.5-10.25s10.833 2.504 10.083 4.668c-.749 2.165-8.666 9.707-19.958 8.082zm20.327 8.138c2.236-2.938 3.766-6.696 4.721-10.209 1.115-4.102 1.646-8.297 1.883-12.536.198-3.537.141-7.073-.05-10.605-.169-3.139-.46-6.269-.918-9.381-.35-2.374-1.553-9.032-1.553-9.277.319 0 .678.128.944.245 2.75 1.521 5.333 1.68 8.396 1.146.417-.126 1.794-.45 2.211-.577.03-.009.071.02.146.043.009.107-2.227 6.57-2.871 8.744-.141.476-.846 3.248-.908 3.494a99.459 99.459 0 0 0-2.164 11.308c-.506 3.859-.785 7.735-.57 11.628.181 3.278.639 6.514 1.743 9.63.468 1.321 1.028 2.596 1.746 3.8.154.259.877 1.044 1.043 1.284-4.725 5.337-14.078 1.629-13.799 1.263z" style="fill:#f5b400" transform="matrix(1.46377 0 0 1.46377 -6.953 -7.35)"/><path d="M35.33 73.969c1.213-.721.799-.449 2.734-1.906 5.852-1.914 12.816-1.682 12.981-1.442 1.165.109 2.295.196 3.421.324 2.042.232 4.062.584 6.002 1.287.654.237 1.291.529 1.918.833.351.17.682.393.994.629 2.041 1.545 2.286 3.641.576 5.527-.608.671-1.352 1.237-2.095 1.764-1.324.937-2.796 1.618-4.3 2.211-4.366 1.722-8.861 2.961-13.554 3.328-3.937.308-7.854.118-11.702-.868a14.36 14.36 0 0 1-1.737-.575 7.995 7.995 0 0 1-1.284-.646c-1.696-1.056-2.128-2.288-1.385-4.116a9.266 9.266 0 0 1 1.085-1.932c1.362-1.866 3.915-3.631 6.346-4.418z" style="fill:#9e2f30" transform="matrix(1.46377 0 0 1.46377 -6.953 -7.35)"/><path d="M53.396 50.688c.023.388-.337 2.618-.3 3.006a10.017 10.017 0 0 0 1.692 4.761c1.347 1.988 3.059 3.597 5.201 4.687 5.319 2.707 10.883 3.293 16.664 1.795a7.1 7.1 0 0 0 .625-.183c.162-.058.315-.144.723-.335-1.882.311-3.507.553-5.153.539-1.6-.014-3.208.059-4.89-.334.165-.235.258-.373.357-.505 1.047-1.397.973-3.027-.262-4.253a5.898 5.898 0 0 0-1.483-1.054 17.482 17.482 0 0 0-1.933-.811c-.277-.1-1.681-.605-2.12-.708 1.003-1.151 2.263-2.269 3.175-3.374.888-1.075 1.63-2.25 2.538-3.414.261.052 1.715.496 1.784.522 2.462.718 4.734 2.056 6.657 3.778 2.403 2.153 3.811 4.844 4.32 8.022.11.687-.011 1.245-.512 1.789-2.032 2.208-4.31 4.074-7.039 5.363a15.571 15.571 0 0 1-5.018 1.408c-1.717.185-3.408-.015-5.05-.515-2.717-.827-5.119-2.22-7.154-4.212-2.451-2.4-3.711-5.353-3.944-8.75-.129-1.832.407-5.485 1.122-7.222z" style="fill:#ffdf74" transform="matrix(1.46377 0 0 1.46377 -6.953 -7.35)"/><path d="M15.438 62.324c-.011.243.07.389.333.467 1.347.399 2.729.611 4.12.718 4.226.324 8.256-.432 12.075-2.287 2.125-1.032 3.875-2.515 5.282-4.399 1.315-1.76 2.063-3.732 2.078-5.953.001-.131.012-.262.024-.392.004-.041.03-.081.091-.238.106.232.205.381.245.545.602 2.502.66 5.012.047 7.52-.584 2.391-1.75 4.467-3.525 6.171-2.618 2.513-5.683 4.158-9.313 4.691-1.897.278-3.755.088-5.568-.45-3.889-1.156-6.977-3.519-9.623-6.525-.359-.408-.371-.852-.302-1.345.475-3.386 1.998-6.202 4.595-8.425 2.063-1.766 4.474-2.839 7.113-3.549.706.689 1.179 1.53 1.787 2.258.616.737 1.209 1.494 1.835 2.221.624.724 1.277 1.422 1.934 2.15-.259.345-.618.352-.933.433-.98.252-1.91.616-2.739 1.206-.653.465-1.173 1.04-1.44 1.816-.349 1.018-.276 1.975.394 2.848.151.197.314.386.533.655-.495.093-.875.2-1.26.23-2.532.194-5.059.202-7.572-.234-.08-.014-.152-.08-.234-.116-.188.018-.369.029-.549.04l.03.132c.182-.061.362-.124.542-.188z" style="opacity:.2" transform="matrix(1.46377 0 0 1.46377 -6.953 -7.35)"/><path d="M77.073 22.624c-.72-.167-1.289-.244-1.817-.433-1.217-.436-2.055-1.756-1.947-2.969.139-1.566 1.727-2.732 3.292-2.419 2.099.42 3.332 2.766 2.667 4.501-.32.834-.759 1.571-1.37 2.206-1.311 1.362-2.914 2.208-4.758 2.586-3.04.623-5.993.276-8.866-.854-1.796-.707-3.467-1.645-5.048-2.75-.5-.35-1.006-.698-1.538-.995-1.116-.623-2.301-.795-3.54-.413-.541.167-1.078.349-1.615.532-1.624.553-3.281.899-5.008.839-1.695-.059-3.294-.462-4.684-1.456-1.645-1.177-3.45-1.419-5.362-1-.889.195-1.769.484-2.609.836-4.057 1.701-8.267 2.465-12.661 2.156a15.406 15.406 0 0 1-4.704-1.072c-.857-.345-1.657-.799-2.28-1.498-.985-1.105-1.302-2.36-.706-3.756.488-1.142 1.585-1.752 2.859-1.657 1.335.099 2.423.905 2.77 2.052.331 1.091-.176 2.271-1.271 2.877-.376.208-.793.342-1.3.555.245.127.404.242.583.297 5.389 1.663 10.436 1.13 15.002-2.377.934-.717 1.818-1.501 2.726-2.252.673-.556 1.336-1.125 2.027-1.659 1.594-1.232 3.403-1.51 5.333-1.102.723.153 1.427.4 2.139.609.628.185 1.253.379 1.881.564 1.63.481 3.264.546 4.904.049.208-.063.423-.107.636-.157 1.535-.361 2.941-.076 4.226.837 1.012.719 1.836 1.629 2.5 2.659 2.452 3.805 6.086 5.773 10.373 6.71 1.462.32 2.95.317 4.408-.114.938-.277 1.769-.742 2.455-1.446.109-.111.171-.272.303-.486z" style="fill:#9e2f30" transform="matrix(1.46377 0 0 1.46377 -6.953 -7.35)"/><path d="M54.023 10.226c-.045.389-.049.789-.141 1.167-.49 2.015-1.584 3.512-3.714 3.958-2.201.46-4.074-.223-5.497-1.947-.922-1.118-1.128-2.431-.632-3.825.869-2.445 3.869-4.221 6.233-3.828 2.138.356 3.53 1.787 3.707 3.949.014.173.002.349.002.524a.59.59 0 0 1 .042.002z" style="fill:#bf4851" transform="matrix(1.46377 0 0 1.46377 -6.953 -7.35)"/><path d="M38.167 47.625c.792 2.794-.388 6.708-2.217 8.585-.746-.165-1.783-.877-2.527-1.412-.245-.063-1.166-.762-1.378-.909-2.165-1.495-4.3-3.246-5.989-5.277-.306-.368-.588-.59-.857-.987-.066-.098-.538-.577-.568-.697 2.942-.953 10.962-.662 13.536.697z" style="fill:#f5b400" transform="matrix(1.46377 0 0 1.46377 -6.953 -7.35)"/><path d="M72.271 26.231c.246.062.887 4.003.897 4.245.057 1.436.207 2.876.156 4.308-.229 6.476-2.448 12.252-6.292 17.432-2.277 3.068-4.979 5.715-7.992 8.051-.169.131-1.484.944-1.701 1.087-.764-.405-1.473-1.463-1.967-2.093.681-.3 1.794-.858 2.071-1.027 3.535-2.153 6.621-4.769 9.207-8.004 3.081-3.855 5.101-8.195 5.924-13.074.386-2.29.439-4.596.314-6.91-.005-.083-.667-3.914-.695-3.996zm-53.11-3.851c-.017 1.393-.73 7.475-.638 8.861.432 6.505 2.94 12.149 7.225 17.025a34.605 34.605 0 0 0 8.092 6.788c.294.178 1.826.971 2.11 1.155-.453.903-1.106 1.459-2.219 2.253-.118-.053-1.027-1.093-1.154-1.191-4.766-3.667-8.739-8.012-11.42-13.448-2.493-5.054-3.456-10.396-2.973-16.005.026-.299.597-5.313.993-5.418Zm53.422 3.851c.458-.502 3.433 7.537 3.492 7.647.203.383.366.79.517 1.197 1.824 4.916 3.24 9.944 4.119 15.117.49 2.886.733 5.796.788 8.722.22.992-.37 4.427-.533 4.832.022-.919-.283-2.432-.367-2.68-.07-.206-.195-.668-.279-.869-.1-.241-.115-.362-.23-.597s-.116-.337-.248-.563c-.132-.226-.278-.608-.424-.825-.121-.181-.268-.496-.401-.668-.16-.207-.254-.416-.422-.616-.168-.2-.189-.278-.405-.527.045-.268.294-2.089.351-2.381.243-2.833.075-5.986-.197-8.681-.37-3.655-1.221-7.216-2.28-10.728-.098-.325-3.481-8.38-3.481-8.38zm-53.842-3.918c-.086.467-3.348 8.958-3.482 9.411-.818 2.766-1.487 5.564-1.936 8.415-.43 2.73-.578 5.472-.367 8.226.07.907.076 4.047.213 4.938-2.541 3.204-1.848 4.502-2.8 7.177-.215-.589-.44-4.503-.437-5.017.021-4.08.588-8.097 1.469-12.069a81.21 81.21 0 0 1 3.589-11.896c.153-.394 3.417-8.806 3.608-9.185z" style="fill:#58595b" transform="matrix(1.46377 0 0 1.46377 -6.953 -7.35)"/><path d="M71.833 26.146c.215 1.867-.312 6.939-.845 8.696-1.05 3.463-2.967 6.38-5.626 8.815-2.638 2.416-7.474 5.213-10.797 6.49-.107.041-.867.522-1.169.54.679-.393 3.605-2.277 4.127-2.583 3.029-1.775 5.769-3.909 8.098-6.548 3.006-3.406 5.036-7.294 5.803-11.803.019-.115.359-3.497.409-3.607zM38.167 47.625c-2.544-.954-7.544-3.641-9.765-5.218-3.162-2.245-5.662-5.049-7.22-8.631-.914-2.101-1.46-4.294-1.518-6.595-.006-.217-.157-4.391-.134-4.607.007-.062.058.014.132.032.071.353.347 4.311.406 4.597.838 4.017 2.627 7.566 5.27 10.694 2.539 3.005 5.596 5.372 8.991 7.329.436.25 3.592 1.871 3.838 2.399z" style="fill:#58595b" transform="matrix(1.46377 0 0 1.46377 -6.953 -7.35)"/><path d="m45.114 60.14.263-.008c-.035-.015-.074-.045-.105-.038-.044.01-.084.047-.127.075-.005.001-.031-.03-.031-.03z"/><path d="m14.438 61.324-.54.191-.03-.132c.181-.011.362-.023.549-.04z" style="fill:#fff" transform="matrix(1.46377 0 0 1.46377 -6.953 -7.35)"/><path d="M35.33 73.969c1.323 2.042 3.343 2.801 5.542 3.197 2.302.415 4.613.262 6.915-.04.279-.037.614-.024.781-.271-1.665-.223-3.355-.41-5.031-.686-1.338-.22-2.635-.617-3.827-1.292-.735-.415-1.363-.939-1.737-1.724-.185-.389-.187-.724.092-1.091 5.852-1.914 12.816-1.682 12.981-1.442 1.165.109 2.295.196 3.421.324 2.042.232 4.062.584 6.002 1.287.654.237 1.291.529 1.918.833.351.17.682.393.994.629 2.041 1.545 2.286 3.641.576 5.527-.608.671-1.352 1.237-2.095 1.764-1.324.937-2.796 1.618-4.3 2.211-4.366 1.722-8.861 2.961-13.554 3.328-3.937.308-7.854.118-11.702-.868a14.36 14.36 0 0 1-1.737-.575 7.995 7.995 0 0 1-1.284-.646c-1.696-1.056-2.128-2.288-1.385-4.116a9.266 9.266 0 0 1 1.085-1.932c1.361-1.865 3.914-3.63 6.345-4.417z" style="fill:#bf4851" transform="matrix(1.46377 0 0 1.46377 -6.953 -7.35)"/><path d="M38.785 73.43c2.236-2.938 3.766-6.696 4.721-10.209 1.115-4.102 1.646-8.297 1.883-12.536.198-3.537.141-7.073-.05-10.605-.169-3.139-.46-6.269-.918-9.381-.35-2.374-1.553-9.032-1.553-9.277.319 0 .678.128.944.245 2.75 1.521 5.333 1.68 8.396 1.146.417-.126 1.794-.45 2.211-.577.03-.009.071.02.146.043.009.107-2.227 6.57-2.871 8.744-.141.476-.376.73-.851.867-.961.276-1.991.402-3.472.318.959 1.03 2.2 1.224 3.335 1.536.246.268.142.527.08.773a99.459 99.459 0 0 0-2.164 11.308c-.506 3.859-.785 7.735-.57 11.628.181 3.278.639 6.514 1.743 9.63.468 1.321 1.028 2.596 1.746 3.8.154.259.877 1.044 1.043 1.284-4.725 5.337-14.078 1.629-13.799 1.263z" style="opacity:.2" transform="matrix(1.46377 0 0 1.46377 -6.953 -7.35)"/><path d="M37.785 72.43c2.236-2.938 3.766-6.696 4.721-10.209 1.115-4.102 1.646-8.297 1.883-12.536.198-3.537.141-7.073-.05-10.605-.169-3.139-.46-6.269-.918-9.381-.35-2.374-1.553-9.032-1.553-9.277.319 0 .678.128.944.245 2.75 1.521 5.333 1.68 8.396 1.146.417-.126 1.794-.45 2.211-.577.03-.009.071.02.146.043.009.107-2.227 6.57-2.871 8.744-.141.476-.376.73-.851.867-.961.276-1.991.402-3.472.318.959 1.03 2.2 1.224 3.335 1.536.246.268.142.527.08.773a99.459 99.459 0 0 0-2.164 11.308c-.506 3.859-.785 7.735-.57 11.628.181 3.278.639 6.514 1.743 9.63.468 1.321 1.028 2.596 1.746 3.8.154.259.877 1.044 1.043 1.284-4.725 5.337-14.078 1.629-13.799 1.263z" style="fill:#ffdf74" transform="matrix(1.46377 0 0 1.46377 -6.953 -7.35)"/><path d="M14.771 61.791c1.347.399 2.729.611 4.12.718 4.226.324 8.256-.432 12.075-2.287 2.125-1.032 3.875-2.515 5.282-4.399 1.315-1.76 2.063-3.732 2.078-5.953.001-.131.012-.262.024-.392.004-.041-.246-1.697-.184-1.854.106.232.481 1.998.52 2.162.602 2.502.66 5.012.047 7.52-.584 2.391-1.75 4.467-3.525 6.171-2.618 2.513-5.683 4.158-9.313 4.691-1.897.278-3.755.088-5.568-.45-3.889-1.156-6.977-3.519-9.623-6.525-.359-.408-.371-.852-.302-1.345.475-3.386 1.998-6.202 4.595-8.425 2.063-1.766 5.537-3.356 8.176-4.066.526.79 1.218 1.805 1.827 2.541a171.74 171.74 0 0 0 1.792 2.108c.624.724 1.571 1.494 2.228 2.222-.604.245-1.97.627-2.286.708-.98.252-1.91.616-2.739 1.206-.653.465-1.173 1.04-1.44 1.816-.349 1.018-.276 1.975.394 2.848.151.197.314.386.533.655-.495.093-.875.2-1.26.23-2.532.194-8.175-.32-8.355-.309.011.045.641.331.904.409z" style="fill:#ffdf74" transform="matrix(1.46377 0 0 1.46377 -6.953 -7.35)"/><path d="M66.715 50.15c-.151.286-.754.907-.908 1.095-.632.774-1.692 1.872-2.383 2.59-1.331 1.383-3.136 2.535-4.703 3.641-.395.279-2.774 1.635-3.349 1.785-2.642-3.408-2.451-5.761-1.976-8.575.289-.339 1.449-.607 1.854-.75 1.198-.423 2.474-.388 3.735-.459 1.826-.103 3.654-.096 5.465.224.161.03 2.004.379 2.265.449z" style="fill:#f5b400" transform="matrix(1.46377 0 0 1.46377 -6.953 -7.35)"/><path d="M54.023 9.892c-.045.389-.049.789-.141 1.167-.49 2.015-1.584 3.512-3.714 3.958-2.201.46-4.074-.223-5.497-1.947-.922-1.118-1.128-2.431-.632-3.825.869-2.445 3.869-4.221 6.233-3.828 2.138.356 3.53 1.787 3.707 3.949.014.173.002.349.002.524z" style="fill:#9e2f30" transform="matrix(1.46377 0 0 1.46377 -6.953 -7.35)"/></svg>