<svg width="120" height="120" xml:space="preserve" xmlns="http://www.w3.org/2000/svg"><path d="M51.369 20.771s-13.796-.078-21.136 10.665c-7.34 10.743-6.524 23.655 2.039 32.219s26.233 10.874 36.835 1.631c0 0 2.583-5.029-2.039-2.718 0 0-5.029 6.388-13.592 4.078-8.563-2.31-14.272-17.113 1.359-21.197 0-.001 11.282-24.338-3.466-24.678z" style="fill:#ffdf74" transform="matrix(1.33055 0 0 1.33055 -1.204 -1.205)"/><path d="M50.553 21.587s-4.638 8.461-4.485 12.947c.153 4.485 1.529 8.563 5.607 10.653s8.614.663 9.583-.306c.968-.968 4.434-3.262 7.697-4.18 0 0-1.325-1.121-8.308 1.529 0 0 4.078-4.231 10.704-4.078-.001.001.355-16.616-20.798-16.565z" style="opacity:.2" transform="matrix(1.33055 0 0 1.33055 -1.204 -1.205)"/><path d="M51.369 20.771s-4.638 8.461-4.485 12.947c.153 4.485 1.529 8.563 5.607 10.653s8.614.663 9.583-.306c.968-.968 4.434-3.262 7.697-4.18 0 0-1.325-1.121-8.308 1.529 0 0 4.078-4.231 10.704-4.078-.002.001.355-16.616-20.798-16.565z" style="fill:#faec94" transform="matrix(1.33055 0 0 1.33055 -1.204 -1.205)"/><path d="M35.465 26.048s-2.65-3.034-11.349-.587-11.214 11.722-12.302 15.047c-1.087 3.324-3.465 11.725-10.533 8.533 0 0 6.252 3.928 9.379 0 3.113-3.911 6.421-13.818 14.968-6.534 0 0 9.361-13.698 9.837-16.459zm9.448 15.656s.34 3.942 3.602 5.301 8.427 4.078 7.204 11.146c0 0-2.65-3.806-8.839-3.999-6.327-.199-5.841-10.41-1.967-12.448zm22.155 20.864s-2.583-14.951 12.505-24.262c0 0-5.369 3.874-3.806 10.806 1.563 6.932-2.531 9.039-2.531 9.039l5.589-2.786s6.32 7.544 11.893-2.107c0 0-4.078 12.981-21.612 12.029.001-.001 2.447-5.166-2.038-2.719z" style="fill:#bf4851" transform="matrix(1.33055 0 0 1.33055 -1.204 -1.205)"/><path d="M58.369 32.325s5.029-1.291 7.884-.34c0 0-2.101-4.581-4.757-4.553-2.658.028-3.215 2.986-3.127 4.893z" style="fill:#f5b400" transform="matrix(1.33055 0 0 1.33055 -1.204 -1.205)"/><path d="M59.388 31.102c.097-.826.348-1.654.832-2.167.329-.348.749-.519 1.285-.525 1.033 0 2.094 1.151 2.862 2.267-.243-.014-.494-.02-.753-.02-1.569 0-3.163.241-4.226.445z" style="fill:#4d4d4d" transform="matrix(1.33055 0 0 1.33055 -1.204 -1.205)"/><path d="M68.011 62.125s.076-12.083 5.683-16.677c0 0-4.87 7.161-4.168 16.677zm1.504 2.176s6.728.755 14.17-3.395c0 0-8.971 3.089-13.864 2.171zM44.913 41.704s-1.91 6.35 1.152 7.338c3.062.988 5.644 1.565 6.732 3.332-2.627-1.959-4.519-1.597-7.884-2.447-3.169-.8 0-8.223 0-8.223zM34.072 29.165s-5.47-1.842-11.315 1.101c0 0 9.405-.862 10.207.836zm-3.254 5.437s-4.799-3.765-11.731-1.492c0 0 7.112-.459 10.67 3.157zm-2.882 4.459s-4.398-3.882-9.562-2.421c0 0 4.379-.366 8.901 3.419z" style="fill:#9e2f30" transform="matrix(1.33055 0 0 1.33055 -1.204 -1.205)"/></svg>