<svg width="120" height="120" xml:space="preserve" xmlns="http://www.w3.org/2000/svg"><path d="M34.863 71.368 12.47 58.93a1.577 1.577 0 0 1-.654-2.037l11.021-23.504 1.836-.573-11.564 24.683a.144.144 0 0 0 .06.186l22.077 12.269z" style="fill:#4d4d4d" transform="matrix(1.33217 0 0 1.33217 -1.278 -1.28)"/><path d="M73.084 35.449s-3.272-1.13-3.688-5.711c0 0-2.975-3.986-1.19-6.663 0 0-1.963.952-5.235-4.224-3.272-5.176-12.85-8.745-19.275-5.949-6.425 2.796-11.699 9.516-13.579 13.171-2.008 3.903-7.065 7.175-9.92 6.164 0 0 3.094-.535 1.963-3.451-1.13-2.915-3.688-2.32-4.402-1.368-.714.952-.763 4.759 2.325 5.83 3.088 1.071 6.896-1.435 8.919-3.306 2.023-1.87 7.734-11.389 13.505-12.4 5.771-1.011 15.825-2.142 22.131 13.862 0 0 1.666 3.272 1.547 8.745-.119 5.473-3.272 18.442-11.541 21.12-8.269 2.677-17.193 2.142-19.394 8.686-2.201 6.544 2.38 9.995 3.748 10.114 1.368.119 4.819-.952 2.856-4.462s-4.938.119-4.819 1.309c0 0-2.023-4.581.357-7.08 2.38-2.499 8.269-3.391 12.672-3.629 4.402-.238 11.66-1.963 17.372-8.329 5.712-6.366 4.759-14.338 4.64-15.587-.123-1.249-1.432-5.89 1.008-6.842z" style="fill:#bf4851" transform="matrix(1.33217 0 0 1.33217 -1.278 -1.28)"/><path d="M39.118 78.646c-.227-.05-1.089-.531-1.844-1.563l1.178-.31c.008.086-.001.137-.001.138.079-.397.874-1.368 1.4-1.368.202 0 .49.292.752.761.229.408.574 1.16.315 1.6-.258.44-1.108.746-1.71.746zm1.822-12.391c1.922-.797 4.318-1.298 6.982-1.854 2.333-.488 4.745-.992 7.159-1.774C64.154 59.69 67.484 45.982 67.61 40.18c.117-5.389-1.406-8.808-1.667-9.352-3.995-10.103-10.203-15.225-18.452-15.225-1.933 0-3.729.27-5.232.533-.912.16-1.809.491-2.684.947 1.458-1.149 3.037-2.153 4.69-2.872 1.312-.571 2.826-.86 4.502-.86 5.067 0 10.776 2.751 12.997 6.263 1.538 2.433 3.048 3.979 4.508 4.619-.375 2.515 1.138 5.103 1.744 6.019.351 2.799 1.644 4.478 2.772 5.433-.977 1.818-.512 4.503-.252 6.004.053.306.099.561.116.737l.011.112c.55 5.577-.974 10.686-4.293 14.385-5.932 6.613-13.435 7.698-16.386 7.857-2.834.154-6.207.547-9.044 1.475zM19.305 30.956a2.766 2.766 0 0 1-.288-.558c-.371-.962-.22-1.931-.098-2.155.025-.02.27-.178.611-.178.675 0 1.078.673 1.297 1.237.116.3.225.71.087.962-.174.316-.744.522-.977.568z" style="fill:#9e2f30" transform="matrix(1.33217 0 0 1.33217 -1.278 -1.28)"/><path d="m15.615 55.141-2.538-.476-2.359 1.108.817.642-1.397-.37-1.453.682.981.734-1.551-.466-1.559.732 1.167.706-1.898-.363-1.693.795 1.725.599-2.233-.361-2.289 1.075s2.023 1.309 5.87.873c0 0-1.666 2.776-1.467 5.434l1.821-1.367L8 62.994l.096 1.72 1.292-.987.178-1.844.33 1.478.971-.729.008-1.364.427 1.038.993-.746-.071-1.482.527 1.139 2.864-2.151.789-2.816z" style="opacity:.2" transform="matrix(1.33217 0 0 1.33217 -1.278 -1.28)"/><path d="M16.566 54.189S45.36 36.46 78.318 27.061v.714S42.734 39.515 17.355 55.3c.001 0-2.296.793-.789-1.111z" style="fill:#ffdf74" transform="matrix(1.33217 0 0 1.33217 -1.278 -1.28)"/><path d="m77.367 28.429-4.343-2.588s12.969-1.041 16.687-.684c0 0-11.988 5.8-14.903 8.864z" style="opacity:.2" transform="matrix(1.33217 0 0 1.33217 -1.278 -1.28)"/><path d="m78.319 27.478-4.343-2.588s12.969-1.041 16.687-.684c0 0-11.988 5.8-14.903 8.864zM16.566 54.189l-2.538-.476-2.359 1.108.817.642-1.397-.37-1.453.682.981.734-1.551-.466-1.559.732 1.167.706-1.897-.363-1.693.795 1.725.599-2.233-.361-2.289 1.075s2.023 1.309 5.87.873c0 0-1.666 2.776-1.467 5.434l1.821-1.367.44-2.123.096 1.72 1.292-.987.178-1.844.33 1.478.971-.729.008-1.364.427 1.038.993-.746-.071-1.482.527 1.139 2.864-2.151.789-2.816z" style="fill:#faec94" transform="matrix(1.33217 0 0 1.33217 -1.278 -1.28)"/></svg>