<svg width="120" height="120" xml:space="preserve" xmlns="http://www.w3.org/2000/svg"><path d="M46.126 47.08s-3.74 1.389-5.954 1.18c-2.214-.209-3.366-.508-3.702-1.02-.335-.513-2.647-1.26-2.642-2.749 0 0-3.338-.887-3.042-1.712 0 0-2.017.02-1.988-.415 0 0-3.148.073-3.765-.645 0 0-1.357.013-1.779-.436 0 0-3.386-.434-3.146-1.028 0 0-.659-.307-1.332-1.364l-2.513-.616s-1.42.843-2.007.653l-2.799-.906s-1.187-.46-1.49-1.06c-.303-.6-1.234-2.495-1.234-2.495s-1.214-1.74-1.402-2.34c-.188-.601-.581-3.356-.581-3.356s.021-2.895-.006-4.177c-.027-1.282.499-4.239.499-4.239s.5-2.452 1.333-3.494c.833-1.042 4.393-4.819 4.393-4.819s.615-1.265 1.492-1.666l5.506-2.516s1.274-1.266 2.684-1.501c1.41-.235 7.054-.34 7.054-.34s1.091-.31 2.161-.186-.318 1.919-.318 1.919-.97.101-1.843.112c-.873.011-6.671.835-6.671.835s-1.586.355-2.322.422c-.735.066-4.027 3.352-4.027 3.352s-1.762 1.129-2.36 1.349c-.598.22-1.372 4.65-1.372 4.65s-.884 2.237-1.284 2.966c-.4.729-.262 2.639-.262 2.639s-.023 1.283-.393 2.478c-.37 1.195 1.384 2.521 1.384 2.521s.927 1.183 1.18 1.825c.253.642 1.813.765 1.813.765s1.192.204 1.524.561c.333.357 2.449 1.056 2.449 1.056s1.559-.01 2.112.155a28.06 28.06 0 0 0 1.152.312s3.045-.282 5.113.088c2.068.37 8.128-.96 9.984-.461 1.856.499 5.846.289 7.788 1.102 1.942.813 3.308 1.766 4.083 2.383.775.617.741-.015 3.238 2.676.003 0-1.791 5.642-6.708 7.542z" style="fill:#f5b400" transform="matrix(1.34676 0 0 1.34676 -1.587 -.246)"/><path d="M56.957 78.657c-1.17-.406-2.336-.828-3.513-1.215-2.35-.773-4.722-1.467-7.177-1.825-1.258-.184-2.473-.139-3.722.261-2.527.81-5.105.849-7.663.059-.704-.217-1.334-.572-1.838-1.132-.242-.269-.255-.493-.042-.798 2.026-2.904 4.77-4.569 8.34-4.453 4.585.149 8.596 1.885 11.955 5.002 1.337 1.241 2.506 2.663 3.752 4.003a4.261 4.261 0 0 0-.092.098z" style="fill:#bf4851" transform="matrix(1.34676 0 0 1.34676 -1.587 -.246)"/><path d="M45.516 34.479c-5.582.561-9.695 3.946-11.379 9.413-.146.475-.37.765-.822.975-1.225.568-2.405 1.235-3.644 1.768-.73.314-1.538.445-2.31.663-2.416.685-4.786 1.498-6.9 2.889-.83.546-1.57 1.229-2.422 1.906l-2.608-2.145c1.016-.653 1.958-1.315 2.952-1.885 2.323-1.331 4.786-2.294 7.463-2.634.422-.054.849-.124 1.27-.103.539.027.951-.161 1.354-.498.64-.537 1.322-1.023 1.969-1.55.152-.124.286-.313.347-.499 1.595-4.854 4.942-7.612 9.977-8.347 1.588-.233 3.177-.19 4.753.047z" style="fill:#9e2f30" transform="matrix(1.34676 0 0 1.34676 -1.587 -.246)"/><path d="M89.91 40.151c-1.012-.643-1.992-1.295-3-1.901-2.06-1.238-4.18-2.353-6.531-2.947-.949-.24-1.92-.388-2.882-.135-.455.12-.865.41-1.301.61-.137.063-.322.161-.435.117-.969-.381-1.98-.698-2.875-1.215-1.217-.703-1.285-1.753-.289-2.742 1.093-1.085 2.479-1.504 3.966-1.597 3.182-.2 5.879 1.002 8.265 2.997 2.192 1.833 3.779 4.137 5.051 6.673.019.035.019.08.031.14z" style="fill:#bf4851" transform="matrix(1.34676 0 0 1.34676 -1.587 -.246)"/><path d="m51.932 36.965-2.055-2.497c6.303-3.748 12.997-4.386 20.072-2.991l-.525 1.734-.489 1.611c-1.723-.116-3.4-.267-5.081-.334-2.923-.115-5.835-.029-8.679.766-1.181.329-2.286.816-3.243 1.711zM14.596 47.623l-3.218-2.459c.662-.318 1.22-.656 1.824-.864 2.074-.717 4.241-.9 6.413-1.007 1.244-.061 2.491-.044 3.737-.071.128-.003.301-.017.375-.097.572-.619 1.242-1.137 1.627-1.938 1.368-2.848 3.299-5.196 6.165-6.669 1.901-.977 4.303-1.429 6.209-1.142-.676.222-1.293.401-1.892.626-2.187.824-4.119 2.013-5.501 3.955-.937 1.317-1.49 2.779-1.537 4.406-.008.284-.113.389-.363.472-1.613.532-3.208 1.127-4.838 1.601-.911.265-1.882.313-2.819.499-1.737.345-3.405.894-4.928 1.82-.425.259-.82.566-1.254.868zm16.028 23.88c-1.222 1.489-1.463 1.927-1.561 2.902-.866-.406-1.72-.781-2.55-1.202-1.981-1.004-3.898-2.11-5.51-3.67-.637-.617-1.18-1.302-1.501-2.146-.107-.282-.085-.461.188-.644 1.187-.799 2.442-1.401 3.896-1.519.384-.031.635.08.906.36a372.628 372.628 0 0 0 4.961 5.019c.34.336.762.589 1.171.9zm21.049 12.251c-3.742.624-7.474.769-11.167-.24-2.647-.724-4.92-2.016-6.361-4.454-.396-.671-.668-1.415-.943-2.164a6.704 6.704 0 0 0 2.712 1.239c1.389.292 2.777.234 4.17.039.17-.024.444.04.528.161 1.668 2.426 3.98 3.945 6.774 4.715 1.206.332 2.472.445 3.712.653.189.03.383.034.575.051zM6.94 64.552c.121-1.249.223-2.5.367-3.746.358-3.106.806-6.198 1.633-9.221.425-1.553.903-3.093 1.834-4.433.295-.425.692-.779 1.051-1.176l2.524 2.218C11.281 53.39 8.354 58.625 6.94 64.552ZM25.465 54.32c-.865 2.725-1.285 5.516-1.753 8.297-.049.289-.154.442-.459.512-1.293.294-2.58.343-3.882.045-.407-.093-.548-.303-.444-.673.255-.903.444-1.837.818-2.69.558-1.275 1.253-2.491 1.888-3.733.622-1.218 1.684-1.687 2.98-1.755.281-.015.565-.003.852-.003zm-7.182-1.576c-3.848 4.324-6.687 9.112-7.563 14.896.165-4.094.496-8.16 1.783-12.083.428-1.304.986-2.549 1.852-3.632.321-.402.666-.785.999-1.176z" style="fill:#9e2f30" transform="matrix(1.34676 0 0 1.34676 -1.587 -.246)"/><path d="M20.109 40.255c1.327-3.614 4.198-5.353 7.636-6.417-1.283.845-2.481 1.785-3.355 3.074-.88 1.299-1.32 2.72-1.135 4.371-.856.089-1.709.258-2.562.253-3.038-.017-5.958.641-8.858 1.44-.283.078-.454.028-.594-.23-.129-.238-.293-.458-.478-.743 2.905-1.753 6.11-1.752 9.346-1.748zm51.414-4.209c1.071.466 2.088.94 3.131 1.348.488.191 1.12.128 1.514.416.392.287.529.898.842 1.318 1.301 1.746 3.137 2.601 5.217 2.95 1.132.19 2.291.216 3.492.321-.583.13-1.14.274-1.705.376-2.238.403-4.472.468-6.671-.22-3.224-1.008-4.987-3.329-5.82-6.509zM23.956 52.172c.559-.565 1.005-1.075 1.511-1.518 1.856-1.629 4.011-2.708 6.377-3.381.131-.037.325-.056.421.013.799.571 1.581 1.164 2.447 1.809-.242.132-.383.205-.521.284-1.891 1.088-3.781 2.179-5.676 3.26a.792.792 0 0 1-.462.1c-1.309-.171-2.615-.359-4.097-.567Zm16.216-41.406c-.331-.219-.572-.395-.828-.545-1.254-.74-2.508-1.482-3.774-2.203a3.686 3.686 0 0 0-.933-.356c-.53-.129-.86-.118-.805.609.024.32-.045.679-.176.973-.32.717-.121 1.262.442 1.734.124.104.237.219.39.361-1.773-.545-3.235-2.198-2.892-4.359.043-.269.128-.532.172-.801.097-.588.412-.857 1.028-.912 2.165-.193 4.123.192 5.648 1.882.907 1.005 1.406 2.211 1.728 3.617zm.516 21.407c.182-.2.328-.37.483-.53 1.721-1.768 3.641-3.246 5.948-4.19.85-.348 1.66-.499 2.526-.063.375.189.801.276 1.307.443-.21.125-.351.215-.497.296-2.245 1.245-4.447 2.557-6.413 4.225-.335.284-.631.614-.961.904-.093.081-.288.171-.364.128-.67-.376-1.323-.784-2.029-1.213zM1.55 50.532c.031-.171.031-.229.052-.28 1.414-3.571 2.823-7.147 4.827-10.441.468-.769 1.11-1.433 1.68-2.138.072-.089.196-.137.339-.233.389.86.779 1.691 1.132 2.539.051.123-.031.359-.13.478a89.568 89.568 0 0 1-2.106 2.455c-1.836 2.05-3.657 4.11-5.107 6.465-.215.347-.418.701-.687 1.155zm1.987 7.154c.405-1.33.79-2.667 1.218-3.989.987-3.047 2.024-6.077 3.578-8.894.429-.777.971-1.492 1.51-2.309l1.293 1.62c-2.835 4.367-5.397 8.863-7.599 13.572Zm53.134-27.728c-.938.293-1.824.51-2.663.846a67.803 67.803 0 0 0-4.116 1.809c-.421.202-.735.62-1.114.919-.109.086-.288.162-.413.137-.772-.16-1.537-.351-2.338-.539.042-.074.064-.145.111-.189 2.323-2.147 4.951-3.699 8.127-4.205.546-.087.999-.043 1.402.381.279.293.623.526 1.004.841zm-12.372-2.939c-.911.618-1.751 1.163-2.563 1.745-1.113.797-2.188 1.641-3.015 2.756a.487.487 0 0 1-.339.162c-.865.013-1.731.007-2.646.007.055-.107.08-.19.131-.25 1.678-1.979 3.619-3.635 5.956-4.791.206-.102.495-.114.726-.069.562.108 1.111.275 1.75.44zm-7.137 1.034c-.671.565-1.265 1.03-1.819 1.54-1.34 1.235-2.659 2.492-3.993 3.734-.1.093-.252.178-.383.183-.574.02-1.15.009-1.763.009.029-.087.034-.147.064-.19 1.415-1.989 3.092-3.711 5.191-4.983.291-.176.67-.25 1.016-.28.52-.047 1.047-.013 1.687-.013z" style="fill:#9e2f30" transform="matrix(1.34676 0 0 1.34676 -1.587 -.246)"/><path d="M63.832 45.251c-1.348-.636-2.693-1.341-4.095-1.905-.833-.335-1.746-.52-2.641-.647-2.191-.309-3.854.887-4.364 3.07-.361 1.546.145 2.82 1.303 3.843 1.244 1.099 2.722 1.616 4.381 1.628l.039.135c-.755.222-1.497.513-2.267.654-3.393.624-6.1-.616-8.284-3.168-.413-.483-1.058-1.274-1.407-1.806-.193-5.275 6.341-7.241 6.94-7.21 2.458-.269 4.859-.158 7.092 1.05 1.711.926 2.748 2.391 3.293 4.231.019.066.011.142.01.125z" style="fill:#f5b400" transform="matrix(1.34676 0 0 1.34676 -1.587 -.246)"/><g style="opacity:.2"><path d="M13.185 49.533c-.408-.808-1.662-3.36-1.662-3.36.52 1.128 1.095 2.231 1.662 3.36zm10.113-37.659 1.254-.572Zm-1.534.7.586-.267zm3.577-1.633.571-.261zm.827-.378.485-.221zm2.866 34.314a1.14 1.14 0 0 0-.278-.072c.19.057.378.11.558.16-.093-.03-.193-.052-.28-.088zM25.912 10.68l.256-.117Zm-6.674 3.049zm5.312-2.427.791-.36a157.437 157.437 0 0 0-.79.36Zm-2.2 1.005.947-.433Zm6.964 32.656c.281.085.58.15.924.242 0 0-.418-.103-.924-.242zm40.204 7.988c-.725-.935-1.137-1.347-2.02-1.999-.216-.174-1.15-.933-1.306-1.032a10.573 10.573 0 0 0-1.197-.69c-1.286-.621-1.068-.802-2.617-.954-2.985-.294-5.8.23-8.269 2.028-3.294 2.4-5.092 5.771-5.908 9.663-.306 1.463-.046 2.632.699 3.435.019.027.047.05.07.076a4.102 4.102 0 0 0 1.91.989c.945.214 1.943.285 2.929.276l.051.005c2.98.282 8.019-1.589 8.019-1.589 6.57-2.537 8.161-9.59 8.2-9.71l-.751.175c-.033-.035.22-.64.19-.673z"/><path d="M45.734 58.866c2.269-7.363 7.257-11.572 14.775-12.327-2.122-.32-3.712-.726-5.85-.414-6.783.99-11.289 4.705-13.437 11.242-.399 1.11 4.097 2.305 4.097 2.305a2.25 2.25 0 0 0 .415-.806z"/><path d="M48.022 45.548c.807-.305 1.244-.35 2.156-.648-2.567-.387-5.41.027-7.97 1.342-3.86 1.984-6.46 5.146-8.303 8.982a4.677 4.677 0 0 1-.434.715h.003c.831.967 5.07.869 5.07.869.064-2.191.809-4.16 2.07-5.934 1.86-2.615 4.463-4.218 7.408-5.326zm-15.417 3.916c1.178-1.736 2.23-2.923 3.957-4.06-4.63 1.432-7.935 3.695-9.722 8.564-.323.8 4.237 1.384 4.237 1.384-.25-2.225.343-4.139 1.528-5.888zm-18.829-16.59c-.008-.113-.394-2.587.124-3.555-.059-2.15-.542-2.742-2.999-3.174l-.182-.033c-.863-.176-1.534.151-2.025.837a4.862 4.862 0 0 0-.53.968c-.062.348-.701 4.03-.668 5.674 1.914-.171 3.744-.365 5.577-.482.332-.022.56-.076.703-.236zM25.19 44.76s-2.844-.652-3.293-1.133c-.166-.002-.326-.235-.497-.125a19.568 19.568 0 0 0-4.262 3.666c-1.03 1.188-1.824 2.218-2.49 3.732l3.667.832c1.84-2.975 4.377-4.57 6.875-6.972zm-7.9-25.858c.058-.2.276-.478.157-.605-.55-.596-1.154-1.144-1.776-1.745 0 0-4.796 5.087-5.916 6.49 1.892 1.278 3.973 1.662 5.896 2.168 0 0-.171-1.406 1.639-6.308zm-1.655 20.618s-2.449-1.68-2.449-3.51c-.451-.514-.471-.634-1.254-.623-2.41.03-3.67 1.058-3.876 3.27-.019.192-.008.38-.013.572.09.62.539 3.675.766 4.401 1.698-2.557 4.189-3.572 6.826-4.11zm4.59 3.11s-1.834-.137-2.893-.75c-.394.014-.35-.065-1.132.335-1.776.907-3.422 2-4.742 3.521-.142.165-.276.505-.202.666 0 0 1.254 2.552 1.662 3.36 1.99-2.847 4.72-4.882 7.306-7.133zM37.7 10.38c0-.838.194-1.54.194-2.401-3.198.154-6.328.416-9.5.57.178 1.086.342 1.976.516 3.038 0 0 7.613-1.194 8.79-1.207zM25.912 12.09c-.334-.564-.665-.874-1.017-1.467l-.485.221-.255.117-.571.262-.791.36a743.322 743.322 0 0 1-2.2 1.005l-.586.268-2.527 1.154 2.995 2.823c.002.002 4.447-4.653 5.437-4.743zm-.665 39.988c1.442-2.034 2.907-4.051 4.365-6.075.111-.155.212-.318.34-.51-.344-.092-.643-.158-.924-.243a28.784 28.784 0 0 1-.557-.159c-.348-.053-.614.098-.894.393a132.42 132.42 0 0 1-3.146 3.187c-1.004.986-2.034 1.944-3.053 2.915l3.379.83c.19-.024.339-.127.49-.338z"/></g><path d="m14.257 38.927-2.799-.906Zm-4.288-1.965c-.303-.6-1.234-2.495-1.234-2.495.386.838.813 1.657 1.234 2.495zM17.478 9l.931-.425Zm-1.139.52.435-.199zm2.656-1.213.424-.194zm.614-.281.36-.164zm2.128 25.479a.846.846 0 0 0-.206-.053c.141.042.28.081.414.118-.069-.022-.143-.038-.208-.065z" style="fill:#9e2f30" transform="matrix(1.34676 0 0 1.34676 -1.587 -.246)"/><path d="m22.653 6.36 7.054-.34s-5.645.105-7.054.34zm-3.234 1.753.19-.087zm-4.956 2.264zm3.945-1.802.587-.268a116.9 116.9 0 0 0-.587.268Zm-1.634.746L17.477 9Zm5.171 24.248c.209.063.43.112.686.18 0 0-.31-.077-.686-.18z" style="fill:#ffdf74" transform="matrix(1.34676 0 0 1.34676 -1.587 -.246)"/><path d="M52.769 39.466a9.054 9.054 0 0 0-1.8-1.753 4.616 4.616 0 0 0-.408-.297 8.28 8.28 0 0 0-.912-.517 9.277 9.277 0 0 0-3.152-.871c-2.217-.218-4.307.171-6.14 1.506-2.446 1.782-3.781 4.285-4.387 7.175-.227 1.086-.034 1.954.519 2.55.014.02.035.038.052.057a3.046 3.046 0 0 0 1.418.734c.702.159 1.443.212 2.175.205l.038.004c2.213.209 5.954-1.18 5.954-1.18 4.878-1.884 6.68-7.444 6.708-7.534l.003-.008z" style="fill:#9e2f30" transform="matrix(1.34676 0 0 1.34676 -1.587 -.246)"/><path d="M34.137 43.892c1.685-5.467 5.798-8.852 11.379-9.413-1.576-.237-3.165-.279-4.753-.048-5.036.735-8.382 3.493-9.977 8.347-.296.824 3.042 1.712 3.042 1.712.137-.161.234-.355.309-.598z" style="fill:#ffdf74" transform="matrix(1.34676 0 0 1.34676 -1.587 -.246)"/><path d="M35.836 34.003c.599-.226 1.215-.404 1.892-.626-1.906-.287-4.308.165-6.209 1.142-2.866 1.473-4.797 3.821-6.165 6.669a3.473 3.473 0 0 1-.322.531h.002c.617.718 3.765.645 3.765.645.047-1.627.6-3.089 1.537-4.406 1.381-1.942 3.313-3.132 5.5-3.955zm-11.447 2.908c.874-1.289 2.072-2.228 3.355-3.074-3.438 1.064-6.309 2.803-7.636 6.417-.24.594 3.146 1.028 3.146 1.028-.185-1.651.255-3.072 1.135-4.371zm-12.981-12.85c-.006-.083-.126-1.893.259-2.613-.044-1.597-.57-2.062-2.394-2.383l-.135-.024c-.641-.131-1.139.112-1.504.621a3.61 3.61 0 0 0-.394.719c-.045.258-.52 2.992-.495 4.213 1.421-.127 2.78-.271 4.141-.358.246-.016.416-.056.522-.175zm7.959 9.22s-2.116-.698-2.449-1.055a.64.64 0 0 0-.365.121 14.53 14.53 0 0 0-3.165 2.722c-.765.882-1.436 1.829-1.93 2.953l2.799.906c1.365-2.209 3.255-3.864 5.11-5.647zm-5.04-19.459c.043-.149.05-.388-.038-.483-.409-.443-.857-.85-1.319-1.296 0 0-3.561 3.777-4.393 4.819 1.405.949 2.95 1.234 4.378 1.61.001 0 .774-4.43 1.372-4.65zM12.4 29.075s-1.751-1.323-1.384-2.518c-.335-.382-.784-.559-1.365-.551-1.79.023-2.725.786-2.878 2.428-.013.143-.005.283-.009.425.067.46.4 2.729.569 3.268 1.26-1.899 3.109-2.652 5.067-3.052zm2.993 2.59s-1.555-.123-1.812-.763c-.292.01-.595.159-1.176.456-1.319.674-2.541 1.486-3.521 2.615-.106.122-.205.375-.15.494 0 0 .931 1.895 1.234 2.495 1.478-2.115 3.505-3.626 5.425-5.297zm14.314-23.8V6.02l-7.054.34.383 2.339s5.797-.824 6.671-.834zm-8.993 1.256-.745-1.26-.36.164-.19.087-.424.194-.587.268a298.66 298.66 0 0 1-1.633.747l-.435.199-1.876.857 2.224 2.096c-.001 0 3.291-3.285 4.026-3.352zm-1.576 29.518c1.071-1.51 2.159-3.008 3.241-4.511.083-.115.158-.236.253-.379-.256-.068-.478-.117-.686-.18a21.373 21.373 0 0 1-.414-.118c-.258-.039-.456.073-.664.292a98.324 98.324 0 0 1-2.336 2.366c-.745.732-1.51 1.444-2.267 2.165l2.509.616c.142-.018.252-.094.364-.251z" style="fill:#ffdf74" transform="matrix(1.34676 0 0 1.34676 -1.587 -.246)"/></svg>