<svg width="120" height="120" xml:space="preserve" xmlns="http://www.w3.org/2000/svg"><path d="M23.574 23.746S12.22 31.017 9.782 45.454c-2.438 14.437 5.5 29.188 17.5 34.375 12 5.187 27.313 2.313 30 1.063 0 0-2.125-7-6.313-10s-2.284-8.633-.704-11.66l-17.421-7.215Z" style="fill:#ffdf74" transform="matrix(1.61599 0 0 1.61599 -14.336 -14.335)"/><path d="M22.574 24.746s-3.833 19.329 4.833 27.914 15.5 8.357 17.5 8.221c2-.136 9.167-2.469 16.5 1.531 0 0 3.063-1.708-.688-4.771-3.751-3.063-9.063-3.938-15.75-2.375 0 0 3.563-3.438 7.75-2.813 4.187.625 6.75 4.438 10.625 4.75 3.875.312 6.25-2.125 7.188-4.25.938-2.125-.313-4.5-.313-4.5l1.375-2.313-7.75-4.938s-2.813-2.563-2.563-5.563c0 0 1.438-2.813.125-3.813s-3.063-2-3.063-2-3.938-4.563-6.5-6c-2.562-1.437-12.477-6.788-29.269.92z" style="opacity:.2" transform="matrix(1.61599 0 0 1.61599 -14.336 -14.335)"/><path d="M23.574 23.746s-3.833 19.329 4.833 27.914 15.5 8.357 17.5 8.221c2-.136 9.167-2.469 16.5 1.531 0 0 3.063-1.708-.688-4.771-3.751-3.063-9.063-3.938-15.75-2.375 0 0 3.563-3.438 7.75-2.813 4.187.625 6.75 4.438 10.625 4.75 3.875.312 6.25-2.125 7.188-4.25.938-2.125-.313-4.5-.313-4.5l1.375-2.313-7.75-4.938s-2.813-2.53-2.563-5.53c0 0 1.438-2.845.125-3.845s-3.063-2-3.063-2-3.938-4.563-6.5-6c-2.562-1.437-12.477-6.789-29.269.919z" style="fill:#faec94" transform="matrix(1.61599 0 0 1.61599 -14.336 -14.335)"/><path d="M34.845 36.267c1.625-.188 6.938-1.25 7.563-6.688 0 0-4.875-7.625 1.813-11.125s14.75.375 16.688.563c1.938.188 14.438 2.625 21.75-5.75 0 0-5.188 4.75-20.563.375S42.72 8.267 37.033 9.955c-5.687 1.688-11.438 5.688-11.188 15.813s9 10.499 9 10.499z" style="fill:#bf4851" transform="matrix(1.61599 0 0 1.61599 -14.336 -14.335)"/><path d="M34.845 36.267c-1.417-.249-3.083-.06-4.821-5.119-2.1-6.111-.755-10.378 4.359-13.836 1.244-.842 2.306-1.368 3.552-1.762 1.025-.324 2.241-.57 3.716-.763a16.256 16.256 0 0 0-2.93 2.329c-2.777 2.793-3.251 5.722-3.16 7.688.166 3.586 3.672 7.13 5.126 8.716-1.384 1.456-3.55 2.498-5.842 2.747z" style="fill:#9e2f30" transform="matrix(1.61599 0 0 1.61599 -14.336 -14.335)"/><path d="M45.72 33.767s4.188-1.188 6.438-.438 4.938 2.625 6.125 2.938c1.187.313 2.923-.605 4-1.593 0 0-.022.817.057 1.186-.094.063-1.557.907-1.057 3.094l-2-1.25s-5.813-.063-6.813-.375-4.1-2.621-4.75-3.25z" style="fill:#f5b400" transform="matrix(1.61599 0 0 1.61599 -14.336 -14.335)"/><path d="M55.776 36.416c-1.451-.059-2.633-.141-2.95-.232-.441-.138-1.832-1.076-2.935-1.894.134-.006.266-.009.396-.009.617 0 1.119.063 1.49.188 1.123.374 2.415 1.081 3.555 1.705zM71.22 47.455s-4.146-2.417-1.142-3.916l2.517 1.604c0-.001-.312 1.77-1.375 2.312z" style="fill:#4d4d4d" transform="matrix(1.61599 0 0 1.61599 -14.336 -14.335)"/></svg>