<svg width="120" height="120" xml:space="preserve" xmlns="http://www.w3.org/2000/svg"><path d="M46.172 22.502s-.917 6.083-.75 8.167c.167 2.083.209 5.583-.02 6.583-.229 1-1.48 5.167-1.48 5.167s-.167 3.583-1.75 3.583-3.667-.083-4.25 1.667c-.583 1.75-1.833 12.25 2.25 12.417 4.083.167 4.75-1.667 7.333-1.167s6.083 2.167 5.833 11.583c0 0 2.083 6.083-2.833 6.333s-23.5-4.583-24.25-10.75-9.166-51.917 19.917-43.583z" style="fill:#ffdf74" transform="translate(-6.831 -6.83) scale(1.45283)"/><path d="M45.422 22.491s-1.006 6.836-.936 10.174c.07 3.338.11 4.944-.24 6.19-.35 1.246-1.16 3.278-1.324 4.563-.165 1.285-.329 3.557-1.75 3.583-1.421.027-6.417.083-7.167-4.417s4.584-22.687 11.417-20.093z" style="opacity:.2" transform="translate(-6.831 -6.83) scale(1.45283)"/><path d="M46.422 21.491s-1.006 6.836-.936 10.174c.07 3.338.11 4.944-.24 6.19-.35 1.246-1.16 3.278-1.324 4.563-.165 1.285-.329 3.557-1.75 3.583-1.421.027-6.417.083-7.167-4.417s4.584-22.687 11.417-20.093z" style="fill:#faec94" transform="translate(-6.831 -6.83) scale(1.45283)"/><path d="M17.125 9.086S5.234 48.834 13.911 66.668c8.677 17.834 27.556 19.611 32.574 19.165 5.602-.498 24.212-13.165 26.444-15.821 1.984-2.361 12.715-17.594 9.021-32.552-3.694-14.958-10.878-25.182-22.703-20.737 0 0 17.281-.037 17.55 24.278.27 24.315-21.709 30.387-28.875 30.86-7.166.473-16.917-9.521-17.625-20.524-.708-11.003 9.625-26.253 9.625-26.253Z" style="fill:#9e2f30" transform="translate(-6.831 -6.83) scale(1.45283)"/><path d="M27.585 33.477c-.233.253-.488.489-.696.761-2.414 3.159-4.976 6.195-7.589 9.19-.198.228-.416.439-.627.66-.676-.817-1.415-3.025-1.807-5.226-.324-1.818-.383-3.645-.272-5.481.114-1.884.619-3.682 1.298-5.475-.326-.068-.412.143-.511.289-1.101 1.63-1.676 3.445-1.83 5.393-.048.606-.008 1.22-.008 1.96-.291-.103-.506-.124-.645-.238-.823-.675-1.415-1.539-1.922-2.462-.847-1.543-1.397-3.196-1.739-4.918-.792-3.991-.551-7.908.921-11.717 1.073-2.775 2.697-5.187 4.967-7.127 3.191-2.726 6.924-3.983 11.099-3.93 1.268.016 2.528-.058 3.792-.099 6.257-.204 11.204 2.166 14.559 7.572.183.295.376.591.61.844 2.513 2.715 3.885 5.97 4.547 9.563.566 3.071.614 6.157.342 9.262-.602 6.888-2.466 13.457-4.945 19.875-.129.335-.305.652-.601.924.102-.415.192-.833.308-1.243 1.281-4.541 2.32-9.136 2.94-13.816.512-3.86.776-7.735.344-11.625-.217-1.957-.557-3.896-1.312-5.724-.364-.881-.865-1.708-1.324-2.547-.094-.172-.283-.293-.501-.51-.258.497-.182.937-.196 1.35a26.516 26.516 0 0 1-1.115 6.83c-.961 3.176-2.419 6.081-4.813 8.441-.399.393-.551.866-.706 1.37-1.129 3.679-2.908 7.003-5.447 9.908-1.533 1.754-3.267 3.275-5.237 4.521-.357.226-.735.417-1.237.7.046-.558.32-.852.465-1.191.171-.401.365-.793.529-1.196.147-.363.283-.733.395-1.109.124-.418.227-.843.317-1.269a13.426 13.426 0 0 0 .283-2.338c.016-.436.018-.873.004-1.31-.012-.382-.055-.762-.092-1.248-.413.317-.342.692-.366 1.008-.15 2.021-.655 3.957-1.386 5.837-.604 1.552-1.35 3.036-2.35 4.37-1.927 2.57-3.4 5.381-4.568 8.363-.094.241-.207.475-.318.73-.149-.009-.287.018-.391-.03-5.349-2.473-9.086-6.407-10.828-12.096-.553-1.804-.858-3.661-.463-5.555.106-.509.24-1.024.445-1.499a23.524 23.524 0 0 0 1.771-6.548c.045-.37.152-.733.261-1.243 1.482 1.347 2.499 2.849 3.405 4.437.892 1.563 1.531 3.229 2.014 4.96.492 1.763.614 3.584.813 5.401.343-.064.364-.319.437-.502.842-2.124 2.006-4.066 3.32-5.926 1.916-2.712 3.644-5.545 5.328-8.403.168-.284.467-.55.3-.948.343.064.321-.15.348-.654-.187.397-.253.54-.32.684z" style="fill:#bf4851" transform="translate(-6.831 -6.83) scale(1.45283)"/><path d="M29.683 74.416c-.26-.038-.429-.036-.578-.089-2.098-.751-4.26-1.27-6.42-1.8-.466-.114-.933-.228-1.39-.371-4.495-1.401-7.448-4.371-8.97-8.806-.802-2.336-1.097-4.753-1.184-7.205-.004-.111.054-.225.08-.324.333-.049.379.216.506.373.713.881 1.375 1.809 2.144 2.639 1.382 1.491 2.999 2.641 4.973 3.271 1.646.525 2.861 1.64 3.779 3.082.303.476.565.978.85 1.475.333-.078.199-.336.2-.516.004-1.526-.079-3.057.009-4.578.112-1.934.645-3.779 1.551-5.503 1-1.903 2.424-3.401 4.279-4.488.15-.088.305-.169.467-.232.073-.029.167-.005.317-.005.399.498.53 1.145.678 1.766.5 2.097.629 4.225.451 6.373-.225 2.708-.784 5.348-1.577 7.944-.216.707-.38 1.433-.52 2.16a8.577 8.577 0 0 0 .097 3.765c.083.322.157.648.258 1.069z" style="fill:#bf4851" transform="translate(-6.831 -6.83) scale(1.45283)"/><path d="M36.436 79.851c-.21.094-.361.196-.527.23-1.493.3-2.983.627-4.486.871-3.207.521-6.028-.405-8.538-2.398a13.866 13.866 0 0 1-2.435-2.478c.291-.157.491-.312.716-.38 3.52-1.062 6.884-.726 10.069 1.153.187.111.367.235.55.352l.544.346c.338-.303 0-.504-.087-.672a14.012 14.012 0 0 1-1.611-6.009c-.114-2.853.537-5.531 1.878-8.046.039-.072.122-.121.195-.191.452.086.73.437 1.035.733 1.845 1.785 2.951 3.98 3.473 6.467.721 3.418.249 6.751-.776 10.022zM56.711 66.13c1.17 1.061 1.683 2.172 1.827 3.465.168 1.51-.117 2.955-.726 4.335-.35.793-.743 1.568-1.119 2.358.383.262.681-.04.975-.136 1.728-.567 3.48-.782 5.285-.481 1.342.224 2.584.682 3.66 1.48-.046.32-.251.297-.409.309-1.499.114-2.77.729-3.839 1.764a6.969 6.969 0 0 1-3.406 1.842c-1.378.303-2.762.331-4.136-.083-.994-.3-1.652-.905-1.961-1.915-.552-1.805-.98-3.615-.672-5.527.226-1.405.863-2.543 2.028-3.376.284-.203.566-.408.835-.63.985-.81 1.614-1.817 1.658-3.405z" style="fill:#bf4851" transform="translate(-6.831 -6.83) scale(1.45283)"/><path d="M32.837 82.86c1.041-.132 1.839-.584 2.566-1.25a5.592 5.592 0 0 1 3.422-1.476c.169-.013.336-.059.546-.097-.841-2.172-.533-4.332-.122-6.487.18-.942.454-1.867.615-2.812.227-1.328.386-2.667.086-4.07.635.15.989.552 1.357.909 1.516 1.467 2.473 3.264 2.994 5.288.688 2.672.575 5.362.082 8.054-.078.428-.345.691-.647.945a8.802 8.802 0 0 1-3.85 1.868c-2.283.493-4.512.203-6.69-.582-.113-.041-.199-.158-.359-.29z" style="fill:#bf4851" transform="translate(-6.831 -6.83) scale(1.45283)"/><path d="M46.714 69.858c2.811 2.444 4.505 5.236 4.768 8.778.071.951-.02 1.914-.053 2.871-.02.587-.268 1.089-.626 1.549-1.114 1.434-2.583 2.314-4.317 2.776-1.425.38-2.854.741-4.328 1.122-.179-.155.001-.36.086-.529.371-.738.712-1.499 1.162-2.188 1.046-1.6 2.383-2.79 4.414-2.726.201-.332-.047-.446-.174-.582-1.485-1.588-1.991-3.428-1.479-5.55.143-.592.212-1.201.342-1.797a8.959 8.959 0 0 0 .149-3.118c-.016-.118.021-.245.056-.606zm26.215.154c-1.028 2.105-2.558 3.558-4.718 4.326a7.432 7.432 0 0 1-2.963.421c-1.609-.101-3.214-.279-4.819-.438-.157-.015-.304-.125-.448-.188.038-.139.035-.242.085-.297 1.48-1.612 3.23-2.792 5.392-3.265a7.067 7.067 0 0 1 1.688-.137c1.795.05 3.575 0 5.319-.49.108-.029.241.033.464.068zM78.6 61.36c.353 3.871-4.941 7.669-9.246 6.742.164-.73.163-.73.866-1.659 1.221-1.614 2.646-3.003 4.434-3.985A8.618 8.618 0 0 1 78.6 61.36Zm-12.474 7.979c-1.18-2.777-.138-7.739 4.104-10.307.059.16.154.303.16.449.075 1.876-.016 3.743-.606 5.539-.255.777-.599 1.54-1.013 2.245-.645 1.1-1.357 1.605-2.645 2.074zm7.718-17.354c1 2.359 1.623 4.516 1.452 6.835-.153 2.075-1.269 3.264-3.373 3.582-.098-.202-.242-.415-.307-.65-.263-.938-.263-1.893-.133-2.852.321-2.356 1.151-4.535 2.361-6.915zm-9.615 12.26c1.218 3.691-.977 7.687-4.594 8.32-.044-.239-.122-.477-.126-.718-.019-1.085-.032-2.166.247-3.234.36-1.379 1.144-2.414 2.369-3.128.67-.391 1.338-.788 2.104-1.24zm17.668-12.669c.055.143.122.227.109.296-.406 2.155-1.139 4.185-2.357 6.021-.556.839-1.223 1.582-2.055 2.159-.531.369-1.074.726-1.776.814-.056-.127-.155-.24-.144-.341.181-1.702.653-3.32 1.474-4.825.964-1.766 2.313-3.138 4.167-3.972.183-.083.393-.105.582-.152zm.596-8.532c-.035.204-.046.372-.093.529-.298 1.015-.351 2.058-.366 3.106-.004.305.004.611-.008.915-.058 1.414-.674 2.502-1.906 3.223-.37.216-.748.42-1.138.638-.805-3.481.746-7.122 3.511-8.411zM76.332 54.67c-.844-.723-1.158-1.691-1.274-2.74-.108-.971.099-1.901.431-2.814.419-1.154.695-2.332.376-3.797.293.284.457.389.549.539.996 1.628 1.638 3.359 1.515 5.309-.088 1.371-.594 2.51-1.597 3.503zm5.438-20.656c.197.593.154 1.198.178 1.786.058 1.436.014 2.87-.361 4.266a8.567 8.567 0 0 1-.611 1.57c-.209.422-.509.801-.977.988-.504-.772-.706-1.608-.757-2.943-.055-1.42.203-2.766.9-4.013.472-.843.839-1.213 1.628-1.654zm-3.625 12.18c-.628-.252-.881-.667-1.048-1.109-.26-.689-.516-1.389-.665-2.107-.338-1.623-.419-3.275-.393-4.932.002-.115.071-.23.135-.426.18.091.341.141.462.239 1.24 1.008 1.942 2.312 2.134 3.898.182 1.497-.027 2.931-.625 4.437zm-4.463-15.338c3.354 1.239 5.043 3.701 4.654 6.581-.539.117-.898-.249-1.274-.515-1.05-.743-1.837-1.722-2.401-2.871-.473-.965-.9-1.952-.979-3.195zm5.813-5.164c0 .255.003.511-.001.766-.021 1.4.136 2.778.446 4.146.234 1.034.261 2.078-.226 3.068-.093.189-.232.355-.351.534-.617-.452-.836-.797-1.241-1.914-.471-1.299-.621-2.63-.308-3.982.236-1.016.638-1.963 1.681-2.618zm-8.051-.175c.525-.235 1.032-.031 1.499.145a4.8 4.8 0 0 1 1.348.758c1.268 1.048 2.048 2.415 2.506 4.005-1.763-.037-4.266-2.409-5.353-4.908zm5.312 1.809c-1.87-1.603-2.406-3.883-1.563-6.314.623.448 1.252 1.666 1.666 3.227.378 1.423.363 2.067-.103 3.087zm-7.932-5.84c1.241-.254 2.262.016 3.225.533.955.513 1.614 1.288 1.914 2.351-.685.268-.862.296-1.375.213-.752-.121-1.401-.471-1.984-.939-.71-.571-1.316-1.232-1.78-2.158zm-3.87-7.596c1.538.316 2.802.834 3.8 1.868.499.516 1.042 1.043 1.03 1.854-.547.259-.998.025-1.433-.139-.922-.348-1.633-.997-2.257-1.738-.432-.513-.909-1.011-1.14-1.845zm6.148 2.399c1.836 1.066 2.931 3.314 2.533 5.198-1.658-.783-2.856-3.242-2.533-5.198zm-5.732 2.149c2.175-.38 3.918-.109 5.326 1.297.018.396-.235.432-.426.459-.509.072-1.04.205-1.533.129-1.258-.193-2.371-.718-3.367-1.885zm-6.123-1.715c1.625-1.545 3.092-1.764 4.749-.824.629.357 1.241.745 1.855 1.115-.14.342-.392.281-.583.298a7.321 7.321 0 0 1-2.953-.339c-.493-.162-.977-.405-1.482-.46-.45-.048-.923.113-1.586.21z" style="fill:#bf4851" transform="translate(-6.831 -6.83) scale(1.45283)"/></svg>