<svg xmlns="http://www.w3.org/2000/svg" xmlns:xlink="http://www.w3.org/1999/xlink" viewBox="0 0 64 64"><defs><linearGradient id="c" gradientUnits="userSpaceOnUse" y1="15" x2="0" y2="49"><stop stop-color="#4e493f"/><stop offset=".768" stop-color="#3b3732"/></linearGradient><linearGradient id="e" gradientUnits="userSpaceOnUse" y1="46" x2="0" y2="18"><stop stop-color="#f8f5e5"/><stop offset="1" stop-color="#cac7b9"/></linearGradient><linearGradient id="b" gradientUnits="userSpaceOnUse" y1="57" x2="0" y2="7"><stop stop-color="#cac7b9"/><stop offset="1" stop-color="#f8f5e5"/></linearGradient><linearGradient id="d" gradientUnits="userSpaceOnUse" y1="48" x2="0" y2="16" xlink:href="#b"/><clipPath id="f"><use xlink:href="#a"/></clipPath><circle id="a" cx="32" cy="32" r="14"/></defs><path d="M16 7h32a9 9 0 019 9v32a9 9 0 01-9 9H16a9 9 0 01-9-9V16a9 9 0 019-9z" fill="url(#b)" stroke-miterlimit="10" stroke="#7c715e" stroke-width=".25"/><path d="M44 49H20c-2.76 0-5-2.24-5-5V20c0-2.76 2.24-5 5-5h24c2.76 0 5 2.24 5 5v24c0 2.76-2.24 5-5 5" fill="url(#c)"/><path d="M21 16h22c2.76 0 5 2.24 5 5v22c0 2.76-2.24 5-5 5H21c-2.76 0-5-2.24-5-5V21c0-2.76 2.24-5 5-5z" fill="url(#d)" stroke-miterlimit="10" stroke="#7c715e" stroke-width=".25"/><circle cx="32" cy="32" r="14" fill="url(#e)"/><g fill="#1a171b"><circle cx="26.91" cy="32" r="1.91"/><circle cx="37.09" cy="32" r="1.91"/></g><g fill="#8c8c8c"><path d="M31.36 19.27h1.27v2.55h-1.27zM31.36 42.18h1.27v2.55h-1.27z"/></g><g clip-path="url(#f)"><path d="M17.23 33.14h4.09v13.64h-4.09z" fill="#ccbeae"/><path d="M20.82 33.64v12.64h-3.09V33.64h3.09m1-1h-5.09v14.64h5.09V32.64z" fill="#a59988"/><g><path d="M17.23 17.23h4.09v13.64h-4.09z" fill="#ccbeae"/><path d="M20.82 17.73v12.64h-3.09V17.73h3.09m1-1h-5.09v14.64h5.09V16.73z" fill="#a59988"/></g></g><g clip-path="url(#f)"><path d="M42.68 17.23h4.09v13.64h-4.09z" fill="#ccbeae"/><path d="M46.27 17.73v12.64h-3.09V17.73h3.09m1-1h-5.09v14.64h5.09V16.73z" fill="#a59988"/><g><path d="M42.68 33.14h4.09v13.64h-4.09z" fill="#ccbeae"/><path d="M46.27 33.64v12.64h-3.09V33.64h3.09m1-1h-5.09v14.64h5.09V32.64z" fill="#a59988"/></g></g><circle cx="32" cy="32" r="14" fill="none" stroke-miterlimit="10" stroke="#5e5549" stroke-width=".5"/></svg>