<svg xmlns="http://www.w3.org/2000/svg" xmlns:xlink="http://www.w3.org/1999/xlink" viewBox="0 0 64 64"><defs><linearGradient id="a" gradientUnits="userSpaceOnUse" x1="54.364" y1="9.636" x2="9.636" y2="54.364"><stop stop-color="#f8f5e5"/><stop offset="1" stop-color="#cac7b9"/></linearGradient><linearGradient id="b" gradientUnits="userSpaceOnUse" y1="15" x2="0" y2="49"><stop stop-color="#4e493f"/><stop offset=".768" stop-color="#3b3732"/></linearGradient><linearGradient id="c" gradientUnits="userSpaceOnUse" x1="49.344" y1="42.014" x2="14.656" y2="21.986" xlink:href="#a"/></defs><path d="M16 7h32a9 9 0 019 9v32a9 9 0 01-9 9H16a9 9 0 01-9-9V16a9 9 0 019-9z" fill="url(#a)" stroke-miterlimit="10" stroke="#7c715e" stroke-width=".25"/><path d="M44 49H20c-2.76 0-5-2.24-5-5V20c0-2.76 2.24-5 5-5h24c2.76 0 5 2.24 5 5v24c0 2.76-2.24 5-5 5" fill="url(#b)"/><path d="M21 16h22c2.76 0 5 2.24 5 5v22c0 2.76-2.24 5-5 5H21c-2.76 0-5-2.24-5-5V21c0-2.76 2.24-5 5-5z" fill="url(#c)" stroke-miterlimit="10" stroke="#7c715e" stroke-width=".25"/></svg>