<?xml version="1.0" encoding="UTF-8" standalone="no"?>
<svg
   width="412.93808mm"
   height="420.0592mm"
   viewBox="0 0 412.93808 420.0592"
   version="1.1"
   id="svg8"
   xmlns="http://www.w3.org/2000/svg"
   xmlns:svg="http://www.w3.org/2000/svg"
   xmlns:rdf="http://www.w3.org/1999/02/22-rdf-syntax-ns#"
   xmlns:cc="http://creativecommons.org/ns#"
   xmlns:dc="http://purl.org/dc/elements/1.1/">
  <defs
     id="defs2" />
  <metadata
     id="metadata5">
    <rdf:RDF>
      <cc:Work
         rdf:about="">
        <dc:format>image/svg+xml</dc:format>
        <dc:type
           rdf:resource="http://purl.org/dc/dcmitype/StillImage" />
      </cc:Work>
    </rdf:RDF>
  </metadata>
  <g
     id="g25">
    <path
       style="fill:#000000;stroke:none;stroke-width:0.264583"
       d="m 224.00048,368.02036 c 17.87342,-1.97474 34.56122,-7.05964 50.21365,-15.40906 10.43512,-5.56634 20.62578,-11.59577 29.47705,-19.51215 9.72193,-8.69503 19.16633,-17.70825 27.01141,-28.21403 7.25533,-9.71592 13.22531,-20.18057 18.08528,-31.29344 5.98821,-13.69274 9.36641,-28.0544 11.00024,-42.84654 0.46283,-4.19037 0.54787,-8.43616 0.57364,-12.65796 0.0452,-7.40375 0,-14.81069 -0.17481,-22.2124 -0.15153,-6.45073 -1.36305,-12.77665 -2.77246,-19.05585 C 351.80121,151.81059 340.57973,129.61259 323.8357,110.2264 311.46717,95.906147 297.45489,83.54475 280.6565,74.57501 269.28039,68.50056 257.6323,63.07958 245.09385,59.80209 c -9.23557,-2.41416 -18.63182,-3.81406 -28.14402,-4.5137 -22.07225,-1.62343 -43.62402,0.90953 -64.61088,8.02033 -17.48673,5.9249 -33.21467,14.96353 -47.43659,26.69624 -9.479615,7.820417 -18.319115,16.27805 -25.801605,26.05803 -12.29917,16.07561 -21.31927,33.78085 -26.4473,53.43018 -0.88462,3.38967 -2.07642,6.75627 -3.58528,9.91419 -3.26051,6.82397 -8.76658,11.29522 -16.04728,13.11636 -3.17382,0.79388 -6.65553,0.66956 -9.97189,0.49022 -3.14469,-0.17005 -6.31253,-0.73676 -9.36972,-1.52077 -5.5814702,-1.43136 -9.7287502,-4.80413 -12.2870702,-10.0353 -1.53577998,-3.14039 -1.54824998,-6.47462 -1.22119998,-9.83406 0.66943,-6.87623 2.47494998,-13.50101 4.47798998,-20.08627 3.64952,-11.9983 8.0860802,-23.68852 13.7070802,-34.90491 7.62934,-15.22393 17.32623,-29.04516 28.63504,-41.75137 10.64462,-11.95995 22.41809,-22.66981 35.41306,-32.03847 25.300745,-18.24047 53.304835,-30.10952 83.974095,-35.7116703 10.16333,-1.85647 20.41874,-2.8246498 30.74746,-2.9239998 7.04538,-0.0678 14.11513,-0.36723 21.13182,0.0876 7.63485,0.49489 15.26852,1.4579298 22.81849,2.7204698 15.97184,2.6709201 31.38805,7.3031403 46.21011,13.8931303 19.31818,8.58896 36.92806,19.83511 52.82735,33.75318 11.03111,9.65653 21.26924,20.08296 30.27407,31.68034 10.43845,13.443705 18.84743,28.06864 25.54327,43.70695 7.36235,17.19501 12.46918,35.01796 14.93996,53.56123 0.69647,5.22708 1.03902,10.50832 1.3638,15.77578 0.2654,4.30416 0.30258,8.62422 0.37047,12.93833 0.13605,8.64862 -0.56997,17.25605 -1.62637,25.82356 -1.67222,13.56151 -4.34059,26.91902 -8.65433,39.92046 -6.43425,19.39261 -15.5764,37.3816 -27.65481,53.87568 -7.77909,10.62304 -16.46312,20.45369 -25.91541,29.60142 -10.28478,9.95344 -21.32769,18.94922 -33.49011,26.56554 -21.44469,13.42906 -44.51863,22.70782 -69.32096,27.71252 -15.6209,3.15203 -31.3961,4.51858 -47.31481,3.98316 -15.17181,-0.51022 -30.24883,-1.93765 -45.0406,-5.56239 -13.30801,-3.26119 -26.17694,-7.7525 -38.57528,-13.6263 -18.802495,-8.90783 -35.542025,-20.86253 -51.063575,-34.56678 -12.01388,-10.60728 -22.2911,-22.77918 -31.40202,-35.96664 -11.61681,-16.81453 -20.474,-34.96561 -26.5177402,-54.46284 -2.05736,-6.63707 -3.71252,-13.41135 -5.24940998,-20.19141 -0.67145,-2.96219 -1.03642,-6.04192 -0.47674,-9.17485 1.20307998,-6.73452 5.15330998,-11.18634 11.39478018,-13.41596 7.83373,-2.79844 15.90233,-3.12708 23.89711,-0.62833 6.72905,2.10312 11.42282,6.50687 13.56157,13.34143 0.73515,2.34918 1.25673,4.76879 1.80356,7.17269 1.86964,8.21915 5.20861,15.89225 8.69272,23.51111 6.2376,13.63996 14.2818,26.10097 24.20416,37.36751 10.56273,11.99369 22.666535,22.15721 36.069595,30.81004 9.73571,6.28525 19.9992,11.51562 30.88936,15.51468 13.41853,4.92768 27.25902,7.87543 41.52252,8.58779 10.47335,0.52305 20.96646,0.69924 31.66219,-0.49586 m -30.42587,6.15389 c -1.59306,-0.023 -3.18614,-0.0459 -5.13405,-0.0951 -0.35457,-0.0293 -0.70917,-0.0585 -1.46074,-0.25588 -1.15552,-0.0874 -2.31106,-0.17478 -3.92123,-0.28665 -3.27885,-0.50625 -6.56868,-0.95041 -9.83422,-1.53149 -7.3021,-1.29923 -14.4921,-3.09155 -21.4588,-5.6325 C 116.11196,353.369 87.314245,331.41252 66.218935,299.80085 56.130765,284.68353 48.479585,268.33232 44.593885,250.4156 c -0.18659,-0.86032 -0.42402,-1.71111 -0.6722,-2.55622 -1.73822,-5.91894 -5.85668,-9.2443 -11.6983,-10.63755 -1.01583,-0.24233 -2.08855,-0.23489 -3.12565,-0.40121 -5.79547,-0.92927 -11.46312,-0.41156 -16.79894,2.02261 -4.3099602,1.96617 -6.5831802,5.5272 -6.4522102,10.3406 0.062,2.27928 0.29486,4.58883 0.77073,6.8162 2.88292,13.4941 7.1205502,26.59217 12.7818202,39.14637 12.88949,28.58312 31.21882,53.11529 55.63168,72.94417 11.17645,9.07783 22.88948,17.37506 35.683415,24.07203 17.05947,8.92971 35.04917,15.1043 53.971,18.69006 4.49268,0.85138 8.99737,1.38425 13.92746,2.02107 1.15199,0.0936 2.30396,0.18722 3.8654,0.3143 0.68384,0.0279 1.36771,0.0559 2.46542,0.22254 1.32979,0.0844 2.65956,0.16873 4.38509,0.29221 0.5297,0.0265 1.05937,0.0528 2.0184,0.19127 2.5545,0.10832 5.10903,0.21666 8.14721,0.33586 4.37028,-0.0119 8.74051,-0.0238 13.59001,0.0442 1.82155,-0.16534 3.64315,-0.33068 5.85935,-0.48808 0.52539,-0.03 1.05077,-0.0599 2.03092,-0.0214 1.31104,-0.16613 2.6221,-0.33226 4.37949,-0.51671 2.19239,-0.18642 4.41552,-0.20259 6.57145,-0.59137 6.39885,-1.15387 12.81817,-2.25358 19.14568,-3.733 25.09253,-5.86669 48.20803,-16.21777 69.31945,-31.00885 13.64851,-9.56239 25.65879,-20.94434 36.76317,-33.3121 26.11115,-29.08152 41.95527,-62.98785 47.45672,-101.67231 1.0286,-7.23265 1.72879,-14.53761 2.09717,-21.83358 0.99687,-19.74132 -0.75107,-39.25509 -5.70227,-58.42966 C 394.56724,137.73419 384.05506,114.69222 368.86662,93.84448 359.94778,81.60245 349.495,70.76164 338.23668,60.68475 318.01844,42.58819 295.16889,28.90524 269.45354,20.14457 c -9.17485,-3.12568 -18.4817,-5.79383 -28.14955,-7.03158 -5.82478,-0.74573 -11.61915,-1.7289 -17.84244,-2.75986 -1.67638,-0.10999 -3.3528,-0.21998 -5.4237,-0.3551902 -0.52647,-0.0258 -7.69351,0.1988902 -8.64715,0.03506 -6.63032,-0.039 0.39646,-0.0819 -6.23392,-0.1054912 -0.33723,-10e-4 -7.69164,-0.08716 -8.42433,0.03066 -0.528,0.0206 -1.05603,0.0413 -2.07756,-0.006 -2.18138,0.1776212 -4.36274,0.3552312 -6.84919,0.5436012 -0.20317,0.0115 -0.40634,0.0229 -1.07534,-0.0263 -1.48447,0.17667 -2.96892,0.35333 -4.89802,0.56339 -4.67757,0.69624 -9.38385,1.24021 -14.02781,2.11481 -21.20489,3.99347 -41.31301,11.07792 -60.13234,21.69344 -29.794875,16.80659 -54.147315,39.47035 -72.879735,68.098 -11.99529,18.3317 -19.75875,38.50674 -25.2818602,59.59462 -1.0852,4.14345 -1.98115,8.35724 -1.78017,12.73127 0.11535,2.51027 0.91426,4.62483 2.5213,6.49964 1.8950102,2.21078 4.2259802,3.76234 7.0674502,4.37592 2.40398,0.51919 4.85622,0.81489 7.71372,1.35517 2.74566,0.43463 5.48687,0.66278 8.57128,-0.2758 7.12807,-2.19612 11.65718,-7.00937 14.02271,-13.97527 0.53771,-1.58338 0.97896,-3.19989 1.45121,-4.80512 0.99461,-3.3808 1.84014,-6.81281 2.9921,-10.13885 8.67518,-25.04756 22.52359,-46.73128 42.10635,-64.70163 15.206295,-13.95422 31.947445,-25.46599 51.275045,-33.03024 13.76694,-5.38797 27.99242,-8.78982 43.12315,-10.33286 1.30929,-0.1721 2.61861,-0.3442 4.32681,-0.53459 0.53068,-0.0401 0.61952,-0.1545 1.59203,-0.1204 0.87894,-0.0212 5.70794,-0.343884 7.10065,-0.304484 5.21118,-0.0144 3.53113,-0.655375 9.70349,-0.0346 1.2519,-10e-4 5.38559,0.373884 7.03074,0.402584 0.52514,0.0266 1.05032,0.0532 1.99242,0.20176 1.49876,0.10471 2.99757,0.20942 4.93231,0.3625 3.45284,0.52637 6.92861,0.93529 10.35317,1.60605 5.43806,1.06515 10.96806,1.89918 16.23904,3.53877 28.70184,8.92806 53.57095,23.98454 73.97612,46.30888 18.13997,19.84599 31.13006,42.45249 37.76337,68.54649 1.75374,6.89882 3.21159,13.95306 3.8902,21.02379 0.77306,8.05468 0.48249,16.2089 0.7266,24.31764 0.27712,9.2061 -0.81558,18.28655 -2.37183,27.32707 -4.13407,24.01571 -13.95939,45.5708 -28.29399,65.15323 -6.06843,8.2901 -13.40538,15.42686 -20.70275,22.60554 -6.81683,6.70603 -14.21082,12.62712 -22.23722,17.84421 -16.11357,10.47372 -33.22127,18.58492 -52.09818,22.62331 -4.63777,0.99218 -9.34921,1.63999 -14.46773,2.38929 -1.13607,0.16864 -2.27219,0.33734 -3.81587,0.54398 -0.68128,0.0225 -1.36256,0.0452 -2.54191,0.003 -2.16921,0.14812 -4.33845,0.29623 -6.99669,0.49795 -5.28609,-0.0193 -10.5722,-0.0386 -16.23433,-0.19431 -0.79913,-0.05 -1.59827,-0.10007 -2.86658,-0.16912 z"
       id="path3021" />
    <g
       id="g16"
       transform="translate(-433.39538,-1.4860281)">
      <path
         id="path1047"
         d="m 522.04978,366.13822 c -0.7315,-0.4863 -1.53761,-0.89212 -2.17351,-1.48151 -0.63878,-0.59211 -1.43057,-1.32049 -1.53994,-2.078 -0.0749,-0.51877 0.78506,-1.4099 1.43026,-1.75786 5.35163,-2.88633 11.07533,-4.5755 17.08362,-5.58153 7.38105,-1.23583 14.70598,-2.8163 22.03964,-4.32344 8.15308,-1.67556 16.28406,-3.45891 24.44008,-5.11952 0.70004,-0.14261 1.84823,0.0182 2.2233,0.48829 2.26361,2.83836 5.02362,2.21844 7.97202,1.58709 4.0294,-0.86285 8.13981,-1.35533 12.15387,-2.27526 0.8841,-0.20259 2.0941,-1.49235 2.15325,-2.35042 0.25387,-3.68289 0.32238,-7.40632 0.0334,-11.08156 -0.0843,-1.07256 -1.37204,-2.43941 -2.45404,-2.98328 -8.98957,-4.51877 -17.5053,-9.76123 -25.44298,-15.94975 -8.125,-6.33456 -15.68376,-13.23701 -22.59731,-20.91559 -7.49633,-8.32588 -13.72754,-17.40479 -18.32417,-27.60195 -2.48811,-5.5196 -3.65735,-11.35492 -4.06114,-17.39206 -0.49301,-7.3711 0.5616,-14.54408 2.06667,-21.72763 0.60835,-2.90369 0.65045,-5.73205 -1.3829,-8.66754 -4.68412,-6.7624 -5.74144,-14.8143 -6.51394,-22.79454 -0.56369,-5.82326 -1.15555,-11.692 -1.01821,-17.52359 0.20732,-8.80229 1.67198,-17.43323 7.37568,-24.62343 1.38015,-1.73983 3.4598,-2.90703 5.05534,-4.50024 0.98711,-0.98567 2.24148,-2.20497 2.39991,-3.44418 2.44099,-19.091 6.95671,-37.57841 14.8259,-55.233126 2.98873,-6.705275 5.05107,-13.817179 7.7611,-20.654411 4.47154,-11.281425 10.49231,-21.611275 18.53847,-30.817521 5.49161,-6.283413 11.86355,-11.261958 19.01437,-15.393497 7.06614,-4.082596 14.73616,-6.658196 22.70627,-7.861411 8.97847,-1.355409 18.06696,-2.199864 27.13813,-2.645347 5.90425,-0.289945 11.86673,0.473965 17.79496,0.883775 1.80343,0.124583 3.31134,-0.282836 4.02128,-1.902444 1.55185,-3.5402013 3.81623,-6.3812558 7.51527,-7.638862 4.69901,-1.5975677 9.4809,-1.7535708 14.31055,-0.243009 4.20123,1.3140031 8.23772,2.8846283 10.48322,6.942855 1.03457,1.869768 1.61758,4.04591 2.09163,6.153704 0.4897,2.177378 1.37858,3.577982 3.69483,4.251625 14.84524,4.317583 29.21791,9.814782 42.92855,17.044625 12.9101,6.807737 22.89488,16.445772 29.22588,29.612726 3.97811,8.273408 6.50671,17.064498 7.23694,26.245827 0.71503,8.989941 3.11428,17.607051 5.02439,26.356681 1.89742,8.69164 1.63993,17.57533 1.07402,26.48296 -0.56264,8.85636 -2.41145,17.41248 -4.48219,25.95766 -1.32117,5.4519 -2.83817,10.85995 -4.41343,16.24496 -0.64514,2.20544 -0.64822,4.023 0.57498,6.16509 3.00867,5.269 3.41592,11.1942 2.65,17.02145 -1.83537,13.96295 -7.89095,26.31055 -15.37772,38.03598 -2.7825,4.35781 -6.02782,8.26905 -10.51881,11.00448 -1.87115,1.13969 -2.09007,3.09722 -2.37706,5.03944 -1.72192,11.65196 -4.67923,22.87768 -11.87109,32.51581 -4.92808,6.60436 -11.30098,11.69322 -17.97332,16.39264 -14.82423,10.44094 -31.45894,16.89685 -48.74834,21.85678 -1.93566,0.55532 -3.94446,0.8559 -5.91946,1.27397 -3.5079,0.74256 -2.81784,3.50117 -2.84161,5.91667 -0.0203,2.01307 0.28179,3.50741 2.88052,3.86244 4.50756,0.61573 8.95548,1.66421 13.435,2.49556 0.40981,0.076 1.00759,0.0515 1.28173,-0.19224 3.5067,-3.11719 7.44366,-1.3358 11.09006,-0.74463 9.52423,1.54405 18.9673,3.58236 28.47937,5.20971 6.40722,1.09619 12.95988,1.45313 19.28896,2.85606 4.19237,0.92929 8.14506,3.03245 12.12036,4.80054 1.47649,0.65673 1.23284,1.7319 -0.11738,2.58669 -0.78702,0.49825 -1.47277,1.15646 -2.35783,1.9495 -0.15375,0.20681 -0.37997,0.26432 -0.57877,0.22702 -3.26934,-1.11274 -6.26548,-2.58761 -9.42669,-3.17646 -5.7219,-1.06586 -11.56946,-1.4397 -17.31567,-2.39624 -11.05034,-1.83954 -22.07512,-3.83819 -33.0882,-5.89057 -1.75922,-0.32783 -2.68908,0.18252 -3.36396,1.66277 -3.92608,8.61169 -9.05235,16.40633 -15.6015,23.27419 -6.3489,6.65784 -12.62715,13.37273 -21.524,17.14197 -1.07446,0.23989 -7.35523,2.33441 -8.46733,2.42992 -0.77657,-0.32703 -1.45086,-0.61876 -2.02182,-0.91047 0.42873,-0.51409 6.24727,-3.11791 6.77692,-3.48725 9.00588,-6.27992 17.77371,-12.91657 24.47062,-21.69121 4.33063,-5.67425 7.85953,-11.96842 11.61458,-18.06678 0.71136,-1.15528 1.15306,-2.88681 -0.62326,-3.7122 -1.80193,-0.83735 -2.49334,0.68296 -3.20482,1.94026 -2.28965,4.04597 -4.3817,8.22143 -6.91956,12.10538 -4.95887,7.58911 -11.14809,13.91265 -19.38925,18.07986 -9.0659,4.5842 -18.8365,4.32913 -28.32518,3.27615 -9.85811,-1.09399 -18.93216,-5.16927 -26.56395,-11.89922 -7.06545,-6.23056 -13.46832,-12.90322 -16.33662,-22.23472 -0.28912,-0.94062 -1.31085,-1.879 -2.23137,-2.31995 -0.56162,-0.269 -2.22067,0.32278 -2.27394,0.68957 -0.16287,1.12076 -0.10899,2.50129 0.43079,3.45947 4.06485,7.21546 9.0385,13.81586 14.79479,19.73023 7.94199,8.16002 21.0066,17.60029 30.53824,24.076 -3.05619,1.50755 -9.11076,-1.18101 -12.81051,-3.10475 -6.04231,-3.14178 -10.89852,-8.21867 -15.93318,-12.78771 -8.84396,-8.02612 -16.52747,-17.06843 -22.12646,-27.73261 -0.8176,-1.55727 -1.88964,-2.02056 -3.86888,-1.57735 -9.04575,2.02563 -18.16467,3.72147 -27.23669,5.63358 -8.02478,1.69136 -16.03527,3.45635 -24.02364,5.31129 -2.21149,0.51351 -4.32155,1.46373 -6.47814,2.2136 M 720.17365,164.60877 c 3.57614,0.67533 7.15228,1.35065 11.29472,2.13291 -1.0085,-1.32964 -1.71486,-2.26098 -2.75859,-3.3498 -5.65502,-5.26043 -12.37442,-8.88261 -19.46523,-11.59011 -6.8249,-2.60598 -13.91318,-4.59211 -20.99227,-6.44316 -7.36547,-1.92594 -14.81808,-3.58823 -22.30965,-4.93825 -5.13558,-0.92547 -10.39431,-1.23999 -15.61331,-1.61335 -8.06816,-0.5772 -16.1535,-1.36856 -24.22352,-1.28583 -4.45088,0.0456 -8.88539,1.68914 -13.71085,2.77595 -3.02546,1.18634 -6.05096,2.37268 -9.07641,3.55902 13.17446,1.35065 24.75617,5.71387 33.11279,16.98116 0.22887,0.47745 0.40819,0.98705 0.69398,1.42755 5.02482,7.74523 9.19424,15.75673 9.47896,25.3343 0.0928,3.11943 0.93176,2.98399 3.96457,2.64295 3.98198,-0.44773 8.14382,-0.72333 12.0435,-0.0314 3.20761,0.5692 6.2107,2.53568 9.17592,4.12297 1.48222,0.79341 2.40863,0.57173 3.00182,-0.79435 2.79458,-6.43604 7.11534,-11.77122 12.25583,-16.87013 0.58058,-0.8762 0.97258,-2.01805 1.77222,-2.58573 5.44263,-3.86382 11.18004,-7.15481 17.86399,-8.41339 2.84579,-0.53587 5.68346,-1.11473 8.95874,-1.65143 1.35269,0.1651 2.70539,0.33022 4.53279,0.59008 M 671.666,216.47001 c 0.008,-3.14785 -0.26087,-6.32834 0.10251,-9.43475 0.39502,-3.37747 -1.06496,-5.52303 -3.44949,-7.52414 -4.68269,-3.9298 -10.05595,-4.62042 -15.8014,-3.54794 -3.84735,0.71811 -6.97009,2.37616 -7.54878,6.81183 -0.0899,0.68932 -0.37519,1.3567 -0.59958,2.02435 -4.08515,12.15554 -12.01787,21.012 -23.41954,26.66441 -9.3484,4.63447 -19.25359,5.12028 -29.31302,2.82839 -15.72465,-3.58256 -25.7575,-13.68131 -31.37535,-28.34945 -3.19342,-8.33799 -3.53453,-17.01118 -1.27813,-25.75164 0.2473,-0.9579 -0.17766,-2.72138 -0.89036,-3.18061 -2.47557,-1.59502 -4.96548,-0.64275 -5.72493,2.1825 -1.44762,5.38534 -2.85366,10.79899 -3.88825,16.27433 -1.70724,9.03526 -3.15853,18.12038 -4.61644,27.20073 -1.01466,6.31957 -2.316,12.64052 -2.67595,19.00685 -0.56888,10.06064 2.3686,19.34502 7.33076,28.13769 5.19352,9.2026 12.10678,17.00928 19.25563,24.60092 3.90417,4.146 8.47406,7.68876 12.89397,11.32073 11.00349,9.04183 23.01471,16.41793 36.33931,21.57566 8.97346,3.47349 18.17246,6.1286 27.81846,6.51542 5.75043,0.23055 11.55757,-0.0142 17.29121,-0.55542 6.3485,-0.59863 12.74603,-1.33661 18.93921,-2.79244 15.07104,-3.54265 29.38046,-9.23298 42.74168,-17.07576 8.6202,-5.0599 16.51281,-11.12672 22.94623,-18.90398 5.47741,-6.62149 8.36412,-14.42223 10.06798,-22.68575 1.54919,-7.51349 2.83666,-15.0821 4.16984,-22.63872 1.36612,-7.74343 2.70646,-15.49243 3.94134,-23.25758 0.6117,-3.84637 0.96115,-7.73446 1.41159,-11.45779 -5.06509,-2.19471 -5.06174,-2.1939 -6.24935,2.72097 -0.10102,0.418 -0.35527,0.80425 -0.4242,1.22398 -2.46798,15.03907 -10.87972,25.82709 -24.07781,32.91166 -9.78554,5.25275 -20.2882,5.65203 -30.90273,3.0507 -8.65826,-2.12187 -16.16964,-6.35607 -21.78563,-13.43806 -2.67306,-3.37081 -5.02939,-6.99279 -7.45071,-10.89935 -1.26036,-4.36835 -2.52072,-8.73667 -3.77801,-13.55774 M 738.8798,35.389928 c -4.62061,-1.797934 -9.20533,-3.695657 -13.86886,-5.374377 -12.10894,-4.358787 -24.53425,-7.596504 -37.2422,-9.564277 -8.14569,-1.261334 -16.36454,-2.477311 -24.5822,-2.745297 -11.98738,-0.390889 -23.98961,-0.259985 -35.90115,2.041308 -12.95789,2.503443 -24.43835,7.738043 -34.13122,16.707196 -7.58241,7.016288 -13.14473,15.561633 -17.92325,24.62002 -5.27986,10.008687 -8.80621,20.706514 -11.726,31.595288 -1.31356,4.89865 -2.20236,9.911211 -3.30992,14.991491 0.65716,0 1.01604,0.11303 1.17259,-0.0162 2.17098,-1.80539 4.06376,-1.69661 6.00791,0.4733 0.44483,0.49649 1.86365,0.58671 2.59798,0.28634 8.75009,-3.57906 17.79329,-5.88487 27.16556,-7.21423 15.07303,-2.137915 30.14627,-3.248209 45.39957,-2.698076 11.85345,0.427535 23.52712,1.949396 35.15832,3.972496 21.16613,3.6816 41.45141,10.16822 60.74227,19.66664 11.4607,5.64305 22.82145,11.46143 32.40955,20.12777 1.84452,1.66726 3.60687,3.44698 5.58395,4.94085 2.85524,2.1574 7.39956,0.44449 7.83334,-2.96789 1.1404,-8.97051 2.58159,-17.9349 3.08136,-26.94728 0.76088,-13.72092 -0.10181,-27.355454 -4.67317,-40.53361 C 778.76227,65.473986 772.46728,55.91611 762.95185,48.600618 755.72332,43.043356 747.45979,39.350737 738.8798,35.390759 m 27.99529,107.120881 c -6.72572,-4.40479 -13.20816,-9.25118 -20.22925,-13.11987 -13.44003,-7.40556 -27.45842,-13.67613 -42.30871,-17.7122 -9.70317,-2.63716 -19.57929,-4.65519 -29.4119,-6.79448 -12.15298,-2.64412 -24.51772,-3.71288 -36.9114,-4.04375 -6.90988,-0.18454 -13.8441,0.52384 -20.76678,0.84249 -12.68104,0.58368 -25.22947,2.21609 -37.35916,6.00163 -7.87976,2.45918 -16.06778,4.72557 -20.0119,13.39179 -3.81111,8.37393 -9.85538,15.6873 -10.75303,25.42593 -0.75119,8.14972 4.8651,13.1421 11.59827,10.7098 6.93342,-2.5046 13.71454,-5.84054 19.9547,-9.77613 17.35961,-10.94848 36.1224,-16.63972 56.60867,-16.49778 5.94009,0.0411 11.8823,0.5802 17.81194,1.04092 3.96461,0.30807 7.95476,0.64074 11.85163,1.38869 6.67696,1.28159 13.30641,2.82657 19.92612,4.38688 13.89134,3.27424 26.99154,8.47475 39.14341,16.04589 11.87473,7.39845 20.20676,18.32095 29.13103,28.69589 3.3483,3.89261 6.98642,7.56683 10.76438,11.04521 1.7459,1.60747 3.97098,2.73847 6.71208,2.42326 5.77245,-0.66378 9.13306,-7.45754 8.97011,-12.25018 -0.24994,-7.35139 -0.82766,-14.70634 -1.64759,-22.01699 -0.36505,-3.2552 -0.87872,-6.9827 -2.71549,-9.46826 -2.69518,-3.64722 -6.63802,-6.37242 -10.35713,-9.71874 M 597.00553,357.33868 c 3.7697,7.23649 9.43858,12.80726 15.72173,17.81672 5.52837,4.40767 11.83415,7.56938 18.67033,8.91247 5.76567,1.13278 11.7989,0.94755 17.71899,1.23729 5.14579,0.25186 9.91889,-1.36013 14.48057,-3.48897 11.6658,-5.44412 18.25032,-15.57375 24.52943,-26.84897 -2.76073,-0.62183 -5.10908,-1.20923 -7.48225,-1.66833 -2.2453,-0.4344 -3.46628,0.88945 -3.03812,3.16366 0.45608,2.42257 -0.5539,4.57288 -2.4027,4.63125 -2.38986,0.0754 -3.19068,-1.95599 -3.42068,-3.71487 -0.58421,-4.46773 -0.90719,-8.97877 -1.12699,-13.48262 -0.2348,-4.81213 -0.13106,-4.8179 -5.0164,-4.3852 -0.35473,0.0314 -0.70744,0.1187 -1.06142,0.12073 -9.16388,0.0531 -18.38703,0.74947 -27.47146,-0.0774 -6.3514,-0.57805 -12.51027,-3.25101 -18.76234,-4.96198 -1.04944,-0.28719 -2.13553,-0.44058 -3.29343,-0.6737 -0.2675,1.9515 -0.5836,3.50311 -0.67457,5.06774 -0.24135,4.15066 -0.35641,8.30857 -0.58111,12.46039 -0.10433,1.92902 -0.29497,3.85725 -0.54114,5.77369 -0.24206,1.88452 -1.17931,3.14093 -3.29006,3.06346 -2.0628,-0.0758 -2.73195,-1.34698 -2.70126,-3.19774 0.0122,-0.71337 0.0221,-1.42719 0.0541,-2.13981 0.0922,-2.05125 -0.61451,-3.2466 -2.92632,-2.85059 -2.69413,0.46144 -5.395,0.88349 -8.5028,1.38938 0.35276,1.35259 0.6316,2.42168 1.11791,3.85322 m -5.64091,-125.99526 c 2.70128,0.45068 5.38828,1.14997 8.10649,1.30626 8.7354,0.50218 16.922,-1.39754 24.39334,-6.09437 12.51452,-7.86724 18.96969,-19.39227 19.97509,-33.92689 0.51681,-7.47145 -1.46052,-14.53682 -4.81873,-21.29566 -7.26412,-14.62002 -25.1832,-24.29653 -41.58173,-22.01792 -10.88353,1.5123 -19.89496,6.03404 -26.98815,14.38291 -9.10872,10.72122 -11.93094,23.21072 -8.86733,36.65409 3.61325,15.85539 13.84928,26.00624 29.78102,30.99158 m 119.25223,21.18809 c 2.29848,0.17118 4.63008,0.67364 6.88897,0.44814 5.65002,-0.56413 11.19545,-1.60205 16.40752,-4.14242 8.91567,-4.34548 15.57692,-10.95159 19.67247,-19.88228 3.45459,-7.53309 4.79329,-15.50323 3.48746,-23.88056 -1.26912,-8.1422 -4.34535,-15.42064 -9.86161,-21.46651 -9.64228,-10.568 -21.5417,-15.47471 -36.01712,-13.87739 -9.22491,1.01794 -17.20298,4.71632 -23.70416,11.06155 -11.11143,10.84486 -14.98385,24.23343 -11.99366,39.42794 1.65795,8.42481 5.91697,15.65723 12.16074,21.48955 6.30535,5.88982 13.90921,9.44603 22.95939,10.82198 m 63.41915,-8.44456 c 2.44679,-4.61722 5.07078,-9.1507 7.30145,-13.87007 3.97618,-8.4121 6.46918,-17.23995 6.03893,-26.64867 -0.0563,-1.23148 -1.27007,-2.41002 -1.9477,-3.61311 -0.91461,0.93697 -2.10273,1.72776 -2.69527,2.8368 -2.27507,4.25833 -4.28765,8.65631 -6.5369,12.92919 -1.83638,3.48855 -4.72477,6.66136 -5.63832,10.34794 -1.8796,7.58486 -2.77088,15.41645 -4.00526,23.15664 -0.12912,0.80955 0.16862,1.68718 0.26832,2.53324 0.96704,-0.48067 2.2133,-0.72882 2.84559,-1.48822 1.52641,-1.83332 2.76596,-3.9055 4.36916,-6.18374 m -229.9978,-73.23245 c -0.16895,-4.36128 -0.26333,-8.72756 -0.55658,-13.08047 -0.0794,-1.17741 -0.76101,-2.31426 -1.16622,-3.46971 -0.97945,0.79501 -2.26147,1.40217 -2.8901,2.41492 -4.73728,7.63189 -5.42448,16.28098 -5.33228,24.88284 0.065,6.06747 1.20765,12.13909 2.09513,18.1756 0.46211,3.14334 1.41332,6.21472 2.14361,9.31862 0.32671,-0.006 0.65342,-0.0122 0.98012,-0.0162 0.50169,-1.27456 1.20988,-2.5081 1.47262,-3.83015 2.2223,-11.18228 4.15254,-22.40079 3.2537,-34.39469 M 679.76783,9.9888999 c -0.36176,0.7624111 -0.72354,1.5248231 -1.17704,2.4805521 0.81172,0.40199 1.39175,0.861329 2.03517,0.981577 7.3553,1.374594 14.7217,2.689549 22.08139,4.040603 1.58412,0.290796 2.45051,-0.286421 2.30935,-1.919156 -0.0739,-0.85517 -0.31439,-1.748871 -0.69819,-2.51582 -2.56561,-5.1265062 -7.39415,-6.6491819 -12.48685,-7.2086132 -4.36541,-0.4795356 -8.7492,-0.1002746 -12.06383,4.1408571 M 563.40428,169.7589 c 1.43488,-2.31627 2.89575,-4.61726 4.27818,-6.96441 0.22132,-0.3757 0.28543,-1.10002 0.0646,-1.40138 -0.18616,-0.25413 -0.92271,-0.25609 -1.36128,-0.14848 -1.97012,0.48373 -3.90632,1.10908 -5.88183,1.56635 -3.16319,0.73219 -4.63996,2.32777 -4.70077,5.52325 -0.0122,0.64704 0.43168,1.70469 0.92285,1.88982 2.12924,0.80266 4.35889,1.55871 6.67813,-0.46525 m 194.82269,25.67855 c 0.53291,3.25779 0.77041,6.6031 1.70082,9.74309 0.63906,2.15688 5.47266,3.06016 6.64567,1.60966 0.98341,-1.21601 0.67943,-5.67303 -0.70115,-6.69265 -2.32666,-1.71832 -4.82951,-3.19811 -7.64534,-4.6601 m 31.51921,-36.47842 c 0.61603,-3.85188 1.23206,-7.70379 1.84809,-11.55569 -0.28189,-0.0446 -0.56375,-0.0891 -0.84565,-0.1337 -1.03139,5.39719 -2.06279,10.79433 -3.09418,16.19152 0.31899,0.067 0.63801,0.13431 0.95704,0.20136 0.37107,-1.4164 0.74217,-2.83283 1.1347,-4.70363 z"
         style="fill:#000000;stroke:none;stroke-width:0.535979" />
      <path
         id="path1049"
         d="m 522.40387,365.95004 c 2.2702,-0.8891 3.91254,-1.51191 6.12403,-2.02542 7.98837,-1.85494 15.99886,-3.61993 24.02364,-5.31129 9.07202,-1.91211 18.19096,-3.60795 27.23669,-5.63358 1.97924,-0.44321 3.05128,0.0203 3.86888,1.57735 5.59899,10.66418 13.2825,19.70649 22.12648,27.73261 5.03466,4.56904 8.8363,7.72517 14.24644,11.86167 l 2.80895,1.46025 c 0.89845,0.73059 -17.63895,-0.69513 -28.89201,-2.75765 -23.72663,-4.34884 -46.2406,-12.30445 -67.46487,-23.83934 -1.5404,-0.83716 -2.90691,-2.19449 -4.55447,-2.83446 0.0897,-0.21738 0.27306,0.12647 0.47624,-0.23014 z"
         style="fill:#959798;stroke:none;stroke-width:0.535979" />
      <path
         id="path1051"
         d="m 637.29947,397.97002 c 1.49852,0.0599 -5.76592,0.23778 -6.75385,-2.31988 -9.71605,-6.32307 -18.61459,-13.38395 -26.5566,-21.54397 -5.75629,-5.91437 -10.72994,-12.51477 -14.79479,-19.73023 -0.53982,-0.95818 -0.59358,-2.33871 -0.43077,-3.45947 0.0533,-0.36679 1.7123,-0.95857 2.27394,-0.68957 0.9205,0.44095 1.94223,1.37933 2.23137,2.31995 2.86828,9.3315 9.27115,16.00416 16.3366,22.23472 7.63179,6.72995 16.70584,10.80523 26.56395,11.89922 9.48868,1.05298 19.25928,1.30805 28.32518,-3.27615 8.24116,-4.16721 14.43038,-10.49075 19.38925,-18.07986 2.53788,-3.88395 4.62991,-8.05941 6.91956,-12.10538 0.7115,-1.2573 1.40289,-2.77761 3.20482,-1.94026 1.77632,0.82539 1.33462,2.55692 0.62326,3.7122 -3.75505,6.09836 -7.28395,12.39253 -11.61458,18.06678 -6.69691,8.77464 -16.96145,17.02493 -25.96733,23.30485 -1.79401,1.10774 -7.96373,1.67316 -11.57572,1.87236 l -12.85151,-0.45234 z"
         style="fill:#f9f9f9;stroke:none;stroke-width:0.535979" />
      <path
         id="path1061"
         d="m 675.36553,230.42618 c 2.49982,3.50819 4.85615,7.13017 7.52921,10.50098 5.61599,7.08199 13.12737,11.31619 21.78563,13.43806 10.61453,2.60133 21.11719,2.20205 30.90273,-3.0507 13.19808,-7.08457 21.60983,-17.87259 24.07781,-32.91166 0.0689,-0.41973 0.32318,-0.80598 0.4242,-1.22398 1.1876,-4.91487 1.18426,-4.91568 6.24935,-2.72096 -0.45044,3.72332 -0.79989,7.61141 -1.4116,11.45778 -1.23487,7.76515 -2.57521,15.51415 -3.94133,23.25758 -1.33318,7.55662 -2.62066,15.12523 -4.16984,22.63872 -1.70386,8.26352 -4.59057,16.06426 -10.06798,22.68575 -6.43343,7.77726 -14.32603,13.84408 -22.94623,18.90398 -13.36122,7.84278 -27.67064,13.53311 -42.74168,17.07576 -6.19318,1.45583 -12.59071,2.19381 -18.93921,2.79244 -5.73364,0.54063 -11.54078,0.78597 -17.29122,0.55542 -9.64599,-0.38682 -18.84499,-3.04193 -27.81845,-6.51542 -13.3246,-5.15772 -25.33582,-12.53383 -36.33932,-21.57566 -4.4199,-3.63197 -8.98979,-7.17473 -12.89396,-11.32073 -7.14885,-7.59164 -14.06211,-15.39832 -19.25563,-24.60092 -4.96216,-8.79267 -7.89964,-18.07704 -7.33077,-28.13769 0.35996,-6.36633 1.6613,-12.68728 2.67596,-19.00685 1.45791,-9.08035 2.9092,-18.16547 4.61644,-27.20073 1.03459,-5.47534 2.44063,-10.88899 3.88825,-16.27433 0.75945,-2.82525 3.24936,-3.77752 5.72493,-2.1825 0.71272,0.45924 1.13766,2.22271 0.89036,3.18061 -2.2564,8.74046 -1.91529,17.41365 1.27813,25.75164 5.61785,14.66814 15.6507,24.76689 31.37535,28.34945 10.05943,2.2919 19.96462,1.80608 29.31302,-2.82839 11.40167,-5.65241 19.33439,-14.50887 23.41954,-26.66441 0.22439,-0.66765 0.50963,-1.33503 0.59958,-2.02435 0.57869,-4.43567 3.70143,-6.09372 7.54878,-6.81183 5.74545,-1.07248 11.11871,-0.38186 15.8014,3.54794 2.38453,2.00112 3.84451,4.14667 3.44949,7.52414 -0.36332,3.10641 -0.0934,6.2869 -0.141,9.92338 -0.18252,6.90184 -0.2648,13.31721 -0.49015,19.72755 -0.18353,5.22373 -1.70228,7.20023 -6.75118,8.80381 -6.80141,2.1602 -13.39815,0.73867 -19.84214,-1.56756 -2.78695,-0.99744 -5.40604,-2.46396 -8.10136,-3.71742 -0.20772,0.13573 -0.41548,0.27141 -0.62323,0.40714 0.41403,1.17396 0.53513,2.60998 1.30248,3.46792 1.64268,1.83653 3.40618,3.73887 5.5006,4.96398 5.63544,3.29636 11.88168,3.85075 18.30653,3.42613 7.21726,-0.47696 11.33184,-3.7795 12.87216,-10.79354 0.35966,-1.6377 0.35601,-3.35211 0.58761,-5.02177 0.28869,-2.08138 0.64798,-4.15296 0.97676,-6.22876 m -116.72962,7.88529 c 0.88582,0.95038 1.7716,1.90074 2.64455,2.86154 0,0 0.0142,-0.0122 0.0391,0.36753 2.44597,4.47952 4.89192,8.959 7.40033,13.55286 2.22679,-3.54152 0.97923,-11.36714 -2.22693,-14.66299 -0.10291,-0.14586 -0.23815,-0.24953 -0.42855,-0.68351 -1.05162,-0.96081 -2.10329,-1.92163 -3.3845,-3.00283 -0.14241,-0.10737 -0.24327,-0.24524 -0.31014,-0.8041 -1.88038,-3.2628 -3.73123,-6.5433 -5.6671,-9.77281 -0.36875,-0.61514 -1.07363,-1.02874 -1.62341,-1.53534 -0.42766,0.70851 -1.16167,1.38762 -1.23288,2.13028 -0.43669,4.55642 1.1563,8.31796 4.75434,11.19501 0,0 0.0142,-0.0122 0.0353,0.35436 m 185.94654,26.9733 c 0,0 -0.0197,-0.0142 -0.41982,-0.008 -9.61381,2.89569 -17.79058,11.90273 -16.06689,18.94541 1.45898,-2.19992 2.55506,-3.85261 3.79324,-5.80406 0.48778,-0.43466 0.97555,-0.86933 1.85296,-1.31412 3.90201,-2.39229 7.76565,-4.8504 11.71828,-7.15584 3.12376,-1.82203 4.91639,-4.55116 5.80107,-7.9276 0.2445,-0.93308 0.0372,-1.98452 0.0372,-2.98166 -0.37598,-0.10007 -0.75195,-0.19994 -1.12793,-0.29993 -0.96515,1.29654 -1.93027,2.5931 -3.17675,4.02245 -0.26289,0.31156 -0.52574,0.62312 -1.15394,0.96069 -0.426,0.51422 -0.85196,1.02848 -1.25741,1.56234 m -87.62635,28.32802 c -0.24956,-0.093 -0.49427,-0.25034 -0.74929,-0.26931 -8.4443,-0.62921 -16.65756,-2.35653 -24.70307,-4.99165 -0.95906,-0.31407 -2.16733,0.13269 -3.64123,0.33595 -1.77302,3.4188 -3.94559,6.69517 -5.22717,10.28922 -2.01706,5.65664 -1.12518,11.20098 1.91614,16.45166 3.07007,5.30036 9.08557,5.11952 13.67842,7.56622 0.68794,0.36648 1.88206,-0.29993 2.84986,-0.35823 1.82496,-0.11 3.65656,-0.10514 5.48351,-0.189 0.78801,-0.0363 1.67059,0.0288 2.34118,-0.29854 5.55527,-2.71167 9.91582,-6.71018 10.75708,-13.04531 0.54296,-4.08899 -0.004,-8.34828 -0.33798,-12.50907 -0.0778,-0.96729 -1.27954,-1.84428 -2.36745,-2.98186 m 9.92917,-14.72526 c 7.90963,0.34687 15.82788,0.89422 24.01858,-0.42967 -0.44259,-0.94136 -0.53437,-1.29901 -0.74501,-1.56112 -7.255,-9.02798 -16.6208,-14.23906 -28.21225,-14.8245 -7.62954,-0.38532 -15.31196,0.15456 -22.48739,-3.33076 -1.56663,-0.76098 -3.41517,-1.00044 -5.16317,-1.3196 -10.69608,-1.9529 -20.70145,-0.0162 -30.71877,5.62492 20.30001,9.34803 41.26033,13.72671 63.30801,15.84073 m -20.05327,0.37729 c -19.20008,-3.35887 -37.27456,-9.7343 -54.0923,-19.47755 0.0746,-0.45502 0.14889,-0.91005 0.22346,-1.36507 2.62981,0 5.26452,0.0885 7.88613,-0.0579 0.71507,-0.0399 1.39068,-0.78648 2.08439,-1.2087 -0.67281,-0.47577 -1.31209,-1.30183 -2.02398,-1.37006 -4.38452,-0.4202 -8.75931,-0.33951 -12.86164,1.55574 -2.89704,1.33845 -4.7092,3.64076 -4.73474,6.86964 -0.0101,1.2332 0.90759,2.47373 1.40244,3.71093 0.46568,-1.08632 1.18849,-2.13603 1.34936,-3.26575 0.50376,-3.53795 1.3766,-4.02152 4.64267,-2.47488 7.80828,3.69756 15.48419,7.73987 23.49991,10.92155 21.77355,8.64264 44.42341,12.34438 67.84228,10.61277 6.20994,-0.45922 12.38252,-1.44953 18.5637,-2.26121 3.49715,-0.45927 3.73773,-0.31297 3.72175,3.10546 -10e-4,0.26764 -0.0974,0.56478 -0.0122,0.79723 0.2548,0.68939 0.57862,1.35325 0.87545,2.02707 0.59727,-0.55455 1.48226,-0.99963 1.74227,-1.68261 1.15676,-3.03844 0.1183,-6.97873 -2.84973,-8.77936 -3.08305,-1.87033 -6.54024,-3.15085 -9.90867,-4.5028 -0.73213,-0.29383 -1.78252,0.20531 -2.68631,0.33924 -0.0435,0.35458 -0.0871,0.70913 -0.13066,1.06372 2.86018,1.29613 5.72037,2.59229 8.58057,3.88843 -0.0462,0.26486 -0.0924,0.52973 -0.13856,0.79462 -1.07282,0.26482 -2.13281,0.67259 -3.22062,0.77015 -5.23715,0.46969 -10.48607,0.80868 -15.72294,1.28122 -11.24632,1.01478 -22.43866,0.74894 -34.03271,-1.29176 z"
         style="fill:#f7e5ce;stroke:none;stroke-width:0.535979" />
      <path
         id="path1069"
         d="m 676.72712,395.52319 c -3.93312,0.4798 -7.65398,0.944 -11.38239,1.33637 -0.81739,0.0861 -2.15277,-0.002 -3.19707,-0.11161 8.5165,-3.71827 15.28586,-10.51501 21.63476,-17.17285 6.54915,-6.86786 11.67542,-14.6625 15.6015,-23.27419 0.67488,-1.4803 1.60474,-1.9906 3.36396,-1.66278 11.01308,2.05239 22.03786,4.05104 33.0882,5.89058 5.74621,0.95654 11.59377,1.33037 17.31567,2.39624 3.16121,0.58885 6.15736,2.06372 9.42669,3.17646 -13.1088,7.27018 -26.63042,14.10484 -41.13577,18.57907 -11.12383,3.43114 -22.44295,6.24519 -33.72695,9.13146 -3.50601,0.89678 -7.18126,1.13174 -10.9886,1.71119 z"
         style="fill:#959798;stroke:none;stroke-width:0.535979" />
      <path
         id="path1075"
         d="m 773.91197,244.23734 c -1.47921,2.12708 -2.71876,4.19926 -4.24517,6.03258 -0.6323,0.7594 -1.87855,1.00755 -2.8456,1.48822 -0.0997,-0.84605 -0.39744,-1.72369 -0.26831,-2.53324 1.23438,-7.74019 2.12566,-15.57178 4.00526,-23.15664 0.91355,-3.68658 3.80194,-6.85939 5.63832,-10.34794 2.24925,-4.27287 4.26183,-8.67086 6.5369,-12.92919 0.59253,-1.10904 1.78066,-1.89983 2.69527,-2.8368 0.67763,1.20309 1.8914,2.38164 1.9477,3.61311 0.43025,9.40872 -2.06276,18.23658 -6.03893,26.64867 -2.23068,4.71937 -4.85467,9.25286 -7.42544,14.02123 m 11.35062,-35.88508 c 0,-1.30335 0,-2.60669 0,-3.91002 -0.30107,-0.0318 -0.6021,-0.0638 -0.90316,-0.0956 -0.37948,1.11358 -0.98916,2.21472 -1.05017,3.34545 -0.0353,0.65399 0.1073,2.62055 1.95333,0.66025 z"
         style="fill:#d0a997;stroke:none;stroke-width:0.535979" />
      <path
         id="path1077"
         d="m 544.03906,171.10884 c 0.89799,11.73938 -1.03225,22.95787 -3.25455,34.14015 -0.26274,1.32207 -0.97093,2.55559 -1.47262,3.83017 -0.3267,0.006 -0.65341,0.0122 -0.98012,0.0162 -0.73029,-3.10388 -1.6815,-6.17528 -2.14361,-9.3186 -0.88748,-6.03653 -2.03011,-12.10815 -2.09513,-18.17562 -0.0922,-8.60184 0.595,-17.25095 5.33228,-24.88284 0.62863,-1.01275 1.91065,-1.61991 2.8901,-2.41492 0.40521,1.15547 1.08689,2.2923 1.16622,3.46973 0.29325,4.35289 0.38753,8.71917 0.55743,13.33497 m -3.33947,-14.16585 c -1.80568,2.69943 -3.19864,5.54401 -3.56227,9.06768 4.79728,-1.8407 5.06957,-2.15588 4.88921,-6.63243 -0.0367,-0.91181 -0.65259,-1.80028 -1.32694,-2.43525 z"
         style="fill:#cfa996;stroke:none;stroke-width:0.535979" />
      <path
         id="path1079"
         d="m 612.33662,140.31378 c 1.06022,0.52848 1.7797,1.34695 2.73895,1.57555 9.84032,2.34508 19.69871,4.61707 29.5763,6.79923 1.90621,0.42109 2.56479,1.21922 2.03675,3.10244 -0.72045,2.5695 -1.36935,5.15951 -2.02366,7.74715 -0.46069,1.82188 -1.36025,2.47912 -3.30013,1.76693 -1.53851,-0.56484 -3.40742,-0.65382 -5.24035,-0.88615 -8.52708,-10.83182 -19.9425,-15.23314 -33.11957,-16.56203 3.02315,-1.19478 6.11695,-2.26597 9.33171,-3.54312 z"
         style="fill:#653f23;fill-opacity:1;stroke:none;stroke-width:0.536594" />
      <path
         id="path1081"
         d="m 675.4457,230.03337 c -0.36802,2.27499 -0.76824,4.54019 -1.05693,6.62157 -0.2316,1.66966 -0.22795,3.38407 -0.58761,5.02177 -1.54032,7.01404 -5.6549,10.31658 -12.87216,10.79354 -6.42485,0.42462 -12.67109,-0.12985 -18.30653,-3.42613 -2.09442,-1.22511 -3.85792,-3.12745 -5.5006,-4.96398 -0.76735,-0.85794 -0.88845,-2.29396 -1.30248,-3.46792 0.20774,-0.13573 0.41551,-0.27143 0.62323,-0.40714 2.69532,1.25346 5.31441,2.71998 8.10136,3.71742 6.44399,2.30623 13.04073,3.72776 19.84214,1.56756 5.0489,-1.60358 6.56757,-3.58008 6.75118,-8.80381 0.22535,-6.41034 0.34497,-13.54025 0.52607,-20.21573 1.29738,4.10608 2.56123,8.99533 3.78233,13.56285 z"
         style="fill:#ce9182;stroke:none;stroke-width:0.535979" />
      <path
         id="path1085"
         d="m 686.87175,176.71433 c -0.14018,-0.12944 -0.0203,-0.41222 -0.0843,-0.46282 -2.65553,-2.1022 -1.20882,-4.61567 -0.73903,-7.04112 1.53037,-7.90098 -0.13897,-6.28174 7.93069,-6.50129 6.98408,-0.19001 14.2434,0.81138 21.3596,1.34177 -2.72354,0.75416 -5.81083,1.0834 -8.65662,1.61927 -6.68395,1.25858 -12.42136,4.54958 -17.86399,8.41339 -0.79964,0.56768 -1.19164,1.70953 -1.9464,2.6308 z"
         style="fill:#653f23;fill-opacity:1;stroke:none;stroke-width:0.535979" />
      <path
         id="path1087"
         d="m 563.31215,169.94691 c -2.22711,1.83517 -4.45675,1.07911 -6.586,0.27645 -0.49116,-0.18515 -0.93517,-1.24278 -0.92285,-1.88982 0.0608,-3.19548 1.53758,-4.79106 4.70077,-5.52325 1.97552,-0.45727 3.91171,-1.08262 5.88183,-1.56635 0.43858,-0.10777 1.17516,-0.10575 1.36129,0.14849 0.2207,0.30135 0.15659,1.02567 -0.0646,1.40137 -1.38243,2.34716 -2.8433,4.64815 -4.37031,7.15321 z"
         style="fill:#f0dec8;stroke:none;stroke-width:0.535979" />
      <path
         id="path1089"
         d="m 758.42054,195.37759 c 2.62226,1.52106 5.12511,3.00085 7.45177,4.71917 1.38058,1.01962 1.68456,5.47664 0.70115,6.69266 -1.17301,1.45049 -6.00661,0.54721 -6.64567,-1.60967 -0.93041,-3.13999 -1.16791,-6.48529 -1.50725,-9.80216 z"
         style="fill:#f0dec8;stroke:none;stroke-width:0.535979" />
      <path
         id="path1093"
         d="m 719.97162,164.59671 c 2.28904,0.033 4.81575,0.16814 7.34168,0.15497 0.62193,-0.004 1.24138,-0.48898 1.81556,-0.95998 0.65997,0.72424 1.36633,1.65558 2.37483,2.98522 -4.14244,-0.78226 -7.71858,-1.45759 -11.53207,-2.18029 z"
         style="fill:#653f23;fill-opacity:1;stroke:none;stroke-width:0.535979" />
      <path
         id="path1095"
         d="m 666.6388,278.86266 c -21.80121,-2.08913 -42.76151,-6.46783 -63.06152,-15.81586 10.0173,-5.64109 20.02269,-7.57783 30.71875,-5.6249 1.748,0.31915 3.59654,0.55862 5.16317,1.31957 7.17543,3.48529 14.85785,2.94544 22.48741,3.33078 11.59143,0.58544 20.95722,5.7965 28.21223,14.8245 0.21065,0.2621 0.30242,0.61976 0.74501,1.56113 -8.19068,1.32389 -16.10895,0.77651 -24.26505,0.40478 m -45.94315,-12.1943 c 1.82676,-1.04231 3.6535,-2.08464 5.48024,-3.12695 0.21335,0.28147 0.42668,0.56295 0.64002,0.84445 -0.88822,1.08226 -1.77645,2.16452 -2.98442,3.63641 2.48709,0.74126 4.75579,1.36815 6.98977,2.10086 1.45052,0.47575 2.48316,0.36731 3.31012,-1.1486 0.33333,-0.61109 1.35567,-0.84634 2.06446,-1.25264 -0.0452,0.79142 -0.0895,1.58288 -0.13593,2.37422 -0.0142,0.25684 -0.0352,0.51334 -0.0859,1.24211 11.47444,2.74734 23.08323,4.52791 35.36407,5.33295 -0.95459,-2.14272 -1.61308,-3.62085 -2.27155,-5.09896 0.32489,-0.20796 0.64976,-0.41595 0.97463,-0.62391 0.81587,1.15577 1.91946,2.20659 2.38747,3.48934 0.96213,2.63694 2.67119,2.93895 5.51583,2.19937 -0.7018,-1.56296 -1.36845,-2.87334 -1.86849,-4.24449 -0.20859,-0.57201 -0.0626,-1.27329 -0.078,-1.91577 0.6401,0.30994 1.48581,0.4585 1.8804,0.96117 1.03858,1.32302 1.79437,2.86697 2.82295,4.1992 1.37133,1.77614 3.01259,1.91004 4.95136,0.42379 -0.47845,-0.60402 -0.80151,-1.12354 -1.2288,-1.53485 -9.24774,-8.90103 -20.60705,-10.89443 -32.86396,-10.183 -2.11897,0.12296 -4.49599,-0.0482 -6.39033,-0.89593 -10.45593,-4.6787 -21.09878,-5.3019 -32.02124,-2.09459 -0.9266,0.27208 -1.76731,0.83654 -3.02398,1.44817 4.66875,3.28854 6.96123,-2.05553 11.19235,-2.0788 -0.81694,1.14313 -1.28613,1.84924 -1.80668,2.51521 -0.61674,0.78905 -1.27773,1.54352 -1.91954,2.31298 0.90644,0.41654 1.81288,0.83309 3.10505,1.11826 z"
         style="fill:#341714;stroke:none;stroke-width:0.535979" />
      <path
         id="path1097"
         d="m 647.06336,279.28724 c 11.3627,2.0183 22.55503,2.28412 33.80135,1.26934 5.23685,-0.47255 10.4858,-0.81152 15.72295,-1.28123 1.08781,-0.0974 2.1478,-0.50532 3.2206,-0.77013 0.0462,-0.26489 0.0924,-0.52977 0.13856,-0.79462 -2.8602,-1.29616 -5.7204,-2.59229 -8.58059,-3.88843 0.0435,-0.35459 0.0871,-0.70913 0.13066,-1.06372 0.90378,-0.1339 1.95418,-0.63309 2.6863,-0.33925 3.36844,1.35196 6.82563,2.63246 9.90868,4.5028 2.96805,1.80062 4.00649,5.74091 2.8497,8.77936 -0.26,0.683 -1.14497,1.12806 -1.74226,1.68262 -0.29684,-0.67384 -0.62065,-1.3377 -0.87543,-2.02706 -0.0859,-0.23248 0.0101,-0.52961 0.0122,-0.79724 0.0162,-3.41843 -0.22459,-3.56473 -3.72177,-3.10547 -6.18115,0.8117 -12.35375,1.802 -18.56367,2.2612 -23.41887,1.73163 -46.06873,-1.9701 -67.84229,-10.61274 -8.01571,-3.18171 -15.69162,-7.22401 -23.4999,-10.92158 -3.26608,-1.54662 -4.13891,-1.06307 -4.6427,2.4749 -0.16084,1.12971 -0.88365,2.17943 -1.34933,3.26574 -0.49485,-1.23719 -1.41221,-2.47772 -1.40245,-3.71093 0.0255,-3.22889 1.8377,-5.53117 4.73475,-6.86965 4.10233,-1.89523 8.47712,-1.97594 12.86161,-1.55571 0.71191,0.0683 1.35118,0.89426 2.02401,1.37003 -0.69374,0.42223 -1.36933,1.16874 -2.0844,1.20873 -2.62162,0.14646 -5.25633,0.0579 -7.88612,0.0579 -0.0745,0.45501 -0.14889,0.91005 -0.22348,1.36505 16.81776,9.74328 34.89224,16.11868 54.32368,19.49998 z"
         style="fill:#0d0c0b;stroke:none;stroke-width:0.535979" />
      <path
         id="path1099"
         d="m 657.3594,293.83183 c 0.68461,0.91853 1.8864,1.79552 1.96417,2.76284 0.33447,4.16077 0.88092,8.42005 0.33796,12.50905 -0.84124,6.33513 -5.20179,10.33366 -10.75708,13.04531 -0.67059,0.32734 -1.55317,0.26239 -2.34116,0.29855 -1.82697,0.0839 -3.65855,0.0792 -5.48353,0.189 -0.96778,0.0583 -2.16192,0.72469 -2.84984,0.35822 -4.59287,-2.44669 -10.60837,-2.26585 -13.67844,-7.5662 -3.0413,-5.25071 -3.9332,-10.79505 -1.91614,-16.45169 1.28157,-3.59405 3.45415,-6.87041 5.57337,-10.22427 5.06018,4.01717 10.54016,6.2097 16.63903,6.23652 4.16877,0.0182 8.34099,-0.74408 12.51166,-1.15741 m -23.67257,23.17116 c 3.50256,3.97343 7.48065,3.26344 11.61125,1.19754 0.55453,-0.27734 1.15383,-0.48776 1.75467,-0.64309 0.50419,-0.13026 1.14293,-0.35025 1.54591,-0.15902 2.02666,0.96134 3.17729,-0.34622 4.39367,-1.54194 3.50392,-3.44445 4.40615,-7.72911 4.26791,-12.47046 -0.1574,-5.4009 -0.0494,-5.48624 -5.37198,-5.35872 -6.36927,0.15274 -12.66688,-0.0932 -18.61769,-2.67827 -5.83817,-2.5362 -5.82164,-2.57515 -7.74679,3.70779 -0.0523,0.17037 -0.12357,0.33535 -0.17016,0.50713 -1.30657,4.80642 -1.38272,9.43961 1.90678,13.39056 1.06414,-0.0407 2.05733,-0.0365 2.67707,0.44678 1.25851,0.98137 2.31516,2.22164 3.74936,3.6018 z"
         style="fill:#301410;stroke:none;stroke-width:0.535979" />
      <path
         id="path1101"
         d="m 657.15774,293.72232 c -3.96901,0.52284 -8.14123,1.28527 -12.31,1.26692 -6.09887,-0.0267 -11.57885,-2.21935 -16.44843,-6.29103 0.93711,-0.21361 2.14539,-0.66045 3.10442,-0.34636 8.04552,2.63511 16.2588,4.36243 24.70308,4.99163 0.25504,0.0182 0.49975,0.17644 0.95093,0.37884 z"
         style="fill:#c98c7e;stroke:none;stroke-width:0.535979" />
      <path
         id="path1103"
         d="m 733.35229,277.11446 c -0.48775,0.43467 -0.97551,0.86933 -1.71854,1.4601 -0.73984,0.25962 -1.22446,0.36316 -1.94073,0.51616 1.16252,-4.16656 3.43666,-7.00196 7.12182,-8.91028 2.70489,-1.40067 5.17382,-3.25698 7.74792,-4.91026 0,0 0.0196,0.0142 0.19402,-0.002 0.59903,-0.53509 1.02375,-1.05325 1.44844,-1.5714 0.26285,-0.31158 0.5257,-0.62314 1.12518,-1.004 1.04144,-0.14687 1.74625,-0.22433 2.6005,-0.31827 -0.62882,3.80157 -3.45024,5.24548 -5.96565,7.01489 -3.57838,2.51722 -7.07907,5.14492 -10.61295,7.72539 z"
         style="fill:#d4ae9a;stroke:none;stroke-width:0.535979" />
      <path
         id="path1105"
         d="m 566.08724,240.11941 c 0.16753,0.0614 0.30285,0.1651 0.47271,0.6321 0.67626,3.29026 2.63194,6.01812 1.6251,9.36895 -1.28937,-1.48592 -2.12649,-3.19179 -3.22092,-4.71248 -1.08856,-1.51253 -2.4356,-2.83901 -3.6693,-4.24707 0,0 -0.0142,0.0122 -0.0101,-0.18778 -0.88672,-1.14267 -1.77857,-2.08555 -2.67043,-3.02844 0,0 -0.0142,0.0121 -0.0101,-0.19022 -0.76261,-1.58195 -1.72067,-2.89293 -2.2472,-4.35891 -0.59689,-1.66194 -0.80714,-3.46273 -1.18549,-5.20316 0.18475,0.0142 0.36966,0.0294 0.55451,0.044 2.21659,2.69804 4.43321,5.39607 6.64981,8.09411 0.0593,0.16814 0.16023,0.30605 0.42727,0.66042 1.17732,1.20742 2.22998,2.16791 3.28266,3.12838 z"
         style="fill:#d3ad99;stroke:none;stroke-width:0.535979" />
      <path
         id="path1107"
         d="m 733.54714,277.10938 c 3.33904,-2.5754 6.83973,-5.2031 10.41811,-7.7203 2.51541,-1.76941 5.33683,-3.21333 5.96565,-7.01491 -0.85425,0.094 -1.55907,0.17138 -2.45983,0.25188 0.76922,-1.29366 1.73434,-2.5902 2.69949,-3.88677 0.37598,0.0999 0.75195,0.19995 1.12793,0.29994 0,0.99715 0.20731,2.0486 -0.0372,2.98168 -0.88468,3.37642 -2.67732,6.10555 -5.80108,7.92757 -3.95262,2.30547 -7.81626,4.76357 -11.91308,7.16091 z"
         style="fill:#decbb6;stroke:none;stroke-width:0.535979" />
      <path
         id="path1109"
         d="m 744.36272,265.27365 c -2.37406,1.64981 -4.84299,3.50612 -7.54788,4.90679 -3.68516,1.90832 -5.9593,4.74372 -7.12182,8.91028 0.71627,-0.15294 1.20089,-0.25654 1.86967,-0.36678 -0.91187,1.64594 -2.00797,3.29863 -3.46695,5.49856 -1.72369,-7.04269 6.45309,-16.04972 16.26698,-18.94885 z"
         style="fill:#decbb6;stroke:none;stroke-width:0.535979" />
      <path
         id="path1111"
         d="m 561.3072,241.35073 c 1.22133,1.21824 2.56837,2.54472 3.65693,4.05725 1.09443,1.52069 1.93155,3.22656 3.22092,4.71248 1.00684,-3.35083 -0.94884,-6.07869 -1.5653,-9.25415 3.07939,2.85995 4.32697,10.68557 2.10016,14.22709 -2.50839,-4.59386 -4.95436,-9.07334 -7.41271,-13.74267 z"
         style="fill:#decbb6;stroke:none;stroke-width:0.535979" />
      <path
         id="path1113"
         d="m 562.37356,236.13529 c -2.21285,-2.50271 -4.42945,-5.20077 -6.64606,-7.89881 -0.18475,-0.0142 -0.36966,-0.0294 -0.55451,-0.044 0.37835,1.74043 0.5886,3.54122 1.18549,5.20317 0.52653,1.46597 1.48461,2.77695 2.2536,4.35364 -3.60938,-2.66925 -5.20235,-6.43079 -4.76566,-10.98721 0.0711,-0.74266 0.8052,-1.42177 1.23286,-2.13028 0.54978,0.5066 1.25468,0.9202 1.62341,1.53534 1.93589,3.22951 3.78674,6.51001 5.67087,9.96813 z"
         style="fill:#decbb6;stroke:none;stroke-width:0.535979" />
      <path
         id="path1115"
         d="m 566.07584,239.93315 c -1.04126,-0.7742 -2.09394,-1.73469 -3.15648,-2.88194 1.0418,0.77406 2.09345,1.73488 3.15648,2.88194 z"
         style="fill:#decbb6;stroke:none;stroke-width:0.535979" />
      <path
         id="path1117"
         d="m 558.62555,238.1281 c 0.88151,0.75956 1.77337,1.70244 2.66648,2.8399 -0.88452,-0.75579 -1.7703,-1.70615 -2.66648,-2.8399 z"
         style="fill:#decbb6;stroke:none;stroke-width:0.535979" />
      <path
         id="path1119"
         d="m 746.02254,263.70944 c -0.24201,0.50516 -0.66674,1.02331 -1.27603,1.54859 0.2414,-0.50713 0.66736,-1.02137 1.27603,-1.54859 z"
         style="fill:#decbb6;stroke:none;stroke-width:0.535979" />
      <path
         id="path1135"
         d="m 579.19989,223.27905 c -8.50562,-6.4582 -13.86221,-14.62762 -15.91709,-25.02669 -4.03812,-20.43557 8.88536,-40.85933 29.27677,-45.98065 22.57946,-5.67087 45.14564,9.63491 48.6689,32.64714 3.1768,20.74913 -10.69685,40.56243 -30.8189,44.74441 -11.1755,2.32262 -21.59041,0.22287 -31.20968,-6.38421 m 10.77128,-53.70235 c -0.82584,0.0634 -1.65168,0.12681 -2.95796,0.20075 -12.72931,0.24036 -19.57201,5.85791 -21.09852,17.321 -0.60627,4.55263 0.49023,7.40876 4.83847,9.00738 4.87804,1.79346 10.09662,2.6607 15.37652,4.23418 4.67184,2.41794 9.64069,3.67283 15.27094,3.93567 5.35973,2.14955 10.69954,4.35067 16.08703,6.42826 2.97787,1.14837 6.17817,1.78326 9.04761,0.0352 4.33561,-2.64105 6.87586,-6.72887 7.55787,-11.74027 1.40381,-10.31549 -4.87689,-20.24461 -13.21972,-23.38614 -2.12702,-0.80094 -4.34862,-1.35067 -6.75092,-2.31736 -7.12197,-3.38432 -14.52976,-4.84958 -22.74328,-3.42021 -0.37102,-0.029 -0.74204,-0.0581 -1.40804,-0.29856 m 13.86588,58.76676 c 12.23413,-0.22662 29.49898,-11.7614 29.62838,-20.20974 -1.14623,0.94536 -2.0788,1.72967 -3.02738,2.49415 -3.85804,3.10912 -8.02289,4.50709 -12.86218,2.36873 -1.46618,-0.64786 -2.96311,-1.2448 -4.48599,-1.74265 -8.54441,-2.79317 -17.06923,-5.65296 -25.66484,-8.28034 -5.60565,-1.71346 -11.31521,-3.0898 -16.9894,-4.57447 -1.47311,-0.38544 -2.98812,-0.61072 -4.4839,-0.90958 0.1649,1.45394 0.1096,2.97471 0.52791,4.35164 5.0615,16.66048 18.55675,26.34411 37.3574,26.50226 m -18.5467,-64.27085 c 9.3492,-0.58307 18.5188,0.74327 27.52887,3.00997 9.75971,2.45527 18.43243,6.7518 23.70795,15.97766 0.15355,0.26847 0.47271,0.44222 0.76132,0.7022 2.42148,-7.58552 -11.31507,-23.80034 -23.33669,-28.03916 -15.25238,-5.37796 -31.45583,0.9782 -37.05264,9.47733 2.96201,-0.42186 5.42711,-0.77294 8.39119,-1.128 z"
         style="fill:#090807;stroke:none;stroke-width:0.535979" />
      <path
         id="path1137"
         d="m 677.78203,220.54801 c -3.31909,-15.67522 1.01156,-28.76991 12.52076,-39.43395 13.5628,-12.56684 36.41864,-12.75992 50.61646,-0.68169 10.80396,9.19098 15.55712,20.95597 14.26735,34.90458 -1.67032,18.06388 -15.7978,32.25501 -33.74876,35.01976 -18.9056,2.91177 -38.81054,-9.6679 -43.65581,-29.8087 m 67.37756,13.40893 c 2.15144,-4.27 4.36962,-8.50823 6.42587,-12.82363 1.00768,-2.11478 0.19317,-3.99356 -1.77819,-5.00117 -4.18446,-2.13869 -8.35067,-4.42896 -12.76161,-5.98421 -8.76993,-3.09217 -17.9853,-2.17365 -27.07202,-2.27719 -9.31702,-0.10615 -18.27381,1.51974 -26.84809,5.23312 -3.65257,1.58185 -3.83539,1.76854 -3.18502,5.53093 2.80317,16.21648 18.68996,29.71339 35.18641,29.97604 12.35495,0.1967 21.92556,-5.2901 30.03265,-14.65389 m -31.02158,-57.65847 c -22.14879,-3.57049 -37.33231,24.06974 -33.58338,36.05179 0.48223,-0.23557 1.01914,-0.37513 1.39564,-0.70038 4.67469,-4.03845 10.23385,-6.50515 16.20722,-7.07277 9.28929,-0.88272 18.65897,-1.23321 27.99422,-1.22738 8.71546,0.006 17.22495,1.5466 24.77872,6.41294 0.26685,0.17199 0.64089,0.17746 1.28696,0.34302 0.12156,-0.99373 0.39433,-1.84858 0.29825,-2.65971 -0.65862,-5.55991 -2.48732,-10.69955 -5.32202,-15.55784 -4.837,-8.28992 -11.76597,-13.17504 -21.4323,-14.07778 -3.72096,-0.34751 -7.41576,-0.97539 -11.62331,-1.51189 z"
         style="fill:#0b0908;stroke:none;stroke-width:0.535979" />
      <path
         id="path1139"
         d="m 785.19183,208.55038 c -1.77528,1.76218 -1.91787,-0.20438 -1.88257,-0.85837 0.061,-1.13073 0.67069,-2.23187 1.05017,-3.34545 0.30106,0.0318 0.60209,0.0638 0.90316,0.0956 0,1.30333 0,2.60667 -0.0708,4.10814 z"
         style="fill:#dec5b0;stroke:none;stroke-width:0.535979" />
      <path
         id="path1141"
         d="m 540.86229,156.81085 c 0.51165,0.76711 1.12752,1.65556 1.16424,2.56737 0.1803,4.47657 -0.092,4.79175 -4.88921,6.63245 0.36363,-3.52369 1.75659,-6.36827 3.72497,-9.19982 z"
         style="fill:#fcfaf8;stroke:none;stroke-width:0.535979" />
      <path
         id="path1147"
         d="m 603.57753,228.35167 c -18.54113,-0.16632 -32.03638,-9.84999 -37.09788,-26.51047 -0.41829,-1.37693 -0.36311,-2.8977 -0.52791,-4.35164 1.49578,0.29886 3.01079,0.52414 4.4839,0.90958 5.67419,1.48467 11.38375,2.86103 16.9894,4.57447 8.59561,2.62738 17.12043,5.48717 25.66484,8.28034 1.52288,0.49785 3.01981,1.09479 4.48599,1.74265 4.83929,2.13836 9.00414,0.74039 12.86218,-2.36873 0.94858,-0.76448 1.88115,-1.54879 3.02738,-2.49415 -0.12944,8.44834 -17.39425,19.98312 -29.8879,20.21795 z"
         style="fill:#f6e4cd;stroke:none;stroke-width:0.535979" />
      <path
         id="path1149"
         d="m 614.34664,173.59701 c 2.17815,0.66515 4.39975,1.21488 6.52677,2.01582 8.34283,3.14153 14.62353,13.07065 13.21972,23.38614 -0.68201,5.0114 -3.22226,9.09922 -7.55787,11.74027 -2.86944,1.74794 -6.06974,1.11305 -9.04761,-0.0352 -5.38749,-2.07759 -10.7273,-4.27871 -16.11479,-6.61145 4.97468,-0.88652 9.62789,-2.37971 13.53151,-5.79474 6.70797,-5.86841 7.45355,-15.02969 1.7162,-21.85758 -0.78049,-0.92883 -1.51705,-1.8945 -2.27393,-2.84314 z"
         style="fill:#fcfbfb;stroke:none;stroke-width:0.535979" />
      <path
         id="path1151"
         d="m 585.04084,164.07458 c -2.71457,0.35307 -5.17967,0.70415 -8.14168,1.12601 5.59681,-8.49913 21.80026,-14.85529 37.05264,-9.47733 12.02162,4.23882 25.75817,20.45364 23.33669,28.03917 -0.28861,-0.25999 -0.60781,-0.43374 -0.76132,-0.70221 -5.27552,-9.22586 -13.94824,-13.52239 -23.70795,-15.97766 -9.01007,-2.2667 -18.17967,-3.59304 -27.77838,-3.00798 z"
         style="fill:#f5e2cb;stroke:none;stroke-width:0.535979" />
      <path
         id="path1153"
         d="m 614.23458,173.44625 c 0.86894,1.09937 1.6055,2.06507 2.38599,2.9939 5.73735,6.82789 4.99177,15.98917 -1.7162,21.85758 -3.90362,3.41503 -8.55683,4.90821 -13.71875,5.72895 -5.41525,-0.0142 -10.3841,-1.26875 -15.28143,-3.97805 -1.36766,-1.87058 -2.63354,-3.37581 -3.63027,-5.04203 -3.97178,-6.63954 -2.91264,-15.06387 2.73477,-20.31763 1.9887,-1.85008 4.47375,-3.16662 6.73219,-4.72675 7.85185,-1.51633 15.25964,-0.0511 22.4937,3.48403 m -16.80417,0.23004 c -5.28385,-2.11352 -10.10749,1.20271 -10.00233,7.14037 -2.45365,2.09637 -2.59748,4.74151 -1.64398,7.5379 2.57283,7.54551 8.99673,11.37819 17.43552,10.48526 6.31736,-0.66845 11.58067,-5.13866 12.0792,-10.25907 0.62793,-6.44897 -3.03202,-11.98535 -9.59375,-13.90191 -2.49969,-0.73012 -5.22939,-0.67283 -8.27466,-1.00255 z"
         style="fill:#a18564;stroke:none;stroke-width:0.535979" />
      <path
         id="path1155"
         d="m 591.56005,169.91873 c -2.07761,1.60362 -4.56266,2.92016 -6.55136,4.77024 -5.64741,5.25376 -6.70655,13.67809 -2.73477,20.31763 0.99673,1.66622 2.26261,3.17145 3.52554,4.8904 -4.94968,-1.13049 -10.16826,-1.99773 -15.0463,-3.79119 -4.34824,-1.59862 -5.44474,-4.45475 -4.83847,-9.00738 1.52651,-11.46309 8.36921,-17.08064 21.56035,-17.24894 1.23826,0.0275 2.01469,-0.0162 2.79114,-0.0614 0.37099,0.029 0.74201,0.0581 1.29387,0.13066 z"
         style="fill:#fbfbfa;stroke:none;stroke-width:0.535979" />
      <path
         id="path1157"
         d="m 590.11868,169.68241 c -0.62895,0.1501 -1.40538,0.19467 -2.40343,0.16185 0.60424,-0.14079 1.43008,-0.20411 2.40343,-0.16185 z"
         style="fill:#a18564;stroke:none;stroke-width:0.535979" />
      <path
         id="path1159"
         d="m 745.04057,234.10616 c -7.98807,9.21457 -17.55868,14.7014 -29.91363,14.50467 -16.49645,-0.26265 -32.38324,-13.75956 -35.18641,-29.97604 -0.65037,-3.76239 -0.46755,-3.94908 3.18502,-5.53093 8.57428,-3.71338 17.53107,-5.33931 26.84809,-5.23312 9.08672,0.10352 18.30209,-0.81498 27.07202,2.27719 4.41094,1.55525 8.57715,3.84552 12.76161,5.98421 1.97136,1.00761 2.78587,2.88639 1.77819,5.00117 -2.05625,4.3154 -4.27443,8.55363 -6.54489,12.97285 z"
         style="fill:#f8e5ce;stroke:none;stroke-width:0.535979" />
      <path
         id="path1161"
         d="m 714.38843,176.31666 c 3.95713,0.51831 7.65193,1.14619 11.37289,1.4937 9.66633,0.90274 16.5953,5.78786 21.4323,14.07778 2.8347,4.85829 4.6634,9.99793 5.32202,15.55784 0.0961,0.81113 -0.17669,1.66598 -0.29825,2.65971 -0.64607,-0.1655 -1.02011,-0.17117 -1.28696,-0.34302 -7.55377,-4.86634 -16.06326,-6.40749 -24.77872,-6.41294 -9.33525,-0.006 -18.70493,0.34466 -27.99422,1.22738 -5.97337,0.56762 -11.53253,3.03432 -16.20722,7.07277 -0.3765,0.32525 -0.91341,0.46481 -1.39564,0.70038 -3.74893,-11.98205 11.43459,-39.62228 33.8338,-36.0336 z"
         style="fill:#f7e4cd;stroke:none;stroke-width:0.535979" />
      <path
         id="path1163"
         d="m 597.85079,173.70443 c 2.62489,0.30158 5.35459,0.24429 7.85428,0.97441 6.56173,1.91656 10.22168,7.45294 9.59375,13.90191 -0.49853,5.12041 -5.76184,9.59062 -12.0792,10.25907 -8.43879,0.89293 -14.86269,-2.93975 -17.43552,-10.48526 -0.9535,-2.79639 -0.80967,-5.44153 1.88409,-7.62726 0.71033,0.76795 1.11267,1.67184 1.6629,2.47436 2.0941,3.05422 5.14561,3.86541 8.1028,2.2109 2.97686,-1.66553 3.98301,-4.98513 2.42318,-8.28781 -0.56224,-1.19041 -1.3315,-2.28306 -2.00628,-3.42032 z"
         style="fill:#030303;stroke:none;stroke-width:0.535979" />
      <path
         id="path1165"
         d="m 597.6406,173.69037 c 0.88497,1.15132 1.65423,2.24397 2.21647,3.43438 1.55983,3.30268 0.55368,6.62228 -2.42318,8.28781 -2.95719,1.65451 -6.0087,0.84332 -8.1028,-2.2109 -0.55023,-0.80252 -0.95257,-1.70641 -1.5877,-2.65799 -0.42047,-5.66467 4.40317,-8.9809 9.89721,-6.8533 z"
         style="fill:#fbfbfa;stroke:none;stroke-width:0.535979" />
      <path
         style="fill:#f7e5ce;fill-opacity:1;stroke:#000000;stroke-width:0.53183"
         d="m 2325.0564,1262.2786 c -1.235,1.3119 -0.8344,3.9397 -1.4209,5.6881 -3.2481,23.1771 -2.5297,46.6853 -4.6322,69.9692 -0.9502,6.3219 -0.2261,13.3671 -3.6393,19.0085 -4.2309,6.6234 -15.9945,6.1901 -19.2289,-1.0906 -1.3703,-7.1149 0.243,-14.698 -1.8895,-21.669 -1.6764,-3.6165 -6.0868,-4.1826 -9.5491,-3.2454 -10.7157,1.5521 -21.6114,2.7209 -32.1154,5.2418 0.746,5.8174 2.7006,11.6159 5.1583,16.9656 13.6656,25.4105 34.8405,45.8518 56.9775,63.9298 24.784,19.8114 54.7986,33.9337 86.6481,36.7689 20.3022,1.7018 40.7106,2.6148 61.0849,2.2362 17.1351,-0.7056 33.4462,-7.1838 48.7472,-14.4859 27.3404,-13.3507 49.0747,-35.8757 65.8745,-60.8818 8.3858,-12.7062 16.6385,-25.7525 23.6246,-39.175 -10.568,-2.2042 -20.9958,-5.5943 -31.8018,-6.3799 -3.9583,-0.2612 -7.8764,2.7987 -7.725,6.9543 -1.0353,6.4508 1.568,13.9989 -3.0082,19.444 -4.6593,5.4795 -14.333,2.9727 -16.8669,-3.4444 -3.2613,-7.5025 -2.8623,-15.9755 -4.0027,-23.9475 -1.6786,-15.605 -1.7785,-31.3562 -3.7151,-46.9251 -0.6699,-3.168 -3.8243,-4.9172 -6.9241,-4.5081 -21.4877,0.4336 -42.9588,1.7928 -64.4615,1.7766 -19.7215,-0.096 -39.5775,0.6739 -59.1777,-1.8826 -26.1032,-3.5702 -50.2069,-15.164 -75.9749,-20.1649 -0.6563,-0.084 -1.3165,-0.2209 -1.9819,-0.1828 z"
         id="path4"
         transform="scale(0.26458333)" />
      <path
         style="fill:#6c8794;fill-opacity:1;stroke:#000000;stroke-width:0.18803"
         d="m 2605.0801,21.468521 c -6.1441,-0.08923 -12.3478,0.666492 -18.1183,2.853648 -6.7681,2.468494 -12.6471,7.04131 -17.1627,12.604143 -2.0768,3.168506 -3.4022,6.756305 -5.1162,10.122061 1.9258,1.26584 4.097,2.421849 6.2418,3.399237 7.2492,1.687451 14.6174,2.833336 21.9247,4.247116 20.3354,3.685587 40.6408,7.544693 61.0084,11.047618 2.7707,0.279558 5.9153,1.413405 8.4868,-0.199783 1.7179,-1.071476 2.4299,-3.158648 2.2986,-5.10914 0.2296,-6.934414 -3.2998,-13.308743 -7.3061,-18.722615 -6.0751,-8.089995 -15.2006,-13.384787 -24.7865,-16.232715 -8.3131,-2.477323 -16.9843,-3.702842 -25.6431,-4.001857 -0.6091,-0.0074 -1.2182,-0.0097 -1.8274,-0.0077 z"
         id="path5"
         transform="scale(0.26458333)" />
      <path
         style="fill:#414e53;fill-opacity:1;stroke:#000000;stroke-width:1.06366"
         d="m 2463.8392,66.873515 c -48.1484,-0.377787 -97.1781,4.42988 -142.3747,21.935925 -43.2579,16.57815 -81.9486,44.96963 -109.6729,82.19799 -46.6955,61.01421 -72.7368,134.9207 -88.9566,209.31086 -1.5116,8.64884 -4.789,17.41836 -4.941,26.11023 5.2305,1.66568 9.4538,-5.09679 14.993,-4.07391 7.6861,-0.0493 11.8943,10.17311 20.1078,7.19841 20.8211,-6.71153 41.3181,-14.71722 62.8246,-19.18616 50.9024,-11.24643 103.0836,-15.95572 155.1059,-17.99556 91.3775,-2.69952 182.9506,9.64591 271.1872,33.08288 67.0832,18.1335 131.5229,45.21773 192.3279,78.74358 29.8995,15.37166 57.8436,34.36018 82.6679,57.05806 8.0969,5.92653 14.5622,15.299 24.4808,18.2422 11.2479,2.45969 23.4547,-6.64613 23.1052,-18.47913 6.3209,-46.09792 13.0541,-92.41038 11.5157,-139.07961 -0.3959,-56.60676 -12.2248,-114.72288 -42.6389,-163.14366 -20.9746,-33.86484 -52.0233,-60.58636 -87.2085,-78.8891 -58.9036,-31.27322 -122.012,-54.51991 -186.6831,-70.633805 -44.7545,-10.193924 -90.2145,-17.826556 -135.992,-21.39233 -19.9328,-0.951957 -39.8962,-1.082953 -59.8483,-1.00687 z"
         id="path6"
         transform="scale(0.26458333)" />
      <path
         style="fill:#6c8794;fill-opacity:1;stroke:#000000;stroke-width:0.75477"
         d="m 2403.0124,381.24732 c -37.2584,0.66915 -74.5032,2.81776 -111.6225,6.06179 -46.295,4.8351 -92.4221,14.6592 -135.5238,32.50372 -17.0078,7.18052 -31.762,20.13495 -39.4789,37.08649 -13.5565,28.66652 -33.0459,55.16543 -39.5106,86.72233 -2.8914,14.74045 -2.7535,32.15156 8.3761,43.62483 7.9393,8.93755 21.2303,11.52012 32.2738,7.41797 33.9555,-11.09736 64.5019,-30.12004 95.256,-47.87653 43.7587,-24.86875 91.966,-42.31187 142.0402,-48.45541 44.8232,-6.7247 90.1898,-1.81447 135.0518,1.80177 34.8687,3.05817 68.8296,12.09934 102.8715,19.83175 43.5904,10.20244 86.1427,25.27786 125.5356,46.67751 27.7205,14.34494 53.5388,32.50642 75.2318,55.02579 36.3995,36.10163 65.4434,79.22379 104.6959,112.49343 10.1465,8.52191 25.8252,8.83415 36.3027,0.71939 13.2241,-9.70474 20.396,-26.53485 19.2749,-42.79782 -0.6576,-29.4116 -3.3534,-58.77361 -6.8728,-87.96827 -1.5256,-12.77609 -5.193,-26.0217 -14.783,-35.18964 -25.8315,-27.10797 -58.0863,-46.79866 -89.1557,-67.23193 -34.6151,-21.76809 -71.7077,-39.35506 -109.3059,-55.2996 -61.3953,-25.37761 -126.9351,-38.06787 -191.6666,-51.70946 -43.377,-8.82419 -87.6641,-12.71909 -131.8851,-13.44601 -2.3685,-0.0134 -4.7369,-0.004 -7.1054,0.008 z"
         id="path8"
         transform="scale(0.26458333)" />
      <path
         style="fill:#664125;fill-opacity:1;stroke:#000000;stroke-width:0.133426"
         d="m 2988.7598,556.59465 c -0.4071,0.32812 -0.2462,1.13739 -0.4586,1.6204 -3.8445,19.82261 -7.6657,39.65048 -11.3649,59.50059 0.2273,0.41679 0.9815,0.28493 1.4001,0.48345 0.7458,0.063 1.5591,0.53885 2.2967,0.27906 0.518,-1.19936 0.6723,-2.56754 1.0541,-3.82567 1.4208,-5.74641 2.9152,-11.48466 3.7868,-17.34727 2.2002,-13.36733 4.3625,-26.74364 6.3856,-40.1388 -0.4902,-0.38518 -1.2858,-0.28316 -1.8919,-0.44667 -0.401,-0.0512 -0.8029,-0.12029 -1.2079,-0.12509 z"
         id="path9"
         transform="scale(0.26458333)" />
      <path
         style="fill:#f5e2cb;fill-opacity:1;stroke:#000000;stroke-width:0.377385"
         d="m 2371.3909,519.75426 c -9.6285,-0.16848 -19.2759,0.81254 -28.5609,3.42947 -9.3509,2.33585 -18.8035,4.42789 -28.0269,7.17416 1.5647,1.87902 4.2239,2.87181 6.2902,4.23079 4.831,2.9085 10.6637,3.17149 15.9705,4.76874 34.0968,8.11486 68.3304,15.6445 102.4635,23.59711 2.8925,0.95249 5.5224,3.65052 5.0291,6.87695 -0.8797,7.02115 -3.4047,13.73255 -4.9462,20.62696 -1.5846,5.53246 -2.6777,11.25745 -4.8061,16.60591 -1.7074,3.54725 -6.1846,4.10972 -9.5335,2.80371 -6.7165,-2.259 -13.9759,-2.93457 -20.8946,-3.59976 5.561,11.23332 13.0841,21.4031 18.7901,32.58126 11.3386,20.94392 19.4377,44.0443 20.4923,67.99261 0.6186,3.88213 -0.352,8.89825 2.998,11.75419 3.7144,1.848 8.0941,0.64202 12.0536,0.52033 16.9102,-1.63806 34.3954,-3.25366 51.003,1.22512 11.5072,3.4329 21.4046,10.5532 32.256,15.47643 2.6917,0.8537 6.1219,0.16857 7.3833,-2.63138 4.489,-8.23196 8.3241,-16.83873 13.5395,-24.66641 9.0373,-14.36854 20.4938,-26.99287 32.1735,-39.23106 0.5251,-0.68267 1.5934,-1.5064 0.7179,-2.30117 -0.9722,-2.79795 -4.1331,-4.36899 -4.8832,-7.35827 -2.3326,-7.2329 1.3099,-14.4751 2.3432,-21.61494 1.5544,-6.58169 1.9192,-13.50295 4.1932,-19.87456 1.7112,-3.45726 6.2505,-2.68791 9.4286,-2.98978 20.9754,-0.38285 41.9778,0.011 62.8692,2.04109 11.4347,0.84787 22.8405,2.27544 34.2811,2.9108 8.9067,0.74465 17.8171,2.31006 26.8069,2.34968 6.5247,-0.005 13.1256,0.88063 19.6129,-0.0345 2.0686,-0.51194 3.8478,-2.02216 5.3755,-3.31391 -22.2045,-21.55153 -50.2088,-36.08921 -78.9611,-46.88235 -34.1361,-12.39232 -69.3146,-21.67178 -104.6164,-30.0746 -24.5739,-5.5839 -49.2285,-11.1269 -74.2602,-14.232 -24.0442,-2.59158 -48.2074,-3.8599 -72.3107,-5.77486 -18.0646,-1.27042 -36.1515,-2.4981 -54.2713,-2.38575 z"
         id="path11"
         transform="scale(0.26458333)" />
      <path
         id="path1121"
         d="m 667.48156,166.39803 c -0.25864,-3.56178 -0.54468,-6.91859 -0.54176,-10.27518 5.2e-4,-0.73449 1.03151,-1.46812 1.58794,-2.20213 0.4799,0.64768 1.39115,1.30829 1.37221,1.94106 -0.16834,5.62255 0.74989,10.94693 3.74717,15.80446 0.0681,0.1104 -0.0529,0.33751 -0.0871,0.50986 -2.91969,0.54168 -4.36594,-0.80149 -6.07841,-5.77807 z"
         style="fill:#dac2ad;stroke:none;stroke-width:0.535979" />
      <path
         id="path1123"
         d="m 661.46438,164.57064 c -0.6765,0.77335 -1.35302,1.5467 -2.30492,2.47808 -0.80439,0.033 -1.33343,-0.092 -2.12392,-0.2787 0.69445,-0.80737 1.23704,-1.28611 1.58004,-1.88014 0.33713,-0.58376 0.47162,-1.28457 0.69504,-1.93403 0,0 -0.0162,-0.0182 0.16368,-0.0379 0.4032,-0.37434 0.62628,-0.72959 0.84931,-1.08489 0.51489,-0.93883 1.0298,-1.87767 1.68879,-3.0666 0.1023,-0.56367 0.0604,-0.87719 0.0182,-1.19072 0.1258,-0.42117 0.25178,-0.84234 0.62266,-1.45376 0.7226,-0.45464 1.20026,-0.71902 1.84424,-1.07551 0.0984,0.85736 0.16713,1.45498 0.2358,2.05261 -0.71513,1.82567 -1.43028,3.65134 -2.33452,5.73454 -0.43768,0.75066 -0.68622,1.24383 -0.93476,1.73698 z"
         style="fill:#d3ad9a;stroke:none;stroke-width:0.535979" />
      <path
         id="path1125"
         d="m 664.91561,157.04323 c -0.25063,-0.54174 -0.31928,-1.13936 -0.41775,-1.99672 -0.64399,0.35647 -1.12164,0.62088 -1.76982,0.92472 0.95143,-2.58296 1.03498,-5.79529 4.39306,-7.98877 0.14788,3.63618 -0.39316,6.42857 -2.20549,9.06077 z"
         style="fill:#dfcbb6;stroke:none;stroke-width:0.535979" />
      <path
         id="path1127"
         d="m 659.14489,163.02461 c -0.0577,0.5807 -0.19224,1.28151 -0.52931,1.86527 -0.343,0.59403 -0.88559,1.07277 -1.58004,1.88014 0.79049,0.18677 1.31953,0.31174 2.04254,0.43371 -1.18899,0.83133 -2.57201,1.66565 -3.95503,2.49998 -0.21297,-0.28456 -0.42596,-0.56911 -0.63892,-0.85367 0.36765,-2.72188 2.8654,-3.93103 4.66076,-5.82543 z"
         style="fill:#dfcbb6;stroke:none;stroke-width:0.535979" />
      <path
         id="path1129"
         d="m 661.64479,164.53537 c 0.0681,-0.4579 0.31666,-0.95105 0.72688,-1.51046 -0.0743,0.44759 -0.31045,0.96138 -0.72688,1.51046 z"
         style="fill:#dfcbb6;stroke:none;stroke-width:0.535979" />
      <path
         id="path1131"
         d="m 661.90214,157.64207 c 0.17057,0.24722 0.21254,0.56074 0.12377,0.94069 -0.17137,-0.24716 -0.21193,-0.56078 -0.12377,-0.94069 z"
         style="fill:#dfcbb6;stroke:none;stroke-width:0.535979" />
      <path
         id="path1133"
         d="m 660.156,161.86592 c -0.0553,0.32246 -0.27844,0.67773 -0.67155,1.06163 0.0545,-0.32385 0.27923,-0.67633 0.67155,-1.06163 z"
         style="fill:#dfcbb6;stroke:none;stroke-width:0.535979" />
      <path
         style="fill:#44342d;fill-opacity:1;stroke:#000000;stroke-width:0.707107"
         d="m 2706.1073,640.39844 c -32.7919,0.20049 -65.8037,9.85447 -92.1811,29.65672 -12.82,9.74762 -24.2615,21.41557 -34.025,34.21454 -21.0516,27.86064 -32.116,63.01558 -30.359,97.93236 1.1036,33.19 11.3226,66.57287 32.2823,92.68691 13.8241,16.93312 30.3869,31.92713 49.9303,41.97677 22.377,12.33338 47.9672,17.86916 73.2932,19.42712 20.9541,-0.69909 41.9487,-4.77906 61.4769,-12.45723 31.5212,-13.52418 59.3625,-36.76 75.7684,-67.14235 13.4107,-24.21313 21.5357,-51.74808 20.7557,-79.58507 -0.2075,-38.86959 -14.7341,-77.94547 -41.7288,-106.18033 -25.9735,-28.01192 -61.9986,-47.22792 -100.3802,-49.99497 -4.9328,-0.40515 -9.8836,-0.58139 -14.8327,-0.53447 z m -1.4391,8.05576 c 36.0452,-0.35452 72.2078,12.47229 99.0953,36.6664 28.5231,24.84384 47.7873,60.60753 50.5103,98.54015 3.542,37.70129 -6.8773,76.90863 -30.8172,106.51211 -28.133,35.62348 -72.9226,57.53525 -118.3888,57.38146 -19.6933,0.13208 -39.2796,-4.70004 -57.3438,-12.36832 -45.7174,-19.7168 -80.7682,-63.34753 -87.9398,-112.87859 -5.1525,-33.07801 -0.6051,-68.3345 16.8259,-97.31304 10.9125,-19.51322 26.4624,-36.16579 44.0506,-49.80532 24.2488,-17.46706 54.2015,-26.56896 84.0075,-26.73485 z"
         id="path13"
         transform="scale(0.26458333)" />
      <path
         style="fill:#44342d;fill-opacity:1;stroke:#000000;stroke-width:0.707107"
         d="m 2273.3221,563.15254 c -40.4149,1.49936 -80.903,17.30571 -109.1781,46.70455 -27.2947,27.52538 -45.2609,64.98714 -46.0391,104.05532 -0.6901,35.8261 9.2375,72.36419 30.1573,101.67035 20.9902,29.10677 53.1735,48.97827 87.4271,58.58076 12.8611,3.16431 25.9899,5.82479 39.3079,4.92974 15.7793,0.37329 31.6415,-1.26102 46.6747,-6.24314 36.8448,-11.47948 69.1153,-36.9098 89.3841,-69.68178 17.4208,-29.72322 24.9833,-65.15498 21.7629,-99.4187 -5.4802,-41.66224 -26.5384,-81.9981 -60.6124,-107.2595 -28.1885,-21.30205 -63.3917,-33.99 -98.8844,-33.3376 z m 1.2968,8.02953 c 53.0717,-0.60195 104.9261,29.82984 130.7679,76.12242 23.3549,40.08063 26.0903,91.20375 7.2629,133.5817 -18.6863,43.36125 -58.6703,77.26005 -105.1246,86.85079 -39.5794,9.04999 -82.7028,0.82148 -115.9214,-22.60791 -32.4123,-22.30268 -55.6185,-57.55191 -62.5908,-96.33061 -8.5162,-43.66678 3.8899,-90.73217 32.8933,-124.47916 27.5922,-32.93426 69.7121,-52.94673 112.7127,-53.13723 z"
         id="path14"
         transform="scale(0.26458333)" />
      <path
         style="fill:#643c21;fill-opacity:1;stroke:#000000;stroke-width:0.25"
         d="m 2366.394,980.24951 c -16.3253,-0.0416 -32.5749,2.75825 -48.2397,7.23681 -4.3426,1.32261 -8.2476,3.69752 -12.2651,5.75049 2.1859,1.70311 5.0313,3.08053 7.8562,3.75389 5.7027,1.42012 11.3339,-1.23257 16.1223,-4.09114 5.6722,-3.30269 11.4831,-7.19261 18.2549,-7.46841 -4.3046,6.29653 -8.9742,12.33657 -13.9468,18.12105 2.6629,1.7207 5.9753,2.6769 9.035,3.7217 1.2968,0.2404 2.7266,1.2377 3.8528,0.084 6.5261,-3.6574 13.0755,-7.57292 19.5965,-11.06093 0.6256,0.94328 1.688,1.86927 2.0108,2.8833 -3.2821,4.80843 -7.4127,9.05053 -10.7583,13.76663 4.6117,1.7595 9.4977,2.8752 14.2061,4.4075 5.1538,1.4065 10.1711,3.3602 15.4035,4.4497 3.0271,0.6574 6.231,-0.6648 7.9638,-3.2213 1.3107,-1.8785 2.6815,-3.8842 4.9574,-4.654 1.2948,-0.6067 2.5743,-1.2737 3.9541,-1.6548 -0.2059,4.4147 -0.6266,8.8349 -0.7037,13.2549 9.4057,2.4665 19.0041,4.4062 28.547,6.3751 34.5379,6.8827 69.5267,11.6081 104.6781,13.7953 1.0443,-0.074 -0.2844,-1.3512 -0.2891,-1.8632 -2.5688,-5.8014 -5.1807,-11.5839 -7.725,-17.3961 1.182,-0.5355 2.5122,-2.0286 3.6096,-2.0173 2.6511,3.4528 5.659,6.7063 7.7346,10.554 1.9008,3.8332 3.2792,8.5234 7.405,10.5818 4.4991,2.2823 9.7807,1.2522 14.4529,0.1335 0.4463,-0.5352 -0.562,-1.4195 -0.6045,-2.0435 -2.0697,-4.938 -4.6465,-9.7001 -6.3257,-14.7807 -0.2725,-2.0535 -0.1944,-4.2885 -0.012,-6.274 2.5393,0.9503 5.5389,1.5915 7.1758,3.9727 4.4073,5.5641 7.3537,12.2334 12.2757,17.4019 2.012,1.8191 4.536,3.5611 7.3957,3.1777 3.4567,0.1869 6.7274,-1.5172 9.2925,-3.6865 -0.1193,-1.2365 -1.4246,-2.1523 -2.079,-3.1652 -5.6524,-6.5408 -12.5841,-11.8355 -19.5743,-16.8588 -21.6618,-15.1405 -47.9171,-22.6984 -74.1192,-24.33541 -15.0596,-1.19075 -30.1693,0.30512 -45.2341,-0.44135 -8.6275,-0.73867 -16.2291,-5.38223 -24.3275,-8.06796 -19.0163,-7.00316 -39.288,-10.73598 -59.5766,-10.34127 z"
         id="path15"
         transform="scale(0.26458333)" />
      <path
         style="fill:#643c21;fill-opacity:1;stroke:#000000;stroke-width:0.176777"
         d="m 2375.674,1110.1542 c -2.8779,-0.035 -4.9988,2.3355 -6.1478,4.7409 -2.4553,5.0295 -3.8575,10.4859 -5.5652,15.7953 -2.4605,8.0202 -3.9242,16.4012 -3.6115,24.8114 0.1494,6.8535 1.9551,13.68 5.1588,19.7388 1.4436,2.6957 3.1953,5.2428 5.1528,7.5747 3.4803,0.2268 7.4524,-0.3627 10.3549,1.9891 5.8226,4.7724 10.8078,10.454 16.2199,15.67 3.5155,3.5401 7.866,6.3646 12.7282,7.6238 3.6593,1.1393 7.5605,0.9741 11.3294,0.6256 7.3616,-0.8486 13.9959,-4.3675 20.6918,-7.2741 2.6656,-0.8736 5.435,-1.85 8.2181,-1.9739 1.9093,0.3334 3.6557,1.4093 5.6392,1.4505 3.9953,0.3417 7.3855,-2.3727 10.0718,-4.9943 4.2342,-3.9916 8.1434,-8.3959 10.9629,-13.5172 6.0687,-10.6095 7.6277,-23.1252 7.3588,-35.1651 -0.1527,-4.834 -0.1428,-9.712 -0.9513,-14.4916 -0.4228,-2.4648 -1.9435,-4.8795 -4.4333,-5.6472 -3.1932,-1.1786 -6.6682,-0.6003 -9.9923,-0.7542 -13.1946,-0.015 -26.434,0.3975 -39.5661,-1.1303 -12.3681,-1.3174 -24.6373,-4.1504 -36.046,-9.1749 -5.0452,-2.0136 -9.9391,-4.586 -15.2895,-5.7095 -0.7529,-0.1332 -1.5181,-0.2148 -2.2836,-0.1878 z"
         id="path16"
         transform="scale(0.26458333)" />
    </g>
    <path
       style="fill:#d0d8dc;fill-opacity:1;stroke:#000000;stroke-width:0.413411"
       d="m 198.15893,10.004859 c -37.79102,0.520137 -75.35144,12.32872 -106.607343,33.590237 -24.213963,16.121073 -44.99693,37.444018 -60.444202,62.092634 -11.988469,19.43962 -20.22953,41.11748 -24.9659641,63.42482 -0.5831003,4.64112 -0.9485225,10.33079 3.1191573,13.5901 4.0119558,4.14291 10.2860368,3.98226 15.5643718,5.01461 9.455585,1.113 18.530148,-6.10826 20.854886,-15.11827 4.474572,-14.91669 9.541904,-29.81015 17.641863,-43.20255 16.15772,-27.56798 41.006671,-49.474175 69.227541,-64.151091 6.75161,-14.599636 15.32951,-28.89917 28.29986,-38.799259 10.70175,-8.562868 24.00824,-13.491865 37.62877,-14.620444 4.21351,-0.559205 8.71498,-0.965572 12.7988,-1.41222 -4.35771,-0.352088 -8.74566,-0.4279708 -13.11774,-0.408567 z"
       id="path21" />
    <g
       id="g24"
       transform="translate(733.22455,312.46764)">
      <path
         id="path2789"
         d="m -489.36765,104.07479 c -10.1855,2.00205 -20.2293,3.11018 -30.3916,3.40736 -23.421,0.68482 -46.4684,-1.82624 -69.0445,-8.065979 -13.4642,-3.72129 -26.2644,-9.20311 -38.5554,-15.86532 -12.9136,-6.99963 -24.9071,-15.3547 -36.1569,-24.75391 -7.7832,-6.50285 -14.793,-13.82057 -21.574,-21.3731 -11.0237,-12.27785 -20.1479,-25.83913 -27.7574,-40.43095 -7.4844,-14.35174 -13.3506,-29.352161 -17.4437,-45.027801 -1.3811,-5.28931 -2.7038,-10.581 -2.5988,-16.12124 0.1233,-6.50648 4.205,-12.61875 10.2173,-15.10401 3.6994,-1.52918 7.4831,-2.52137 11.5583,-2.29327 2.9011,0.16245 5.8184,0.0343 8.7284,0.0416 2.8865,0.007 5.5636,0.7674 8.0678,2.2007 6.367,3.64403 10.5584,8.82774 12.1444,16.14974 4.8559,22.41685 15.2034,42.16554 29.6062,59.863381 12.5943,15.47559 27.6348,28.13402 44.7939,38.27722 12.5201,7.40098 25.8339,12.89108 39.9261,16.54165 7.8692,2.03845 15.7897,3.75282 23.9106,4.21518 9.233,0.52565 18.4595,0.74073 27.7284,0.186 11.4234,-0.68376 22.5691,-2.56688 33.4939,-5.89452 18.6159,-5.67039 35.5695,-14.60468 50.5308,-26.97199 9.9776,-8.24781 19.1812,-17.39326 27.3213,-27.55249 12.6901,-15.837701 21.7334,-33.502151 27.1055,-53.062091 3.4722,-12.6424 5.4611,-25.48162 5.2506,-38.62599 -0.098,-6.08216 0.096,-12.17821 -0.2541,-18.24429 -0.3032,-5.26142 -0.7506,-10.58934 -1.9237,-15.70691 -1.4587,-6.36373 -1.3897,-12.47714 0.2233,-18.76028 1.1576,-4.50951 1.8206,-9.15002 2.6053,-13.749 0.265,-1.55294 0.3019,-3.15725 0.3124,-4.73895 0.042,-6.25983 0.074,-12.5203 0.029,-18.77996 -0.044,-6.15153 -1.7029,-11.99636 -3.4247,-17.84538 -0.8396,-2.8521 -1.4427,-5.81652 -1.7575,-8.77222 -0.831,-7.80226 -1.6456,-15.5922 -3.8059,-23.17548 -0.3584,-1.25815 -0.493,-2.59442 -0.6013,-3.90529 -0.1023,-1.23847 0.3902,-2.28826 1.6029,-2.77325 1.1446,-0.45777 2.2742,-0.30382 3.1979,0.57182 1.0875,1.03089 2.1767,2.06636 3.1872,3.17117 19.9906,21.85627 34.5537,46.88004 43.6144,75.07597 2.6706,8.31074 4.4825,16.83948 6.0906,25.42448 1.6106,8.59882 2.6889,17.22397 2.7821,25.97412 0.077,7.2228 0.5113,14.45492 0.2697,21.66556 -0.6436,19.20655 -3.7547,37.98806 -9.9744,56.25087 -4.5631,13.39903 -10.0478,26.345991 -17.3065,38.502061 -6.6155,11.07897 -14.2932,21.40227 -22.9471,30.96659 -4.6098,5.09463 -9.4295,10.00776 -14.3002,14.8563 -16.7982,16.72175 -36.1145,29.78711 -57.74,39.45705 -14.9453,6.68293 -30.4354,11.652379 -46.7403,14.794889 m 163.39,-207.80126 c -0.08,-12.99411 -1.3284,-25.85527 -3.9432,-38.60398 -6.6216,-32.28444 -20.5752,-60.98015 -41.8107,-86.15502 -0.2837,-0.33623 -0.7116,-0.5508 -1.2231,-0.93578 0.7618,6.39516 1.4293,12.5177 2.2522,18.6193 0.2805,2.08018 0.9623,4.10527 1.4426,6.15976 1.0214,4.36952 2.5346,8.69395 2.9555,13.12154 1.5451,16.25233 0.8493,32.40101 -3.4472,48.26445 -0.606,2.23756 -0.7734,4.48929 -0.2883,6.79437 0.6166,2.93076 1.2782,5.86433 1.6595,8.83026 2.0993,16.32905 2.4759,32.69734 0.5689,49.06581 -2.1965,18.85453 -7.862,36.6521 -16.6355,53.48301 -10.9133,20.935761 -26.555,37.958791 -44.4903,52.903651 -14.4227,12.0179 -30.8535,20.70055 -48.6919,26.64081 -13.303,4.43003 -26.9567,6.75288 -40.9782,7.34851 -18.5425,0.78759 -36.8154,-0.3852 -54.6813,-5.82072 -43.3072,-13.17588 -76.4317,-39.31579 -99.1834,-78.381101 -7.0695,-12.13842 -12.4531,-25.10771 -15.2073,-39.01683 -0.2391,-1.20766 -0.5749,-2.40347 -0.9606,-3.57354 -1.9316,-5.85997 -8.5004,-10.70803 -14.6391,-10.80053 -2.7331,-0.0411 -5.4729,0.0993 -8.1997,-0.0396 -2.9968,-0.15266 -5.765,0.6096 -8.4825,1.69104 -4.6974,1.86941 -7.2507,5.59593 -7.2289,10.62508 0.01,1.58004 0.026,3.20963 0.3955,4.72982 1.6026,6.58789 3.0526,13.23282 5.0758,19.69493 6.6118,21.118461 16.3502,40.757841 29.4181,58.603751 12.0987,16.52233 26.3789,30.98847 42.8936,43.20537 17.6554,13.06063 36.7663,23.27 57.7236,29.93499 17.3417,5.5151 35.2118,8.026129 53.3044,9.042369 22.8264,1.28209 45.2389,-1.23859 67.171,-7.830849 22.8393,-6.86493 44.0775,-16.96175 63.1091,-31.42038 16.025,-12.17451 30.0185,-26.43544 42.4555,-42.23795 18.873,-23.98019 30.4034,-51.280431 36.3694,-81.032431 2.8018,-13.97262 3.4816,-28.15415 3.2965,-42.91007 z"
         style="fill:#000000;stroke:none;stroke-width:0.264583" />
      <path
         style="fill:#d0d8dc;fill-opacity:1;stroke:#000000;stroke-width:2.55184"
         d="m -1408.6166,-866.00133 c 1.6888,47.27213 14.8487,93.90293 23.4052,140.43602 7.2034,65.93064 1.8137,132.89773 -15.0419,197.01512 25.992,137.8403 19.8123,286.62928 -43.4669,413.95482 -34.1661,73.11294 -85.4958,136.822727 -145.4291,190.430998 -108.1479,105.596942 -260.7338,162.875732 -411.5791,157.154682 -64.976,1.18446 -130.1741,-7.48139 -191.3902,-29.79436 -119.6496,-41.51706 -228.5714,-116.45888 -303.4464,-219.33423 -49.8159,-65.05989 -87.323,-139.81474 -105.1055,-220.03167 -5.2725,-28.62133 -31.2104,-49.27765 -59.9031,-50.11473 -27.7569,-1.43367 -62.8244,-1.58119 -81.3951,22.58773 -12.0415,29.16857 0.8344,61.54299 7.192,90.66017 45.2631,169.2550529 152.3265,320.03737 295.5236,420.61525 123.2319,89.85312 275.4193,135.67825 427.3653,137.03688 192.2443,5.86166 385.2968,-66.06356 526.5067,-196.70113 109.2414,-97.861083 193.2825,-225.650879 229.4405,-368.53898 52.3895,-209.30345 21.0971,-443.0173 -103.2141,-621.85415 -15.7899,-21.44688 -30.4531,-45.00906 -49.4619,-63.52242 z"
         id="path24"
         transform="scale(0.26458333)" />
    </g>
  </g>
</svg>
